<svg height="185.128" viewBox="0 0 325.25 185.128" width="325.25" xmlns="http://www.w3.org/2000/svg"><path d="m346.87 406.985a13.4 13.4 0 0 1 19.575-13.034 28.267 28.267 0 0 1 3.906-7.856c1.823-2.3 4.574-4.067 7.509-3.963v24.852z" fill="#ebebeb" transform="translate(-199.463 -223.171)"/><path d="m172.238 250.535-15.838 31.94 4.728.18-13.416 25.38h7.046l-10.988 22.548h61.445l-13.529-22.549 6.483-.282-12.969-25.367 4.792-.282z" fill="#ebebeb" transform="translate(-106.419 -162.872)"/><path d="m200.49 318.924c.078 0-.057 13.527-.3 30.207s-.505 30.207-.583 30.206.057-13.524.3-30.21.505-30.204.583-30.203z" fill="#e0e0e0" transform="translate(-131.994 -194.21)"/><path d="m208.66 332.665a10.5 10.5 0 0 1 -1.031 1.476c-.67.886-1.626 2.087-2.7 3.4l-2.762 3.343a12.367 12.367 0 0 1 -1.187 1.352 10.52 10.52 0 0 1 1.031-1.476c.67-.886 1.626-2.087 2.7-3.4l2.762-3.343a12.379 12.379 0 0 1 1.187-1.352z" fill="#e0e0e0" transform="translate(-132.633 -200.505)"/><path d="m195.258 345.864a65.321 65.321 0 0 1 -6.765-5.273 32.785 32.785 0 0 1 3.47 2.525 32.559 32.559 0 0 1 3.295 2.748z" fill="#e0e0e0" transform="translate(-126.912 -204.137)"/><path d="m193.6 373.863a8.489 8.489 0 0 1 -1.155-.922c-.693-.59-1.652-1.4-2.728-2.281s-2.067-1.652-2.785-2.213a8.431 8.431 0 0 1 -1.136-.945 7.043 7.043 0 0 1 1.255.785c.75.521 1.764 1.274 2.845 2.154s2.022 1.722 2.683 2.351a7.044 7.044 0 0 1 1.021 1.071z" fill="#e0e0e0" transform="translate(-125.677 -216.468)"/><path d="m208.96 361.368a1.852 1.852 0 0 1 -.283.431c-.2.268-.5.642-.876 1.1-.76.909-1.868 2.112-3.116 3.413s-2.376 2.478-3.172 3.35a17.274 17.274 0 0 1 -1.309 1.4 1.852 1.852 0 0 1 .283-.431c.2-.268.5-.642.876-1.1.76-.909 1.868-2.112 3.117-3.413s2.376-2.478 3.171-3.349a17.142 17.142 0 0 1 1.309-1.401z" fill="#e0e0e0" transform="translate(-132.277 -213.658)"/><path d="m434.213 299.686h64.2l12-17.033 12.573 17.513 14.776-.235-15.927-21.449-71.582.3z" fill="#e0e0e0" transform="translate(-239.507 -175.678)"/><path d="m493.473 303.459v59.706h64.108v-59.706h-7.348l-12.67-17.278-12.036 17.019z" fill="#f5f5f5" transform="translate(-266.661 -179.205)"/><path d="m235.869 158.073h14.995v25.887h-14.995z" fill="#e0e0e0"/><path d="m259.852 157.345h23.622v14.632h-23.622z" fill="#e0e0e0"/><path d="m266.402 157.345h.542v14.769h-.542z" fill="#ebebeb"/><path d="m276.225 157.345h.542v14.769h-.542z" fill="#ebebeb"/><path d="m266.673 164.904h9.823v.542h-9.823z" fill="#ebebeb"/><path d="m259.852 128.058h23.622v14.632h-23.622z" fill="#e0e0e0"/><path d="m266.402 128.058h.542v14.769h-.542z" fill="#ebebeb"/><path d="m276.225 128.058h.542v14.769h-.542z" fill="#ebebeb"/><path d="m266.673 135.617h9.823v.542h-9.823z" fill="#ebebeb"/><path d="m234.402 128.19h14.898v14.106h-14.898z" fill="#e0e0e0"/><path d="m200.792 124.254h26.02v59.706h-26.02z" fill="#e0e0e0"/><path d="m241.58 128.19h.542v14.106h-.542z" fill="#ebebeb"/><path d="m234.402 135.319h14.898v.542h-14.898z" fill="#ebebeb"/><circle cx="270.865" cy="118.374" fill="#e0e0e0" r="3.159"/><path d="m529.508 285.906 3.987-4.917v-11.827h-8.348v16.838z" fill="#f5f5f5" transform="translate(-281.175 -171.407)"/><path d="m533.2 285.906v-16.744h3.987v11.827z" fill="#ebebeb" transform="translate(-284.863 -171.407)"/><path d="m243.042 96.014h9.841v1.741h-9.841z" fill="#ebebeb"/><path d="m178.398 150.372h48.414v33.588h-48.414z" fill="#f5f5f5"/><path d="m178.398 150.372h30.311v33.588h-30.311z" fill="#e0e0e0"/><path d="m184.373 161.2h19.825v22.701h-19.825z" fill="#f5f5f5"/><path d="m211.375 161.108h12.771v3.252h-12.771z" fill="#ebebeb"/><path d="m434.213 317.606v1.729h64.16v-1.745z" fill="#ebebeb" transform="translate(-239.507 -193.598)"/><path d="m552.638 304.943 12-16.844.037-1.918-12 17.033z" fill="#ebebeb" transform="translate(-293.772 -179.205)"/><path d="m283.571 124.254h14.37v1.115h-14.37z" fill="#ebebeb"/><path d="m240.449 154.107h5.302v2.016h-5.302z" fill="#e0e0e0"/><path d="m400.079 428.158c0 .078-72.815.141-162.617.141-89.833 0-162.633-.063-162.633-.141s72.8-.141 162.633-.141c89.802 0 162.617.063 162.617.141z" fill="#263238" transform="translate(-74.829 -244.199)"/><path d="m351.153 117.748c-12-16.5-29.448-24.2-47.652-24.2 0 0-44.585 0-57.788 39.913-4.866 14.709-3.788 30.683 2.116 45.007a82.538 82.538 0 0 0 8.329 15.489c11.512 16.628 47.342 62.036 47.342 62.036h7.789c10-13.89 35.179-60.033 42.72-74.827 9.469-18.574 10.925-44.466-2.856-63.418zm-40.217 73.832a38.084 38.084 0 1 1 38.084-38.08 38.084 38.084 0 0 1 -38.084 38.08z" fill="#009e84" transform="translate(-151.726 -90.938)"/><path d="m351.153 117.748c-12-16.5-29.448-24.2-47.652-24.2 0 0-44.585 0-57.788 39.913-4.866 14.709-3.788 30.683 2.116 45.007a82.538 82.538 0 0 0 8.329 15.489c11.512 16.628 47.342 62.036 47.342 62.036h7.789c10-13.89 35.179-60.033 42.72-74.827 9.469-18.574 10.925-44.466-2.856-63.418zm-40.217 73.832a38.084 38.084 0 1 1 38.084-38.08 38.084 38.084 0 0 1 -38.084 38.08z" opacity=".4" transform="translate(-151.726 -90.626)"/><path d="m365.625 118.325c-12-16.5-29.448-24.2-47.652-24.2 0 0-44.585 0-57.788 39.912-4.866 14.709-3.788 30.683 2.116 45.007a82.574 82.574 0 0 0 8.33 15.489c11.512 16.628 47.343 62.035 47.343 62.035s41.4-56.951 50.508-74.827c9.467-18.573 10.923-44.462-2.857-63.416zm-48.005 73.832a38.084 38.084 0 1 1 38.08-38.085 37.8 37.8 0 0 1 -38.08 38.085z" fill="#009e84" transform="translate(-158.357 -91.202)"/><path d="m338.335 133.9a38.093 38.093 0 0 0 -35.9 25.359 32.636 32.636 0 1 1 3.984 33.495 38.081 38.081 0 1 0 31.916-58.854z" fill="#009e84" transform="translate(-179.125 -109.429)"/><path d="m338.335 133.9a38.093 38.093 0 0 0 -35.9 25.359 32.636 32.636 0 1 1 3.984 33.495 38.081 38.081 0 1 0 31.916-58.854z" opacity=".4" transform="translate(-179.125 -109.429)"/><path d="m465.271 225.805a7.744 7.744 0 0 0 -5.238-1.293c-3.122.356-7.643.815-7.643.815l.017.148-21.851 1.346-6.688-13.576-10.141 6.681s1.333 2.137 7.017 12.632a11.376 11.376 0 0 0 11.645 5.84l25.729-3.765v-.049c2.656-.15 5.538-.4 5.955-.779.8-.729 1.525-3.383 1.525-3.383s4.582 2.727 5.468 2.787 1.043-.677 1.594-1.458c.376-.533-4.35-3.877-7.389-5.946z" fill="#ffbe9d" transform="translate(-230.12 -145.785)"/><path d="m373.058 185.878s-4.248-8.175-8.14-15.894c-4.78-9.479-15.319-11.375-15.319-11.375l-15.269-2.009s-12.759-5.774-24.649 8.556l-9.775 10.9 2.075 1.866 9.675 8.7 1.912 1.72 4.378-4.507-2.035 11.419-3.591 15.917.011.009 7.763-.938 5.254-32.1 29.6 2.361-2.322 20.24c.476-.073 4.057-.779 5.221-5.645a10.042 10.042 0 0 0 .025-4.721l1.71 4.382z" fill="#455a64" transform="translate(-177.965 -119.305)"/><path d="m335.854 197.285-5.254 32.1-7.763.938a38.066 38.066 0 0 0 38.319 6.774l1.974-17.213 2.322-20.24z" fill="#263238" transform="translate(-188.473 -138.472)"/><path d="m349.559 154.539-.643 26.076 4.939.78.662-26.424a9.813 9.813 0 0 0 -4.958-.432z" fill="#263238" transform="translate(-200.423 -118.838)"/><path d="m388.662 184.045 4.067-22.4c.233-.25 3.573.949 4.579 2.09l-3.653 20.777z" fill="#263238" transform="translate(-218.635 -122.127)"/><g fill="#455a64"><path d="m354.113 196.725a1.359 1.359 0 0 1 .074.447 7.046 7.046 0 0 1 .014 1.236 3.381 3.381 0 0 1 -.614 1.751 2.28 2.28 0 0 1 -.863.726 2.006 2.006 0 0 1 -1.208.146 2.856 2.856 0 0 1 -1.854-1.316 4.144 4.144 0 0 1 -.546-1.771 6.933 6.933 0 0 1 0-1.236 1.306 1.306 0 0 1 .078-.446c.053 0-.009.647.118 1.659a4.169 4.169 0 0 0 .568 1.656 2.652 2.652 0 0 0 1.683 1.177 1.827 1.827 0 0 0 1.814-.751 3.323 3.323 0 0 0 .624-1.617c.114-1.011.056-1.661.112-1.661z" transform="translate(-200.502 -138.003)"/><path d="m352.36 199.529a1.128 1.128 0 1 1 1.466-.631 1.128 1.128 0 0 1 -1.466.631z" transform="translate(-201.675 -138.503)"/><path d="m393.808 200.678a1.128 1.128 0 1 1 -1.128-1.128 1.128 1.128 0 0 1 1.128 1.128z" transform="translate(-219.959 -139.51)"/><path d="m394.253 199.934a4.022 4.022 0 0 1 -.258 1.318 3.292 3.292 0 0 1 -.753 1.28 2.089 2.089 0 0 1 -1.714.631 2.508 2.508 0 0 1 -1.626-.839 2.875 2.875 0 0 1 -.632-1.347 3.141 3.141 0 0 1 -.029-.994c.035-.232.08-.354.1-.351a7.746 7.746 0 0 0 .127 1.3 2.847 2.847 0 0 0 .632 1.218 2.32 2.32 0 0 0 1.458.73 1.864 1.864 0 0 0 1.5-.535 3.32 3.32 0 0 0 .748-1.164c.294-.753.394-1.26.447-1.247z" transform="translate(-218.888 -139.548)"/><path d="m352.79 218.24c-.039 0-.053-.218-.044-.56 0-.171.015-.373.03-.6.01-.12.018-.236.028-.352l.016-.186.009-.1v-.048-.024-.012-.009c-.14.125.19-.172.156-.141a6.485 6.485 0 0 1 1.869.344 6.489 6.489 0 0 1 -1.9-.063l.155-.14v.022.024.049l-.01.1-.021.189c-.015.118-.029.235-.044.356-.03.227-.061.431-.09.6-.059.347-.115.555-.154.551z" transform="translate(-202.176 -147.145)"/><path d="m351.332 230.581a12.583 12.583 0 0 1 .4-3.733 12.534 12.534 0 0 1 -.4 3.733z" transform="translate(-201.51 -152.018)"/><path d="m351.827 243.36a6.5 6.5 0 0 1 -1.761-.717l-.078-.142v-.009-.012-.024-.048l.011-.1.022-.187.046-.353c.031-.225.063-.427.094-.6.062-.338.12-.546.158-.541s.051.219.04.563c-.005.172-.017.376-.034.6-.01.121-.02.238-.029.355l-.018.187-.009.1-.005.048v.024.012.011c.069.127-.095-.171-.077-.141a6.5 6.5 0 0 1 1.64.974z" transform="translate(-200.906 -158.334)"/><path d="m360.519 249.195a6.99 6.99 0 0 1 -2.5-1.243 6.992 6.992 0 0 1 2.5 1.243z" transform="translate(-204.592 -161.683)"/><path d="m370.713 252.674a6.505 6.505 0 0 1 -1.7.843c-.231-.009-.065 0-.116 0h-.005l-.011-.005-.022-.011-.043-.022-.086-.043-.167-.086-.315-.166c-.2-.107-.378-.207-.527-.3-.3-.176-.47-.3-.453-.336s.223.028.542.158c.159.065.347.147.553.241l.323.151.17.082.086.042.044.022.022.01.011.005h.005-.115a6.469 6.469 0 0 1 1.804-.585z" transform="translate(-208.827 -163.788)"/><path d="m379.395 249.747c.029.072-.4.314-.959.541s-1.036.352-1.065.28.4-.314.959-.541 1.036-.353 1.065-.28z" transform="translate(-213.46 -162.501)"/><path d="m386.8 243.453a6.5 6.5 0 0 1 -.054 1.9c-.175.232-.049.064-.088.116h-.005-.011l-.023.009-.045.018-.09.036-.175.069-.333.126c-.213.079-.406.146-.57.2-.327.105-.537.152-.552.116s.169-.148.477-.3c.154-.076.34-.163.547-.254l.327-.141.174-.073.089-.037.045-.018.023-.009h.011.005.005c-.039.052.088-.116-.087.116a6.489 6.489 0 0 1 .33-1.874z" transform="translate(-216.885 -159.627)"/><path d="m389.436 230.495a11.1 11.1 0 0 1 -.362 3.51 11.1 11.1 0 0 1 .362-3.51z" transform="translate(-218.803 -153.689)"/><path d="m387.331 220.122a6.492 6.492 0 0 1 1.9.063l.126.155v.022.024.048l-.01.1-.022.187-.044.353c-.03.225-.062.427-.092.6-.061.339-.118.546-.156.542s-.053-.219-.042-.563c0-.172.015-.376.031-.6l.029-.355.017-.187.01-.1v-.049-.024-.023c.056.069-.125-.155.125.154a6.486 6.486 0 0 1 -1.872-.347z" transform="translate(-218.025 -148.916)"/><path d="m375.062 218.8a9.984 9.984 0 0 1 3.323.358 9.947 9.947 0 0 1 -3.323-.358z" transform="translate(-212.403 -148.306)"/><path d="m362.793 217.472a9.952 9.952 0 0 1 3.324.358 9.986 9.986 0 0 1 -3.324-.358z" transform="translate(-206.782 -147.7)"/></g><path d="m298.453 198.711q-.05.978-.05 1.967a38.257 38.257 0 0 0 .771 7.662l.016.074c.065.314.144.624.216.936.3 1.223.646 2.431 1.035 3.621.051.148.1.3.151.445 1.4-.312 5.453-3.821 10.119-8.206l-9.667-8.692a10.686 10.686 0 0 1 -2.591 2.193z" fill="#ffbe9d" transform="translate(-177.276 -138.12)"/><path d="m405.05 96.71c.336 3.742 4.6 6.9 8.36 6.782 2.072-.064 4.166-.985 6.157-.409 3.337.965 4.686 5.621 8.1 6.245 2.556.467 4.917-1.605 7.511-1.745a8.9 8.9 0 0 1 5.285 1.924 21.144 21.144 0 0 0 4.9 2.926c1.809.611 3.465-.474 5.291-1.032.453 1.163.747 2.59 1.329 3.822s1.286 3.428.252 3.906c0 0-2.876 1.49-4.54 1.41a5.413 5.413 0 0 0 5.244 1.42c.462 2.782.809 5.993-1.075 8.091a6.46 6.46 0 0 1 -3.238 1.814c-6.039 1.559-12.347-2.66-18.476-1.508-2.517.472-4.817 1.831-7.356 2.163a9.445 9.445 0 0 1 -7.076-2c-2.417-1.956-4.08-5.229-7.147-5.74a9.478 9.478 0 0 0 -4.067.537 8.607 8.607 0 0 1 -4.07.447 3.043 3.043 0 0 1 -2.558-2.814" fill="#263238" transform="translate(-222.857 -92.386)"/><path d="m377.037 132.8c.677-3.775 1.458-7.736 1.458-7.736s5.007.049 7.133-6.121c2.028-5.884 3.492-20.039 3.492-20.039a18.523 18.523 0 0 0 -21.109 1.076l-4.991 30.747a6.68 6.68 0 0 0 5.854 7.5 7.058 7.058 0 0 0 8.163-5.427z" fill="#ffbe9d" transform="translate(-206.848 -92.109)"/><path d="m403 120.077a.826.826 0 0 1 -.93.683.79.79 0 0 1 -.71-.881.827.827 0 0 1 .929-.684.791.791 0 0 1 .711.882z" fill="#263238" transform="translate(-224.45 -102.685)"/><path d="m404.408 118.585c-.119.089-.656-.476-1.532-.628s-1.6.173-1.672.049c-.038-.056.1-.229.414-.384a2.269 2.269 0 0 1 1.361-.171 2.174 2.174 0 0 1 1.2.633c.23.255.287.463.229.501z" fill="#263238" transform="translate(-224.38 -101.873)"/><path d="m386.4 117.447a.827.827 0 0 1 -.93.683.791.791 0 0 1 -.71-.882.827.827 0 0 1 .929-.684.791.791 0 0 1 .711.883z" fill="#263238" transform="translate(-216.841 -101.48)"/><path d="m387.433 116.2c-.12.088-.657-.477-1.533-.628s-1.6.173-1.672.049c-.038-.055.1-.229.414-.384a2.27 2.27 0 0 1 1.361-.171 2.179 2.179 0 0 1 1.2.633c.23.255.288.464.23.501z" fill="#263238" transform="translate(-216.601 -100.781)"/><path d="m393.9 123.983a5.868 5.868 0 0 1 1.468-.007c.228.017.447.009.511-.137a1.153 1.153 0 0 0 -.032-.689l-.361-1.82a29.8 29.8 0 0 1 -.7-4.717 29.716 29.716 0 0 1 1.079 4.65q.173.956.332 1.825a1.312 1.312 0 0 1 -.038.9.57.57 0 0 1 -.425.262 1.541 1.541 0 0 1 -.39-.014 5.807 5.807 0 0 1 -1.444-.253z" fill="#263238" transform="translate(-221.038 -101.506)"/><path d="m384.8 146.362a16.4 16.4 0 0 1 -8.1-3.765s1.294 4.724 7.752 5.248z" fill="#eb996e" transform="translate(-213.153 -113.412)"/><path d="m390.232 133.282a1.6 1.6 0 0 0 -1.312-.835 1.462 1.462 0 0 0 -1.089.359.927.927 0 0 0 -.254 1.032 1.077 1.077 0 0 0 1.1.493 3.377 3.377 0 0 0 1.237-.471.988.988 0 0 0 .3-.215.3.3 0 0 0 .056-.327" fill="#eb996e" transform="translate(-218.106 -108.759)"/><path d="m388.737 130.5c.144.017-.022.968.673 1.786s1.726.892 1.71 1.026c0 .062-.258.145-.688.081a2.4 2.4 0 0 1 -1.437-.8 2.093 2.093 0 0 1 -.5-1.487c.03-.406.178-.628.242-.606z" fill="#263238" transform="translate(-218.555 -107.866)"/><path d="m380.216 92.057c1.7 3.741 7.193 8.293 11.438 9.909-.386-.772-2.772-2.943-3.158-3.715 1.713 1.862 4.188 4.387 6.8 5.018a1.633 1.633 0 0 0 .935.029 1.247 1.247 0 0 0 .649-.908 26.884 26.884 0 0 0 .9-5.774 6.465 6.465 0 0 0 -1.515-4.525c-1.447-1.626-3.809-2.4-6.081-2.889a14.727 14.727 0 0 0 -5.781-.3 5.383 5.383 0 0 0 -4.2 3.039" fill="#263238" transform="translate(-214.76 -88.728)"/><path d="m361.542 106.435a36.539 36.539 0 0 1 .164-4.353c.428-3.3 1.458-15.315 12.545-12.225l-1.181 3.077s.852 7.731-4.839 11.882c0 0 .024 7.716-3.917 10.5 0 0-2.749-5.232-2.772-8.881" fill="#263238" transform="translate(-206.207 -89.015)"/><path d="m370.756 116.687a3.845 3.845 0 0 0 -2.066-.229 2.683 2.683 0 0 0 -1.735 1.094 2.8 2.8 0 0 0 -.375 2.026 4.753 4.753 0 0 0 .855 1.911 3.22 3.22 0 0 0 1.089 1.035 1.535 1.535 0 0 0 1.452.03" fill="#ffbe9d" transform="translate(-208.495 -101.409)"/><path d="m370.875 121.531c.073.038-.295.4-.886.121a1.358 1.358 0 0 1 -.649-.8 3.07 3.07 0 0 1 -.139-1.186 1.8 1.8 0 0 1 .5-1.145 1.2 1.2 0 0 1 .984-.369c.641.1.761.575.686.575-.06.043-.268-.229-.7-.2a1.162 1.162 0 0 0 -.938 1.186 1.916 1.916 0 0 0 .452 1.623c.346.264.657.131.69.195z" fill="#eb996e" transform="translate(-209.713 -102.205)"/><path d="m454.693 108.186a1.623 1.623 0 0 1 -.3.442 2.673 2.673 0 0 1 -1.32.761 3.879 3.879 0 0 1 -2.4-.169 10.991 10.991 0 0 1 -2.711-1.7 8.636 8.636 0 0 0 -3.307-1.828 4.563 4.563 0 0 0 -2.076.09 11.167 11.167 0 0 0 -2.084.85c-.695.348-1.4.739-2.149 1.076a6.636 6.636 0 0 1 -2.45.653 4.216 4.216 0 0 1 -2.524-.736 8.175 8.175 0 0 1 -1.9-1.924 20.073 20.073 0 0 0 -3.286-4.034 4.48 4.48 0 0 0 -2.215-.93 7.324 7.324 0 0 0 -2.343.1c-1.522.281-2.941.762-4.337.938a9.358 9.358 0 0 1 -3.865-.335 9.941 9.941 0 0 1 -4.673-3.017 7.276 7.276 0 0 1 -1.126-1.717.483.483 0 0 1 .081.109l.212.333a9.768 9.768 0 0 0 5.563 4.1 9.225 9.225 0 0 0 3.778.294c1.364-.18 2.773-.667 4.321-.962a7.568 7.568 0 0 1 2.427-.115 4.75 4.75 0 0 1 2.346.977 20.023 20.023 0 0 1 3.343 4.084 7.941 7.941 0 0 0 1.827 1.86 3.943 3.943 0 0 0 2.358.693 6.4 6.4 0 0 0 2.35-.623c.74-.328 1.44-.715 2.142-1.063a11.355 11.355 0 0 1 2.138-.858 4.783 4.783 0 0 1 2.186-.079 8.742 8.742 0 0 1 3.381 1.9 11.014 11.014 0 0 0 2.646 1.711 3.8 3.8 0 0 0 2.317.209 2.709 2.709 0 0 0 1.306-.693c.245-.24.329-.406.344-.397z" fill="#263238" transform="translate(-228.243 -92.386)"/><path d="m247.532 316.536-9.827 19.823 2.934.111-8.326 15.752h4.373l-6.822 13.995h38.136l-8.4-13.995 4.023-.175-8.044-15.747 2.974-.175z" fill="#455a64" transform="translate(-145.87 -193.115)"/><path d="m265.049 358.981c.078 0 .018 8.4-.133 18.749s-.338 18.748-.416 18.747-.018-8.394.133-18.75.338-18.747.416-18.746z" fill="#263238" transform="translate(-161.725 -212.565)"/><path d="m270.107 368.386a3.286 3.286 0 0 1 -.588.871 23.8 23.8 0 0 1 -1.711 1.858c-.7.7-1.323 1.322-1.762 1.791a4.814 4.814 0 0 1 -.738.74 3.277 3.277 0 0 1 .588-.871 23.7 23.7 0 0 1 1.712-1.859c.7-.695 1.322-1.321 1.761-1.791a4.818 4.818 0 0 1 .738-.739z" fill="#263238" transform="translate(-162.109 -216.873)"/><path d="m261.818 375.7a25.136 25.136 0 0 1 -4.2-3.272 25.211 25.211 0 0 1 4.2 3.272z" fill="#263238" transform="translate(-158.588 -218.724)"/><path d="m260.792 393.076a138.67 138.67 0 0 1 -4.844-3.947 19.915 19.915 0 0 1 4.844 3.947z" fill="#263238" transform="translate(-157.821 -226.377)"/><path d="m270.321 385.323a17.814 17.814 0 0 1 -2.615 3.1l-1.978 2.067a5.944 5.944 0 0 1 -.841.841 17.8 17.8 0 0 1 2.615-3.1l1.978-2.067a5.985 5.985 0 0 1 .841-.841z" fill="#263238" transform="translate(-161.917 -224.634)"/></svg>