<svg height="63.134" viewBox="0 0 274.103 63.134" width="274.103" xmlns="http://www.w3.org/2000/svg"><g transform="translate(316.31 -788.278)"><path d="m-264.854 814.006c0 14.209-16.42 28.969-25.728 37.406-6.04-6.268-25.728-23.2-25.728-37.406a25.728 25.728 0 0 1 25.728-25.728 25.728 25.728 0 0 1 25.728 25.728z" fill="#009e84"/><path d="m-277.926 814.555-6.31-6.75-6.31-6.75-6.31 6.75-6.31 6.75h3.063v13.607h18.536v-13.607z" fill="#fff"/><g fill="#3e4a65"><path d="m-249.366 800.149a3.268 3.268 0 0 1 3.266 3.265 3.269 3.269 0 0 1 -3.266 3.267 3.269 3.269 0 0 1 -3.265-3.267 3.268 3.268 0 0 1 3.265-3.265zm-2.815 9.009h5.63v18.242h-5.63z"/><path d="m-243.435 809.158h5.4v2.477h.075a5.917 5.917 0 0 1 5.33-2.928c2.553 0 4.655 1.051 5.631 3.266a5.931 5.931 0 0 1 5.78-3.266c4.955 0 6.457 3.492 6.457 7.92v10.773h-5.631v-10.622c0-1.689-.638-3.116-2.477-3.116-2.59 0-3.416 1.839-3.416 4.092v9.646h-5.63v-9.647c0-1.351.075-4.092-2.516-4.092-2.927 0-3.378 2.29-3.378 4.655v9.084h-5.63z"/><path d="m-202.258 808.707c5.63 0 10.135 3.754 10.135 9.573s-4.505 9.571-10.135 9.571-10.135-3.754-10.135-9.571 4.504-9.573 10.135-9.573zm0 14.189a4.266 4.266 0 0 0 4.5-4.616 4.267 4.267 0 0 0 -4.5-4.618 4.267 4.267 0 0 0 -4.505 4.618 4.266 4.266 0 0 0 4.505 4.62z"/><path d="m-189.234 799.023h5.631v12.087h.075c1.276-1.764 3.453-2.4 5.78-2.4 5.18 0 8.334 4.655 8.334 9.722 0 5.519-3.567 9.422-8.972 9.422a7.072 7.072 0 0 1 -5.593-2.854h-.075v2.4h-5.18zm9.684 23.873a4.266 4.266 0 0 0 4.505-4.616 4.267 4.267 0 0 0 -4.505-4.618 4.267 4.267 0 0 0 -4.5 4.618 4.266 4.266 0 0 0 4.5 4.62z"/><path d="m-157.253 812.085h-5.068v10.361c0 2.628 1.014 3.153 2.553 3.153a5.509 5.509 0 0 0 2.552-.676l.113 2.29a8.285 8.285 0 0 1 -3.341.638c-1.877 0-4.354-.825-4.354-4.692v-11.074h-3.717v-2.252h3.717v-4.955h2.477v4.955h5.068z"/><path d="m-153.088 819.292a6.6 6.6 0 0 0 6.457 6.307 6.655 6.655 0 0 0 5.63-3.04l1.915 1.576a9.162 9.162 0 0 1 -7.545 3.716 8.919 8.919 0 0 1 -9.084-9.233 8.872 8.872 0 0 1 8.858-9.235c5.331.037 8.408 3.979 8.408 8.783v1.126zm11.937-2.026a5.3 5.3 0 0 0 -5.706-5.631c-3.228 0-6.156 2.74-6.156 5.631z"/><path d="m-131.842 827.4h-2.478v-28.377h2.478z"/><path d="m-125.086 819.292a6.6 6.6 0 0 0 6.456 6.307 6.655 6.655 0 0 0 5.631-3.04l1.914 1.576a9.162 9.162 0 0 1 -7.545 3.716 8.919 8.919 0 0 1 -9.084-9.233 8.872 8.872 0 0 1 8.859-9.235c5.33.037 8.408 3.979 8.408 8.783v1.126zm11.936-2.026a5.3 5.3 0 0 0 -5.705-5.631c-3.228 0-6.156 2.74-6.156 5.631z"/><path d="m-94.081 813.962a5.274 5.274 0 0 0 -4.392-2.327c-4.091-.075-6.606 2.966-6.606 6.983s2.515 7.056 6.606 6.981a5.271 5.271 0 0 0 4.392-2.327l2.027 1.539a8.5 8.5 0 0 1 -6.419 3.04c-5.743.075-9.309-3.942-9.309-9.233s3.566-9.31 9.309-9.235a8.5 8.5 0 0 1 6.419 3.04z"/><path d="m-81.319 827.851a8.973 8.973 0 0 1 -9.309-9.233 8.973 8.973 0 0 1 9.309-9.235 8.983 8.983 0 0 1 9.346 9.235 8.982 8.982 0 0 1 -9.346 9.233zm0-16.216c-4.054 0-6.607 3.041-6.607 6.983s2.553 6.981 6.607 6.981c4.091 0 6.643-3.04 6.643-6.981s-2.552-6.983-6.643-6.983z"/><path d="m-68.408 813.738c0-1.315-.113-2.59-.188-3.9h2.665v2.662h.076a6.722 6.722 0 0 1 5.668-3.115 5.568 5.568 0 0 1 5.592 3.641 6.418 6.418 0 0 1 5.781-3.641c4.467 0 6.607 2.515 6.607 6.869v11.146h-2.478v-10.246c0-3.567-1.014-5.519-4.429-5.519-3.679 0-4.955 3.153-4.955 6.419v9.346h-2.478v-10.246c0-3.567-1.013-5.519-4.429-5.519-.6 0-4.955.338-4.955 6.757v9.008h-2.477z"/></g></g></svg>