<svg height="201.573" viewBox="0 0 378.293 201.573" width="378.293" xmlns="http://www.w3.org/2000/svg" xmlns:xlink="http://www.w3.org/1999/xlink"><clipPath id="a"><path d="m305.593 351.932 56.164-.356a4.045 4.045 0 0 0 4-4.088l.032-77.222a4.045 4.045 0 0 0 -4.088-4l-56.164.356a4.045 4.045 0 0 0 -4 4.088l-.032 77.222a4.045 4.045 0 0 0 4.088 4z" transform="translate(-301.505 -266.263)"/></clipPath><path d="m271.867 96.3c-15.447-13.175-34.067-92.641-97.867-51.253-32.96 21.384-88.539-18.357-134.542-4.631-42.248 12.606-46.321 54.14-42.233 67.674 8.257 27.338-17.439 31.406-41.277 43.152-37.392 18.424-9.9 83.175 25.429 83.485s249.323-.617 249.323-.617 51.316.13 72.656-28.192c22.969-30.479 8.412-75.58-31.489-109.618z" fill="#ebf1f8" transform="translate(62.973 -33.217)"/><path d="m313.523 494.463h-377.4a.449.449 0 0 1 -.448-.448.45.45 0 0 1 .448-.448h377.4a.45.45 0 0 1 .448.448.449.449 0 0 1 -.448.448z" fill="#29334e" transform="translate(64.323 -293.131)"/><path d="m46.416 212.387h52.31s-3.214-4.368-5.652-4.17-3.879 2.851-6.871 1.064-2.992-4.638-7.2-4.638-6.975 4.463-11.035 4.637c-6.598.284-12.797-9.7-21.552 3.107z" fill="#fff" transform="translate(1.8 -130.005)"/><path d="m589.208 183.913h47.027s-2.889-3.927-5.081-3.748-3.487 2.563-6.177.957-2.69-4.169-6.476-4.169-6.271 4.012-9.921 4.169c-5.928.254-11.501-8.722-19.372 2.791z" fill="#fff" transform="translate(-304.661 -114.37)"/><circle cx="115.893" cy="46.375" fill="#f0c811" r="7.618"/><path d="m142.191 53.073h24.115v89.318h-24.115z" fill="#cddae3"/><path d="m147.46 59.49h2.194v76.686h-2.194z" fill="#dae6f1"/><path d="m152.9 59.49h2.194v76.686h-2.194z" fill="#dae6f1"/><path d="m158.34 59.49h2.193v76.686h-2.193z" fill="#dae6f1"/><circle cx="6.077" cy="6.077" fill="#beced6" r="6.077" transform="matrix(.65624342 -.75454925 .75454925 .65624342 279.01 79.753)"/><path d="m277.077 77.869h21.011v11.329h-21.011z" fill="#cddae3"/><path d="m270.29 84.794h34.033v72.446h-34.033z" fill="#cddae3"/><g fill="#dae6f1"><path d="m275.291 89.198h3.006v8.04h-3.006z"/><path d="m286.08 89.198h3.006v8.04h-3.006z"/><path d="m296.868 89.198h3.006v8.04h-3.006z"/><path d="m275.291 100.847h3.006v8.04h-3.006z"/><path d="m286.08 100.847h3.006v8.04h-3.006z"/><path d="m296.868 100.847h3.006v8.04h-3.006z"/><path d="m275.291 112.495h3.006v8.04h-3.006z"/><path d="m286.08 112.495h3.006v8.04h-3.006z"/><path d="m296.868 112.495h3.006v8.04h-3.006z"/><path d="m275.291 124.144h3.006v8.04h-3.006z"/><path d="m286.08 124.144h3.006v8.04h-3.006z"/><path d="m296.868 124.144h3.006v8.04h-3.006z"/></g><path d="m268.477 134.528h37.257v4.038h-37.257z" fill="#beced6"/><path d="m277.21 143.236h19.791v13.895h-19.791z" fill="#dae6f1"/><circle cx="6.077" cy="6.077" fill="#beced6" r="6.077" transform="matrix(.70710678 -.70710678 .70710678 .70710678 85.07 91.222)"/><path d="m83.158 89.935h21.011v11.329h-21.011z" fill="#cddae3"/><path d="m76.371 96.86h34.033v72.446h-34.033z" fill="#cddae3"/><path d="m81.372 101.264h3.006v8.04h-3.006z" fill="#dae6f1"/><path d="m92.16 101.264h3.006v8.04h-3.006z" fill="#dae6f1"/><path d="m102.949 101.264h3.006v8.04h-3.006z" fill="#dae6f1"/><path d="m81.372 112.913h3.006v8.04h-3.006z" fill="#dae6f1"/><path d="m92.16 112.913h3.006v8.04h-3.006z" fill="#dae6f1"/><path d="m102.949 112.913h3.006v8.04h-3.006z" fill="#dae6f1"/><path d="m81.372 124.561h3.006v8.04h-3.006z" fill="#dae6f1"/><path d="m92.16 124.561h3.006v8.04h-3.006z" fill="#dae6f1"/><path d="m102.949 124.561h3.006v8.04h-3.006z" fill="#dae6f1"/><path d="m81.372 136.21h3.006v8.04h-3.006z" fill="#dae6f1"/><path d="m92.16 136.21h3.006v8.04h-3.006z" fill="#dae6f1"/><path d="m102.949 136.21h3.006v8.04h-3.006z" fill="#dae6f1"/><path d="m74.558 146.594h37.257v4.038h-37.257z" fill="#beced6"/><path d="m83.291 155.302h19.791v13.895h-19.791z" fill="#dae6f1"/><g transform="translate(63.547 108.078)"><path d="m3.279 4.292h41.384v87.781h-41.384z" fill="#a7b7d4"/><path d="m44.663 4.292h17.553v87.781h-17.553z" fill="#4870b2"/><path d="m0 0h44.663v4.292h-44.663z" fill="#2b333f"/><path d="m44.663 0h20.751v4.292h-20.751z" fill="#111416"/><path d="m111.188 332.386h-9.477v-10.552a4.738 4.738 0 0 1 4.738-4.738 4.738 4.738 0 0 1 4.738 4.738z" fill="none" stroke="#dae6f1" stroke-miterlimit="10" stroke-width="1.106" transform="translate(-92.967 -301.574)"/><path d="m7.592 29.729h11.781v1.824h-11.781z" fill="#2b333f"/><path d="m7.592 31.553h11.781v1.097h-11.781z" fill="#92a6c2"/><path d="m152.059 332.386h-9.477v-10.552a4.738 4.738 0 0 1 4.738-4.738 4.738 4.738 0 0 1 4.738 4.738z" fill="none" stroke="#dae6f1" stroke-miterlimit="10" stroke-width="1.106" transform="translate(-116.043 -301.574)"/><path d="m25.387 29.729h11.781v1.824h-11.781z" fill="#2b333f"/><path d="m25.387 31.553h11.781v1.097h-11.781z" fill="#92a6c2"/><path d="m111.188 383.354h-9.477v-10.554a4.739 4.739 0 0 1 4.738-4.738 4.739 4.739 0 0 1 4.738 4.738z" fill="none" stroke="#dae6f1" stroke-miterlimit="10" stroke-width="1.106" transform="translate(-92.967 -330.35)"/><path d="m7.592 51.921h11.781v1.824h-11.781z" fill="#2b333f"/><path d="m7.592 53.745h11.781v1.097h-11.781z" fill="#92a6c2"/><path d="m152.059 383.354h-9.477v-10.554a4.739 4.739 0 0 1 4.738-4.738 4.739 4.739 0 0 1 4.738 4.738z" fill="none" stroke="#dae6f1" stroke-miterlimit="10" stroke-width="1.106" transform="translate(-116.043 -330.35)"/><path d="m25.387 51.921h11.781v1.824h-11.781z" fill="#2b333f"/><path d="m25.387 53.745h11.781v1.097h-11.781z" fill="#92a6c2"/><path d="m118.256 459.807v-25.531h13.115v25.531" fill="none" stroke="#dae6f1" stroke-miterlimit="10" stroke-width="1.106" transform="translate(-102.308 -367.734)"/></g><path d="m119.518 101.703h41.384v98.448h-41.384z" fill="#a7b7d4"/><path d="m160.902 101.703h17.553v98.448h-17.553z" fill="#4870b2"/><path d="m116.239 97.411h44.663v4.292h-44.663z" fill="#2b333f"/><path d="m160.902 97.411h20.751v4.292h-20.751z" fill="#111416"/><path d="m232.208 304.033h-9.476v-10.552a4.738 4.738 0 0 1 4.738-4.738 4.738 4.738 0 0 1 4.738 4.738z" fill="none" stroke="#dae6f1" stroke-miterlimit="10" stroke-width="1.106" transform="translate(-97.748 -177.488)"/><path d="m123.831 125.462h11.781v1.824h-11.781z" fill="#2b333f"/><path d="m123.831 127.286h11.781v1.097h-11.781z" fill="#92a6c2"/><path d="m273.079 304.033h-9.479v-10.552a4.738 4.738 0 0 1 4.738-4.738 4.738 4.738 0 0 1 4.738 4.738z" fill="none" stroke="#dae6f1" stroke-miterlimit="10" stroke-width="1.106" transform="translate(-120.824 -177.488)"/><path d="m141.626 125.462h11.781v1.824h-11.781z" fill="#2b333f"/><path d="m141.626 127.286h11.781v1.097h-11.781z" fill="#92a6c2"/><path d="m232.208 355h-9.476v-10.551a4.738 4.738 0 0 1 4.738-4.738 4.738 4.738 0 0 1 4.738 4.738z" fill="none" stroke="#dae6f1" stroke-miterlimit="10" stroke-width="1.106" transform="translate(-97.748 -206.264)"/><path d="m123.831 147.654h11.781v1.824h-11.781z" fill="#2b333f"/><path d="m123.831 149.478h11.781v1.097h-11.781z" fill="#92a6c2"/><path d="m273.079 355h-9.479v-10.551a4.738 4.738 0 0 1 4.738-4.738 4.738 4.738 0 0 1 4.738 4.738z" fill="none" stroke="#dae6f1" stroke-miterlimit="10" stroke-width="1.106" transform="translate(-120.824 -206.264)"/><path d="m141.626 147.654h11.781v1.824h-11.781z" fill="#2b333f"/><path d="m141.626 149.478h11.781v1.097h-11.781z" fill="#92a6c2"/><path d="m232.208 405.969h-9.476v-10.552a4.738 4.738 0 0 1 4.738-4.738 4.738 4.738 0 0 1 4.738 4.738z" fill="none" stroke="#dae6f1" stroke-miterlimit="10" stroke-width="1.106" transform="translate(-97.748 -235.041)"/><path d="m123.831 169.845h11.781v1.824h-11.781z" fill="#2b333f"/><path d="m123.831 171.669h11.781v1.097h-11.781z" fill="#92a6c2"/><path d="m273.079 405.969h-9.479v-10.552a4.738 4.738 0 0 1 4.738-4.738 4.738 4.738 0 0 1 4.738 4.738z" fill="none" stroke="#dae6f1" stroke-miterlimit="10" stroke-width="1.106" transform="translate(-120.824 -235.041)"/><path d="m141.626 169.845h11.781v1.824h-11.781z" fill="#2b333f"/><path d="m141.626 171.669h11.781v1.097h-11.781z" fill="#92a6c2"/><path d="m119.518 89.733h41.384v7.678h-41.384z" fill="#a7b7d4"/><path d="m160.96 89.733h15.664v7.678h-15.664z" fill="#4870b2"/><path d="m135.613 78.034h11.904v11.904h-11.904z" fill="#a7b7d4"/><path d="m147.456 78.034h29.169v11.904h-29.169z" fill="#4870b2"/><g transform="translate(172.064 58.541)"><path d="m4.561 5.971h57.572v135.64h-57.572z" fill="#a7b7d4"/><path d="m62.133 5.971h29.342v135.64h-29.342z" fill="#4870b2"/><path d="m0 0h62.133v5.971h-62.133z" fill="#2b333f"/><path d="m62.133 0h33.79v5.971h-33.79z" fill="#111416"/><path d="m10.741 17.191h9.477v15.29h-9.477z" fill="#dae6f1"/><path d="m363.678 206.864-8.145 8.07v2.773l9.477-9.882z" fill="#fff" opacity=".54" transform="translate(-344.792 -189.8)"/><path d="m365.328 212.864-9.232 9.624v1.891l9.477-9.882z" fill="#fff" opacity=".54" transform="translate(-345.11 -193.187)"/><path d="m364.89 222.26h-10.29v-16.534h10.29zm-9.477-1.243h8.662v-14.048h-8.662z" fill="#5e7391" transform="translate(-344.264 -189.157)"/><path d="m9.589 31.398h11.781v2.451h-11.781z" fill="#2b333f"/><path d="m10.741 24.088h9.477v1.047h-9.477z" fill="#5e7391"/><path d="m9.589 33.848h11.781v1.097h-11.781z" fill="#92a6c2"/><path d="m28.127 17.191h9.477v15.29h-9.477z" fill="#dae6f1"/><path d="m403.609 206.864-8.145 8.07v2.773l9.477-9.882z" fill="#fff" opacity=".54" transform="translate(-367.337 -189.8)"/><path d="m405.258 212.864-9.232 9.624v1.891l9.474-9.879z" fill="#fff" opacity=".54" transform="translate(-367.654 -193.187)"/><path d="m404.82 222.26h-10.292v-16.534h10.292zm-9.476-1.243h8.656v-14.048h-8.662z" fill="#5e7391" transform="translate(-366.808 -189.157)"/><path d="m26.975 31.398h11.781v2.451h-11.781z" fill="#2b333f"/><path d="m28.127 24.088h9.477v1.047h-9.477z" fill="#5e7391"/><path d="m26.975 33.848h11.781v1.097h-11.781z" fill="#92a6c2"/><path d="m45.512 17.191h9.477v15.29h-9.477z" fill="#dae6f1"/><path d="m443.539 206.864-8.145 8.07v2.773l9.477-9.882z" fill="#fff" opacity=".54" transform="translate(-389.882 -189.8)"/><path d="m445.189 212.864-9.232 9.624v1.891l9.477-9.882z" fill="#fff" opacity=".54" transform="translate(-390.2 -193.187)"/><path d="m444.751 222.26h-10.292v-16.534h10.291zm-9.477-1.243h8.662v-14.048h-8.662z" fill="#5e7391" transform="translate(-389.354 -189.157)"/><path d="m44.36 31.398h11.781v2.451h-11.781z" fill="#2b333f"/><path d="m45.512 24.088h9.477v1.047h-9.477z" fill="#5e7391"/><path d="m44.36 33.848h11.781v1.097h-11.781z" fill="#92a6c2"/><path d="m10.741 42.617h9.477v15.29h-9.477z" fill="#dae6f1"/><path d="m363.678 265.263-8.145 8.07v2.773l9.477-9.882z" fill="#fff" opacity=".54" transform="translate(-344.792 -222.771)"/><path d="m365.328 271.262-9.232 9.624v1.891l9.477-9.882z" fill="#fff" opacity=".54" transform="translate(-345.11 -226.159)"/><path d="m364.89 280.658h-10.29v-16.533h10.29zm-9.477-1.243h8.662v-14.047h-8.662z" fill="#5e7391" transform="translate(-344.264 -222.129)"/><path d="m9.589 56.824h11.781v2.451h-11.781z" fill="#2b333f"/><path d="m10.741 49.515h9.477v1.047h-9.477z" fill="#5e7391"/><path d="m9.589 59.275h11.781v1.097h-11.781z" fill="#92a6c2"/><path d="m28.127 42.617h9.477v15.29h-9.477z" fill="#dae6f1"/><path d="m403.609 265.263-8.145 8.07v2.773l9.477-9.882z" fill="#fff" opacity=".54" transform="translate(-367.337 -222.771)"/><path d="m405.258 271.262-9.232 9.624v1.891l9.474-9.877z" fill="#fff" opacity=".54" transform="translate(-367.654 -226.159)"/><path d="m404.82 280.658h-10.292v-16.533h10.292zm-9.476-1.243h8.656v-14.047h-8.662z" fill="#5e7391" transform="translate(-366.808 -222.129)"/><path d="m26.975 56.824h11.781v2.451h-11.781z" fill="#2b333f"/><path d="m28.127 49.515h9.477v1.047h-9.477z" fill="#5e7391"/><path d="m26.975 59.275h11.781v1.097h-11.781z" fill="#92a6c2"/><path d="m45.512 42.617h9.477v15.29h-9.477z" fill="#dae6f1"/><path d="m443.539 265.263-8.145 8.07v2.773l9.477-9.882z" fill="#fff" opacity=".54" transform="translate(-389.882 -222.771)"/><path d="m445.189 271.262-9.232 9.624v1.891l9.477-9.882z" fill="#fff" opacity=".54" transform="translate(-390.2 -226.159)"/><path d="m444.751 280.658h-10.292v-16.533h10.291zm-9.477-1.243h8.662v-14.047h-8.662z" fill="#5e7391" transform="translate(-389.354 -222.129)"/><path d="m44.36 56.824h11.781v2.451h-11.781z" fill="#2b333f"/><path d="m45.512 49.515h9.477v1.047h-9.477z" fill="#5e7391"/><path d="m44.36 59.275h11.781v1.097h-11.781z" fill="#92a6c2"/><path d="m10.741 68.044h9.477v15.29h-9.477z" fill="#dae6f1"/><path d="m363.678 323.661-8.145 8.07v2.769l9.477-9.882z" fill="#fff" opacity=".54" transform="translate(-344.792 -255.744)"/><path d="m365.328 329.661-9.232 9.624v1.891l9.477-9.882z" fill="#fff" opacity=".54" transform="translate(-345.11 -259.131)"/><path d="m364.89 339.056h-10.29v-16.533h10.29zm-9.477-1.243h8.662v-14.046h-8.662z" fill="#5e7391" transform="translate(-344.264 -255.101)"/><path d="m9.589 82.25h11.781v2.451h-11.781z" fill="#2b333f"/><path d="m10.741 74.941h9.477v1.047h-9.477z" fill="#5e7391"/><path d="m9.589 84.701h11.781v1.097h-11.781z" fill="#92a6c2"/><path d="m28.127 68.044h9.477v15.29h-9.477z" fill="#dae6f1"/><path d="m403.609 323.661-8.145 8.07v2.769l9.477-9.882z" fill="#fff" opacity=".54" transform="translate(-367.337 -255.744)"/><path d="m405.258 329.661-9.232 9.624v1.891l9.477-9.882z" fill="#fff" opacity=".54" transform="translate(-367.654 -259.131)"/><path d="m404.82 339.056h-10.292v-16.533h10.292zm-9.476-1.243h8.656v-14.046h-8.662z" fill="#5e7391" transform="translate(-366.808 -255.101)"/><path d="m26.975 82.25h11.781v2.451h-11.781z" fill="#2b333f"/><path d="m28.127 74.941h9.477v1.047h-9.477z" fill="#5e7391"/><path d="m26.975 84.701h11.781v1.097h-11.781z" fill="#92a6c2"/><path d="m45.512 68.044h9.477v15.29h-9.477z" fill="#dae6f1"/><path d="m443.539 323.661-8.145 8.07v2.769l9.477-9.882z" fill="#fff" opacity=".54" transform="translate(-389.882 -255.744)"/><path d="m445.189 329.661-9.232 9.624v1.891l9.477-9.882z" fill="#fff" opacity=".54" transform="translate(-390.2 -259.131)"/><path d="m444.751 339.056h-10.292v-16.533h10.291zm-9.477-1.243h8.662v-14.046h-8.662z" fill="#5e7391" transform="translate(-389.354 -255.101)"/><path d="m44.36 82.25h11.781v2.451h-11.781z" fill="#2b333f"/><path d="m45.512 74.941h9.477v1.047h-9.477z" fill="#5e7391"/><path d="m44.36 84.701h11.781v1.097h-11.781z" fill="#92a6c2"/><path d="m10.741 93.471h9.477v15.29h-9.477z" fill="#dae6f1"/><path d="m363.678 382.059-8.145 8.07v2.771l9.477-9.882z" fill="#fff" opacity=".54" transform="translate(-344.792 -288.715)"/><path d="m365.328 388.059-9.232 9.624v1.891l9.477-9.882z" fill="#fff" opacity=".54" transform="translate(-345.11 -292.102)"/><path d="m364.89 397.455h-10.29v-16.534h10.29zm-9.477-1.243h8.662v-14.047h-8.662z" fill="#5e7391" transform="translate(-344.264 -288.072)"/><path d="m9.589 107.678h11.781v2.451h-11.781z" fill="#2b333f"/><path d="m10.741 100.368h9.477v1.047h-9.477z" fill="#5e7391"/><path d="m9.589 110.128h11.781v1.097h-11.781z" fill="#92a6c2"/><path d="m28.127 93.471h9.477v15.29h-9.477z" fill="#dae6f1"/><path d="m403.609 382.059-8.145 8.07v2.771l9.477-9.882z" fill="#fff" opacity=".54" transform="translate(-367.337 -288.715)"/><path d="m405.258 388.059-9.232 9.624v1.891l9.477-9.882z" fill="#fff" opacity=".54" transform="translate(-367.654 -292.102)"/><path d="m404.82 397.455h-10.292v-16.534h10.292zm-9.476-1.243h8.656v-14.047h-8.662z" fill="#5e7391" transform="translate(-366.808 -288.072)"/><path d="m26.975 107.678h11.781v2.451h-11.781z" fill="#2b333f"/><path d="m28.127 100.368h9.477v1.047h-9.477z" fill="#5e7391"/><path d="m26.975 110.128h11.781v1.097h-11.781z" fill="#92a6c2"/><path d="m45.512 93.471h9.477v15.29h-9.477z" fill="#dae6f1"/><path d="m443.539 382.059-8.145 8.07v2.771l9.477-9.882z" fill="#fff" opacity=".54" transform="translate(-389.882 -288.715)"/><path d="m445.189 388.059-9.232 9.624v1.891l9.477-9.882z" fill="#fff" opacity=".54" transform="translate(-390.2 -292.102)"/><path d="m444.751 397.455h-10.292v-16.534h10.291zm-9.477-1.243h8.662v-14.047h-8.662z" fill="#5e7391" transform="translate(-389.354 -288.072)"/><path d="m44.36 107.678h11.781v2.451h-11.781z" fill="#2b333f"/><path d="m45.512 100.368h9.477v1.047h-9.477z" fill="#5e7391"/><path d="m44.36 110.128h11.781v1.097h-11.781z" fill="#92a6c2"/><path d="m383.339 467.593v-19.528h17.127v19.527" fill="none" stroke="#dae6f1" stroke-miterlimit="10" stroke-width="1.106" transform="translate(-360.491 -325.982)"/></g><path d="m256.301 101.703h41.384v98.448h-41.384z" fill="#a7b7d4"/><path d="m297.685 101.703h17.553v98.448h-17.553z" fill="#4870b2"/><path d="m253.022 97.411h44.663v4.292h-44.663z" fill="#2b333f"/><path d="m297.685 97.411h20.751v4.292h-20.751z" fill="#111416"/><path d="m546.365 304.033h-9.477v-10.552a4.738 4.738 0 0 1 4.738-4.738 4.738 4.738 0 0 1 4.739 4.738z" fill="none" stroke="#dae6f1" stroke-miterlimit="10" stroke-width="1.106" transform="translate(-275.121 -177.488)"/><path d="m260.614 125.462h11.781v1.824h-11.781z" fill="#2b333f"/><path d="m260.614 127.286h11.781v1.097h-11.781z" fill="#92a6c2"/><path d="m587.235 304.033h-9.477v-10.552a4.738 4.738 0 0 1 4.738-4.738 4.738 4.738 0 0 1 4.738 4.738z" fill="none" stroke="#dae6f1" stroke-miterlimit="10" stroke-width="1.106" transform="translate(-298.197 -177.488)"/><path d="m278.409 125.462h11.781v1.824h-11.781z" fill="#2b333f"/><path d="m278.409 127.286h11.781v1.097h-11.781z" fill="#92a6c2"/><path d="m546.365 355h-9.477v-10.551a4.738 4.738 0 0 1 4.738-4.738 4.738 4.738 0 0 1 4.739 4.738z" fill="none" stroke="#dae6f1" stroke-miterlimit="10" stroke-width="1.106" transform="translate(-275.121 -206.264)"/><path d="m260.614 147.654h11.781v1.824h-11.781z" fill="#2b333f"/><path d="m260.614 149.478h11.781v1.097h-11.781z" fill="#92a6c2"/><path d="m587.235 355h-9.477v-10.551a4.738 4.738 0 0 1 4.738-4.738 4.738 4.738 0 0 1 4.738 4.738z" fill="none" stroke="#dae6f1" stroke-miterlimit="10" stroke-width="1.106" transform="translate(-298.197 -206.264)"/><path d="m278.409 147.654h11.781v1.824h-11.781z" fill="#2b333f"/><path d="m278.409 149.478h11.781v1.097h-11.781z" fill="#92a6c2"/><path d="m546.365 405.969h-9.477v-10.552a4.738 4.738 0 0 1 4.738-4.738 4.739 4.739 0 0 1 4.739 4.738z" fill="none" stroke="#dae6f1" stroke-miterlimit="10" stroke-width="1.106" transform="translate(-275.121 -235.041)"/><path d="m260.614 169.845h11.781v1.824h-11.781z" fill="#2b333f"/><path d="m260.614 171.669h11.781v1.097h-11.781z" fill="#92a6c2"/><path d="m587.235 405.969h-9.477v-10.552a4.738 4.738 0 0 1 4.738-4.738 4.739 4.739 0 0 1 4.738 4.738z" fill="none" stroke="#dae6f1" stroke-miterlimit="10" stroke-width="1.106" transform="translate(-298.197 -235.041)"/><path d="m278.409 169.845h11.781v1.824h-11.781z" fill="#2b333f"/><path d="m278.409 171.669h11.781v1.097h-11.781z" fill="#92a6c2"/><path d="m580.581 436.128a7.684 7.684 0 0 1 -7.684-7.683v-11.968a7.684 7.684 0 0 1 7.684-7.683 7.684 7.684 0 0 1 7.683 7.683v11.967a7.684 7.684 0 0 1 -7.683 7.684z" fill="#fff" transform="translate(-295.453 -245.268)"/><path d="m285.128 171.522v26.917" fill="none" stroke="#2b333f" stroke-miterlimit="10" stroke-width="1.431"/><path d="m285.128 180.757 3.967-4.203" fill="none" stroke="#2b333f" stroke-miterlimit="10" stroke-width="1.431"/><circle cx="13.729" cy="13.729" fill="#7cacdb" r="13.729" transform="matrix(.23288528 -.97250421 .97250421 .23288528 306.504 178.123)"/><path d="m323.053 163.197v33.575" fill="none" stroke="#2b333f" stroke-miterlimit="10" stroke-width="1.431"/><path d="m323.053 172.432 3.967-4.203" fill="none" stroke="#2b333f" stroke-miterlimit="10" stroke-width="1.431"/><circle cx="66.825" cy="170.927" fill="#7cacdb" r="13.729"/><path d="m66.825 166.156v33.575" fill="none" stroke="#2b333f" stroke-miterlimit="10" stroke-width="1.431"/><path d="m66.825 175.391 3.967-4.203" fill="none" stroke="#2b333f" stroke-miterlimit="10" stroke-width="1.431"/><path d="m174.243 440.062a7.684 7.684 0 0 1 -7.683-7.684v-11.967a7.684 7.684 0 0 1 7.683-7.683 7.684 7.684 0 0 1 7.683 7.683v11.967a7.684 7.684 0 0 1 -7.683 7.684z" fill="#fff" transform="translate(-66.034 -247.489)"/><path d="m108.21 173.235v26.917" fill="none" stroke="#2b333f" stroke-miterlimit="10" stroke-width="1.431"/><path d="m108.21 182.47 3.967-4.203" fill="none" stroke="#2b333f" stroke-miterlimit="10" stroke-width="1.431"/><path d="m510.252 471.577a10.994 10.994 0 0 0 -10.86 9.291h21.719a10.994 10.994 0 0 0 -10.859-9.291z" fill="#7cacdb" transform="translate(-253.951 -280.716)"/><path d="m43.542 471.577a10.994 10.994 0 0 0 -10.86 9.291h21.718a10.994 10.994 0 0 0 -10.858-9.291z" fill="#7cacdb" transform="translate(9.554 -280.716)"/><path d="m663.566 471.577a10.994 10.994 0 0 0 -10.86 9.291h21.72a10.993 10.993 0 0 0 -10.86-9.291z" fill="#7cacdb" transform="translate(-340.513 -280.716)"/><path d="m83.23 480.221a6.54 6.54 0 0 0 -6.461 5.527h12.921a6.54 6.54 0 0 0 -6.46-5.527z" fill="#7cacdb" transform="translate(-15.338 -285.596)"/><path d="m201.8 480.221a6.54 6.54 0 0 0 -6.46 5.527h12.921a6.54 6.54 0 0 0 -6.461-5.527z" fill="#7cacdb" transform="translate(-82.283 -285.596)"/><path d="m590.741 478.2a7.583 7.583 0 0 0 -7.491 6.409h14.982a7.583 7.583 0 0 0 -7.491-6.409z" fill="#7cacdb" transform="translate(-301.298 -284.453)"/><path d="m301.327 351.673 58.623-.377a5.184 5.184 0 0 0 5.129-5.239l.017-80.272a5.184 5.184 0 0 0 -5.239-5.129l-58.623.377a5.185 5.185 0 0 0 -5.129 5.239l-.017 80.272a5.184 5.184 0 0 0 5.239 5.129z" fill="#1c1c1c" transform="translate(-139.166 -161.629)"/><g transform="translate(159.281 101.468)"><path d="m305.593 351.932 56.164-.356a4.045 4.045 0 0 0 4-4.088l.032-77.222a4.045 4.045 0 0 0 -4.088-4l-56.164.356a4.045 4.045 0 0 0 -4 4.088l-.032 77.222a4.045 4.045 0 0 0 4.088 4z" fill="#fff" transform="translate(-301.505 -266.263)"/><g clip-path="url(#a)"><g fill="none" stroke="#dae6f1" stroke-miterlimit="10" stroke-width="5.796"><path d="m296.088 292.409h19.912a5.9 5.9 0 0 0 5.9-5.9v-35.989" transform="translate(-298.447 -257.375)"/><path d="m381.394 255.1v22.323a5.261 5.261 0 0 0 5.261 5.261h28.2" transform="translate(-346.61 -259.961)"/><path d="m0 0h77.237" transform="translate(-6.99 45.69)"/></g><g transform="translate(28.589 29.828)"><rect fill="#f0c811" height="9.404" rx="3.015" width="29.573"/><text fill="#fff" font-family="Montserrat-Bold, Montserrat" font-size="2" font-weight="700" transform="translate(2.917 4.49)"><tspan x="0" y="0">SEARCH</tspan></text></g><path d="m295.69 396.672h13.883a5.262 5.262 0 0 1 5.262 5.262v36.219" fill="none" stroke="#dae6f1" stroke-miterlimit="10" stroke-width="5.796" transform="translate(-298.222 -339.892)"/><path d="m383.72 429.993v-28.059a5.262 5.262 0 0 1 5.262-5.262h35.347" fill="none" stroke="#dae6f1" stroke-miterlimit="10" stroke-width="5.796" transform="translate(-347.924 -339.892)"/></g></g><path d="m360.663 420.727a3.928 3.928 0 1 0 -6.936 0l.009.015.016.03 2.649 4.811a.908.908 0 0 0 1.59 0l2.649-4.811.016-.03z" fill="#f0c811" transform="translate(-171.448 -248.747)"/><path d="m327.947 302.013a3.929 3.929 0 1 0 -6.937 0l.009.015.017.03 2.649 4.811a.908.908 0 0 0 1.591 0l2.649-4.811.016-.03z" fill="#f0c811" transform="translate(-152.977 -181.72)"/><path d="m282.141 464.189-4.654 10.094h-18.01l10.4-16.328z" fill="#d3825e" transform="translate(-118.495 -273.025)"/><path d="m292.773 367.971a3.45 3.45 0 0 0 -1.548-.522c-2.193-.2-3.518 1.277-4.2 6.516-.827 6.357-.072 11.415-3.772 12.6a9.594 9.594 0 0 1 -1.206.3v-24.118c-3.3 5.566-6.656 13.112-9.008 16.892a10.922 10.922 0 0 0 -1.59 8.117c3.581 15.855 3.405 29 7.972 30.241 0 0 14.793-.452 14.791-30.092 0 0 .166-14.917-.5-18.243a2.508 2.508 0 0 0 -.939-1.691z" fill="#d3825e" transform="translate(-125.126 -219.27)"/><path d="m312.868 380.419s-.394-4.51 2.217-4.51c2.252 0 1.859 4.51 1.859 4.51z" fill="#e3997d" transform="translate(-148.628 -226.701)"/><path d="m292.428 400.118-2.822.566 2.822-14.458z" fill="#be6a47" transform="translate(-135.506 -232.526)"/><path d="m457.065 392.25-6.5-13.436a3.034 3.034 0 0 0 -4-1.486 3.033 3.033 0 0 0 -1.542 3.962l5.951 13.153z" fill="#d3825e" transform="translate(-223.117 -227.351)"/><path d="m427.228 377.676s-7.614 5.692-15.522 7.429a1.493 1.493 0 0 0 -1.181 1.456 1.486 1.486 0 0 0 1.311 1.48c2.955.337 9.466 1.092 18.12-5.84z" fill="#d3825e" transform="translate(-203.777 -227.699)"/><path d="m415.643 392.587s.957 1.649-1.507 2.032c-1.5.234-2.07-.159-2.281-.5a.337.337 0 0 1 .213-.5z" fill="#e3997d" transform="translate(-204.5 -236.118)"/><path d="m467.87 393.462-6.5-13.436a3.034 3.034 0 0 0 -4-1.486 3.033 3.033 0 0 0 -1.543 3.962l5.951 13.153z" fill="#d3825e" transform="translate(-229.218 -228.035)"/><path d="m478.182 397.462s-4.293-10.832-6.54-14.251a3.219 3.219 0 0 0 -4-1.486 3.033 3.033 0 0 0 -1.543 3.962l5.952 13.153z" fill="#d3825e" transform="translate(-235.018 -229.843)"/><path d="m420.147 413.978a1.555 1.555 0 0 1 -.234-.111 39.207 39.207 0 0 0 -9.188-3.742 5.686 5.686 0 0 0 -5.293 1.449 1.629 1.629 0 0 0 1.018 2.686c4.269 1.03 5.509 2.514 7.617 4.032 4.744 3.416 7.138 14.752 19.8 15.424.767.04 6.879-.222 7.072-.966l-2.765-10.441a1.6 1.6 0 0 0 -.986-1.9z" fill="#d3825e" transform="translate(-200.658 -245.938)"/><path d="m439.493 410.681s1.559-.059 1.24-2.92c0 0 10.7-4.291 19.919-3.418 0 0 5.4 11.761 9.749 23.586l-21.516.914z" fill="#d3825e" transform="translate(-220.132 -242.689)"/><path d="m428.245 375.537s-.815-6.993-10.239-24.571c-.539-1.005-2.541-5.135-.618-6.431 1.231-.83 2.567.15 3.564 1.34.572.683 2.06 3.224 2.529 3.987 5.243 8.545 13.128 22.872 13.128 22.872z" fill="#d3825e" transform="translate(-207.19 -208.814)"/><path d="m222.212 150.848 6.267 11.301" fill="none" stroke="#be6a47" stroke-miterlimit="10" stroke-width="1.016"/><path d="m227.275 151.106 4.945 9.207" fill="none" stroke="#be6a47" stroke-miterlimit="10" stroke-width="1.016"/><path d="m232.22 152.105 3.71 6.822" fill="none" stroke="#be6a47" stroke-miterlimit="10" stroke-width="1.016"/><path d="m216.345 154.411 2.02 4.815" fill="none" stroke="#be6a47" stroke-miterlimit="10" stroke-width="1.016"/><path d="m425.361 349.1s-2.5.949-3.687-1.1a2.791 2.791 0 0 1 -.343-2.783.819.819 0 0 1 1.145-.221 36.241 36.241 0 0 1 2.885 4.104z" fill="#e3997d" transform="translate(-209.749 -209.166)"/><path d="m408.329 417.972s.061-1.944 2.24-1.284a6.719 6.719 0 0 1 2.154 1.045l-.639 1.595a18.168 18.168 0 0 0 -3.755-1.356z" fill="#e3997d" transform="translate(-202.537 -249.649)"/><path d="m439.493 415.265s1.556-.117 1.24-2.92a13.415 13.415 0 0 1 1.171 5.5 12.192 12.192 0 0 0 -2.411-2.58z" fill="#be6a47" transform="translate(-220.132 -247.273)"/><path d="m487.331 455.149 8.917 16.017h-19.228l-7.542-18.731z" fill="#d3825e" transform="translate(-237.062 -269.909)"/><path d="m413 231a13.529 13.529 0 1 0 -23.888 0l.03.054.056.1 9.123 16.566a3.127 3.127 0 0 0 5.477 0l9.123-16.566.057-.1z" fill="#f0c811" transform="translate(-190.79 -133.663)"/><path d="m416.446 228.927-5.41-4.167a.575.575 0 0 0 -.711 0l-2.09 1.6v-1.19a.289.289 0 0 0 -.287-.287h-1.12a.289.289 0 0 0 -.287.287v2.5l-1.639 1.243a.59.59 0 0 0 .355 1.052h.246v7.086h10.343v-7.086h.246a.579.579 0 0 0 .354-1.038zm-4.509 6.5h-2.514v-2.637a1.257 1.257 0 1 1 2.514 0z" fill="#fff" transform="translate(-200.475 -141.293)"/><path d="m403.653 258.246.352.946a.06.06 0 0 0 .054.039l1.008.042a.06.06 0 0 1 .034.107l-.791.627a.061.061 0 0 0 -.02.063l.271.972a.06.06 0 0 1 -.091.066l-.84-.558a.059.059 0 0 0 -.066 0l-.841.558a.06.06 0 0 1 -.091-.066l.271-.972a.06.06 0 0 0 -.021-.063l-.791-.627a.06.06 0 0 1 .035-.107l1.008-.042a.06.06 0 0 0 .054-.039l.352-.946a.06.06 0 0 1 .113 0z" fill="#fff" transform="translate(-199.004 -160.247)"/><path d="m412.238 258.246.352.946a.06.06 0 0 0 .054.039l1.008.042a.06.06 0 0 1 .035.107l-.791.627a.062.062 0 0 0 -.02.063l.272.972a.06.06 0 0 1 -.091.066l-.84-.558a.059.059 0 0 0 -.066 0l-.84.558a.06.06 0 0 1 -.091-.066l.271-.972a.061.061 0 0 0 -.02-.063l-.791-.627a.06.06 0 0 1 .034-.107l1.008-.042a.061.061 0 0 0 .054-.039l.351-.946a.06.06 0 0 1 .111 0z" fill="#fff" transform="translate(-203.851 -160.247)"/><path d="m420.822 258.246.352.946a.06.06 0 0 0 .054.039l1.008.042a.06.06 0 0 1 .034.107l-.791.627a.061.061 0 0 0 -.021.063l.271.972a.06.06 0 0 1 -.091.066l-.84-.558a.059.059 0 0 0 -.066 0l-.841.558a.06.06 0 0 1 -.091-.066l.271-.972a.06.06 0 0 0 -.02-.063l-.791-.627a.06.06 0 0 1 .035-.107l1.008-.042a.06.06 0 0 0 .054-.039l.352-.946a.06.06 0 0 1 .113 0z" fill="#fff" transform="translate(-208.697 -160.247)"/><path d="m429.407 258.246.352.946a.06.06 0 0 0 .054.039l1.008.042a.06.06 0 0 1 .035.107l-.791.627a.061.061 0 0 0 -.02.063l.272.972a.06.06 0 0 1 -.091.066l-.84-.558a.059.059 0 0 0 -.066 0l-.84.558a.06.06 0 0 1 -.091-.066l.272-.972a.061.061 0 0 0 -.02-.063l-.791-.627a.06.06 0 0 1 .034-.107l1.008-.042a.06.06 0 0 0 .054-.039l.351-.946a.06.06 0 0 1 .11 0z" fill="#fff" transform="translate(-213.544 -160.247)"/></svg>