<svg height="212.349" viewBox="0 0 402.406 212.349" width="402.406" xmlns="http://www.w3.org/2000/svg" xmlns:xlink="http://www.w3.org/1999/xlink"><clipPath id="a"><rect height="70.751" rx="14.222" width="107.154"/></clipPath><radialGradient id="b" cx=".109" cy=".359" gradientTransform="matrix(.683 0 0 1 .159 0)" gradientUnits="objectBoundingBox" r=".627"><stop offset="0" stop-color="#fff"/><stop offset="1" stop-color="#fff" stop-opacity="0"/></radialGradient><linearGradient id="c" gradientUnits="objectBoundingBox" x1=".5" x2=".5" y2="1"><stop offset="0" stop-color="#ffd71d"/><stop offset="1" stop-color="#feb200"/></linearGradient><linearGradient id="d" gradientUnits="objectBoundingBox" x1="2.588" x2="3.588" y1=".5" y2=".5"><stop offset="0" stop-color="#343a44"/><stop offset=".301" stop-color="#232c3d"/><stop offset=".639" stop-color="#172339"/><stop offset="1" stop-color="#142138"/></linearGradient><linearGradient id="e" x1="2.468" x2="3.468" xlink:href="#d" y1=".5" y2=".5"/><path d="m50.488 68.609c-20.314 12.775-30.955 41.561-14.51 79.925h323.541c5.49-13.9 8.778-32.158 9.81-43.026 2.251-23.712-5.811-48.341-20.018-61.345-35.955-32.906-65.849 12.8-84.751-6.521-10.91-11.154-9.876-42.46-18.413-56.992a86.958 86.958 0 0 0 -89.3-42.216c-23.278 3.777-44.273 16.1-57.082 36.939-17.543 28.545-4.773 49-12.516 68.725-8.636 21.996-23.19 15.976-36.761 24.511z" fill="#ebf2f9" transform="translate(-5.519 62.703)"/><path d="m105.605 52.481a27.926 27.926 0 0 0 2.956-1.68l1.268-1.966s1.24-.8 2.129-1.233 2.523-3.09 2.523-3.09l-.646-.811a11.062 11.062 0 0 1 -1.239 1.322 1.585 1.585 0 0 1 -.93.03 16.692 16.692 0 0 1 .716-2.005 18.651 18.651 0 0 1 2.011-3.086l-.568-.6a16.345 16.345 0 0 0 -1.239 1.3c-.327.434-.957 1.345-.957 1.345a17.924 17.924 0 0 1 1.059-2.2c.406-.6.845-1.41.845-1.41l-.658-.457a14.913 14.913 0 0 0 -1.167 1.661c-.4.711-1.13 1.891-1.13 1.891a23.452 23.452 0 0 1 .835-2.332 8.321 8.321 0 0 0 .379-.789l-.78-.267a6.268 6.268 0 0 0 -.922 1.648 8.7 8.7 0 0 1 -.594 1.361 9.369 9.369 0 0 1 .489-1.976 1.716 1.716 0 0 0 .267-.632l-.632-.12s-1.215 2.238-1.853 3.625-1.137 3.261-1.5 4.276a39.173 39.173 0 0 0 -.827 4.47z" fill="#f5c5b3" transform="translate(-31.861 28.506)"/><path d="m122.67 71.347-15.38-2.647a51.17 51.17 0 0 1 -.167-7.882c.271-4.6.835-5.885.835-5.885l-4.127-.572s-.815 3.625-1.4 6.23c-1.3 5.777-2.48 11.188-1.491 12.394 1.436 1.75 14.235 5.313 18.614 8.6 2.637 1.973 2.483-4.355 3.116-10.238z" fill="#42b2fc" transform="translate(-30.208 22.927)"/><path d="m166.671 143.912-.778 5.32 1.608 3.646 1.174-1.587.271-2.972 1.736.261.852-1.069-.074-2.227-.286-6.061z" fill="#fec4ad" transform="translate(-52.402 -5.908)"/><path d="m162.819 84.786c-1.185-.438-5.053-.152-5.053-.152a15.927 15.927 0 0 0 1.206 7.318c1.571 3.189 5.465 14.806 5.958 15.9s-1.033 17.484-1.033 17.484l5.649-1.158s2.723-12.643 2.7-15.857-3.028-15.243-5.166-19.078-1.385-3.396-4.261-4.457z" fill="#42b2fc" transform="translate(-49.628 12.671)"/><path d="m146.548 67s-1.243 5.451-.271 6.719c.57.743 2.986 3.391 2.986 3.391s-8 4.225-10.356 4.225-1.528-4.72-1.528-4.72 2.566-2.028 2.948-3.052a23.1 23.1 0 0 0 .6-3.992z" fill="#fec4ad" transform="translate(-42.666 18.632)"/><path d="m152.677 66.309s-.092-1.985 1.572-1.934c1.062.032 1.144 1.006.317 2.261-.349.529-.384 1.724-.816 2.109-.526.467-.966-.254-1.126-.582a3.964 3.964 0 0 1 .053-1.854z" fill="#f5c5b3" transform="translate(-47.858 19.524)"/><path d="m137.927 66.309s.091-1.985-1.572-1.934c-1.062.032-1.144 1.006-.317 2.261.348.529.384 1.724.815 2.109.526.467.966-.254 1.126-.582a3.958 3.958 0 0 0 -.052-1.854z" fill="#f5c5b3" transform="translate(-42.068 19.524)"/><path d="m148.989 57.4a18.7 18.7 0 0 1 -.335 2.02c-.04.23-.083.494-.127.8-.343 2.383-.779 5.623-.967 6.106a8.539 8.539 0 0 1 -2.822 2.575 4.853 4.853 0 0 1 -3.65-.1c-.808-.475-2.637-1.676-2.947-2.478-.191-.493-.642-3.827-.989-6.249-.04-.277-.078-.515-.114-.726a18.07 18.07 0 0 1 -.328-1.951c-.123-2.013 2.142-4.941 6.141-4.941 4.728.006 6.263 2.934 6.138 4.944z" fill="#f5c5b3" transform="translate(-42.484 23.572)"/><path d="m139.746 55.236a9.564 9.564 0 0 1 7.324.268l1.41-.9a11.572 11.572 0 0 0 -5.012-1.054c-2.956.023-3.722 1.686-3.722 1.686z" fill="#e8d4e5" transform="translate(-43.518 23.202)"/><g fill="#7b2b1a"><path d="m148.824 62.719c-.04.23-.083.494-.126.8-.344 2.383-.78 5.623-.968 6.106a8.539 8.539 0 0 1 -2.822 2.575 4.853 4.853 0 0 1 -3.65-.1c-.808-.475-2.637-1.676-2.947-2.478-.191-.493-.643-3.827-.989-6.249-.04-.277-.078-.515-.115-.726l.327-.487s.588 3.454 1.49 4.528 1.074 1.122 1.074 1.122l1.844-.456.148-.037a4.331 4.331 0 0 1 2.151.017c.04.009.078.02.118.032l.134.039 1.4.4s.326-.05 1.227-1.122 1.336-4.528 1.336-4.528z" transform="translate(-42.655 20.275)"/><path d="m154.808 56.722c-.013.065-.338 2.42-.471 2.792-.2.57-.36.982-.36.982l-.242-.527a7.841 7.841 0 0 1 -.716-3.108l-.043-2.018.671-.594c1.323.197 1.464.963 1.161 2.473z" transform="translate(-48.013 22.965)"/><path d="m138.558 55.014v.009l-.322 2.076a7.837 7.837 0 0 1 -.966 2.733l-.028.048-.366.632s-.108-.367-.258-.889c-.11-.384-.384-2.352-.45-2.63-.02-.087-.039-.171-.055-.253-.282-1.478-.007-2.1 1.3-2.292z" transform="translate(-42.249 22.897)"/><path d="m148.234 52.769-.671.594-1.278.46a10.143 10.143 0 0 0 -4.505-.809c-2.564.2-2.914.934-2.95.98l-.265-.057-1.258-.275-.257-.057a8.012 8.012 0 0 1 .5-1.425c1.009-1.519 3.751-2.5 6.243-2.249.084.008.167.017.25.029a6.005 6.005 0 0 1 3.4 1.4z" transform="translate(-42.601 24.445)"/></g><path d="m158.5 250.141v4.992h-9.594s.36-1.807 4.91-2.642l.669-2.35z" fill="#133a50" transform="translate(-46.632 -43.597)"/><path d="m136.4 250.141v4.992h-9.594s.36-1.807 4.911-2.642l.669-2.35z" fill="#133a50" transform="translate(-39.122 -43.597)"/><path d="m151.908 137.587s1.343 16.079 1.39 29.191.828 46.261.828 46.261h-5.3s-5.459-31.838-7.444-40.267-7.145-35.028-7.145-35.028z" fill="#133a50" transform="translate(-41.647 -5.353)"/><path d="m137.06 154.887s-.992 19.979-1.191 23.912 0 34.253 0 34.253-4.962.134-4.962 0-4.678-32.288-5.284-41.98-.251-21.184-1.056-22.525 2.172-10.864 2.172-10.864l7.023 1.874z" fill="#133a50" transform="translate(-38.313 -5.385)"/><path d="m135.872 78.659s-2.2 4.99 1.111 5.541c5.263.876 6.866-5.858 6.866-5.858l5.8 2.988s-.106 36.126 2.174 47.154c1.324 6.4-20.714 3.352-23.947-2.332-2.8-4.919 5.286-45.8 5.286-45.8z" fill="#fff" transform="translate(-39.286 14.778)"/><path d="m151.429 79.288c-.16.221-7.942 23-5.295 44.446.617 5 9.734.863 11.908.863 0 0 1.035-16 1.288-21.953s-2.583-7.907-2.331-10.82 3.419-8.1 3.419-8.1z" fill="#42b2fc" transform="translate(-45.502 14.457)"/><path d="m131.064 126.116c.89-14.907 1.254-46.108 1.254-46.108l-5.259-.392s-2.631 26.17-2.67 29.146c-.015 1.182.354 15.554-.445 18.244 1.774.266 7.013.905 7.12-.89z" fill="#42b2fc" transform="translate(-38.149 14.345)"/><path d="m213.21 67c-4.129 1.416-8.373 2.9-11.652 5.779s-5.391 7.544-4.01 11.685 7.136 6.551 10.464 3.726a3.761 3.761 0 0 0 1.288-4.19c-1.27-2.829-5.692-1.5-7.764.8-2.459 2.736-4.022 6.477-3.413 10.1s3.776 6.887 7.454 6.883 8.919-5.552 5.771-7.453c-4-2.415-9.136 3.335-11.1 7.572s-.737 9.973 3.281 12.352 13.448-.629 10.978-4.593c-2.611-4.19-10.324 1.851-11.349 6.68a9.3 9.3 0 0 0 7.656 10.715c4.9.6 13.39-4.985 10-8.571-4.9-5.182-13.074 8.013-10.714 14.745s12.106 9.411 17.575 4.831a4.032 4.032 0 0 0 1.758-3.407c-.317-2.2-3.333-2.824-5.443-2.119-5.508 1.84-8 9.549-4.6 14.261s11.492 4.8 14.985.159a3.984 3.984 0 0 0 .962-3.144 3.205 3.205 0 0 0 -3.725-2.121 6.067 6.067 0 0 0 -3.692 2.772 11.317 11.317 0 0 0 17.6 14.113 4.754 4.754 0 0 0 1.573-3.924 3.718 3.718 0 0 0 -3.776-2.739 6.585 6.585 0 0 0 -4.418 2.229c-4.931 5.121-2.823 15.031 3.765 17.7s19.655-4.685 15.029-10.083c-3.089-3.605-9.184 4.192-8.4 8.875s6.166 7.875 10.758 6.669 10.639-7.793 7.091-10.948c-2.51-2.232-6.572 2.488-7.348 5.757a7.717 7.717 0 0 0 3.98 8.443c3.245 1.6 7.219.635 10.341-1.192s5.711-4.436 8.717-6.447a27.264 27.264 0 0 1 20.828-3.9" fill="none" stroke="#fff" stroke-miterlimit="10" stroke-width="2" transform="translate(-63.013 18.633)"/><path d="m504.027 99.447c-6.687-4.268-66.3 45.985-64.114 85.688 0 0 11.605-15.672 21.72-23.31s11.1-15.633 11.082-23.551 15.108-4.648 16.812-13.431c3.015-15.543 20.519-21.554 14.5-25.396z" fill="#4fae86" transform="translate(-145.49 7.694)"/><path d="m507.676 141.546c-9.631 5.833-6.8 13.608-12.473 18.151-4.13 3.3-11.021 1.575-14.456 6.073-3.871 5.069.531 12.046.856 18.156.45 8.439-7.077 14.766-14.725 17.329-8.878 2.977-20.378 2.045-25.238-6.784-5.739-10.424-1.443-26.139 8.625-31.035 2.445-1.189 5.551-1.511 7.548-3.918 3.373-4.064 1.208-9.909 2.77-15.077 1.522-5.037 6.5-8.579 11.092-10.149s9.261-1.888 13.745-3.709c6.106-2.48 11.453-7.929 16.536-11.6 4.535-3.279 20.455-9.431 23.045 1.32 2.36 9.789-9.234 16.344-17.325 21.243z" fill="#319188" transform="translate(-145.224 2.584)"/><path d="m508.067 131.872s-39.367 19.782-70.767 83.613" fill="none" stroke="#194459" stroke-miterlimit="10" transform="translate(-144.622 -3.41)"/><path d="m532.8 177.031s-50.615-.566-92.672 47.678" fill="none" stroke="#fff" stroke-miterlimit="10" transform="translate(-145.584 -18.755)"/><path d="m512.72 204.592c-4.823 1.93-6.132 10.062-11.327 11.095-3.778.751-7.81-2.6-11.5-.86-4.161 1.957-3.428 7.823-5.129 11.809-2.35 5.506-9.332 7.069-15.214 6.2-6.831-1.007-14.169-5.348-14.625-12.542-.539-8.491 7.245-17.069 15.465-16.894 2 .042 4.159.85 6.241-.026 3.514-1.481 3.911-5.9 6.571-8.671 2.591-2.7 7.009-3.328 10.548-2.828s6.741 1.822 10.288 2.129c4.831.417 10.091-1.3 14.62-1.975 4.04-.6 20.54-.285 14.885 8.356-3.919 5.984-14.394 1.634-20.823 4.207z" fill="#4fae86" transform="translate(-150.602 -23.746)"/><path d="m519.109 199.147s-35.16 2.992-76.04 33.282" fill="none" stroke="#194459" stroke-miterlimit="10" transform="translate(-146.583 -26.27)"/><path d="m384.721 242.47s8-14.006 9.306-15.45c8.23-9.11 19.147-9.211 30.261-6.91 3.216.665 11.729 5.138 14.818 4.52 2.406-.481 5.295-9.626 13-9.145s8.165 9.626 8.165 9.626 4.831-10.626 12.532-9.644 7.7 8.154 1.925 13.472c0 0 12.273-3.682 24.186 2.022s6.223 13.183 6.223 13.183z" fill="#319188" transform="translate(-126.757 -31.793)"/><path d="m59.8 99.447c6.687-4.268 66.3 45.985 64.114 85.688 0 0-11.605-15.672-21.72-23.31s-11.1-15.633-11.082-23.551-15.112-4.648-16.812-13.431c-3.017-15.543-20.521-21.554-14.5-25.396z" fill="#4fae86" transform="translate(-15.928 7.694)"/><path d="m45.433 141.546c9.631 5.833 6.8 13.608 12.473 18.151 4.13 3.3 11.021 1.575 14.456 6.073 3.872 5.069-.531 12.046-.856 18.156-.45 8.439 7.077 14.766 14.726 17.329 8.881 2.977 20.376 2.046 25.237-6.785 5.739-10.424 1.443-26.139-8.625-31.035-2.445-1.189-5.55-1.511-7.548-3.918-3.372-4.064-1.208-9.909-2.77-15.077-1.526-5.04-6.502-8.58-11.09-10.15s-9.261-1.888-13.746-3.709c-6.105-2.48-11.452-7.929-16.536-11.6-4.535-3.279-20.455-9.431-23.045 1.32-2.36 9.791 9.234 16.346 17.324 21.245z" fill="#319188" transform="translate(-5.481 2.584)"/><path d="m53 131.872s39.364 19.782 70.77 83.613" fill="none" stroke="#194459" stroke-miterlimit="10" transform="translate(-14.046 -3.41)"/><path d="m17 177.031s50.615-.566 92.672 47.678" fill="none" stroke="#fff" stroke-miterlimit="10" transform="translate(-1.811 -18.755)"/><path d="m43.7 204.592c4.824 1.93 6.131 10.062 11.327 11.095 3.778.751 7.81-2.6 11.5-.86 4.161 1.957 3.428 7.823 5.129 11.809 2.35 5.506 9.332 7.069 15.215 6.2 6.83-1.007 14.168-5.348 14.624-12.542.539-8.491-7.245-17.069-15.465-16.894-2 .042-4.159.85-6.241-.026-3.514-1.481-3.911-5.9-6.57-8.671-2.591-2.7-7.01-3.328-10.548-2.828s-6.739 1.825-10.287 2.125c-4.831.417-10.091-1.3-14.62-1.975-4.039-.6-20.54-.285-14.885 8.356 3.921 5.988 14.391 1.638 20.821 4.211z" fill="#4fae86" transform="translate(-3.413 -23.746)"/><path d="m39.252 199.147s35.159 2.992 76.04 33.282" fill="none" stroke="#194459" stroke-miterlimit="10" transform="translate(-9.373 -26.27)"/><path d="m150.1 242.47s-8-14.006-9.306-15.45c-8.229-9.11-19.147-9.211-30.261-6.91-3.216.665-11.729 5.138-14.818 4.52-2.406-.481-5.294-9.626-13-9.145s-8.165 9.626-8.165 9.626-4.831-10.626-12.532-9.644-7.7 8.154-1.925 13.472c0 0-12.274-3.682-24.187 2.022s-6.223 13.183-6.223 13.183z" fill="#319188" transform="translate(-5.663 -31.793)"/><path d="m335.189 251.942h-12.451a2.641 2.641 0 0 1 -2.632-2.422l-.815-9.83h19.346l-.815 9.83a2.641 2.641 0 0 1 -2.633 2.422z" fill="#21295b" transform="translate(-104.525 -40.046)"/><path d="m446.541 251.942h-12.451a2.641 2.641 0 0 1 -2.632-2.422l-.815-9.83h19.346l-.815 9.83a2.641 2.641 0 0 1 -2.633 2.422z" fill="#21295b" transform="translate(-142.361 -40.046)"/><path d="m411.527 192.939h-90.284l6.384-46.543a7.333 7.333 0 0 1 7.265-6.337h62.985a7.334 7.334 0 0 1 7.266 6.337z" fill="#ff3a46" transform="translate(-105.188 -6.193)"/><path d="m405.613 179.264h-65.913l4.682-46.758a6.8 6.8 0 0 1 6.765-6.122h43.018a6.8 6.8 0 0 1 6.766 6.122z" fill="#ff3a46" transform="translate(-111.46 -1.546)"/><path d="m322.693 204.15-1.449 10.566h90.283l-1.449-10.566z" fill="#cfcfcf" transform="translate(-105.189 -27.97)"/><path d="m416.269 235.224h-109.826l2.033-23.861h105.76z" fill="#ff3a46" transform="translate(-100.16 -30.421)"/><circle cx="20.094" cy="20.094" fill="#cfcfcf" r="20.094" transform="matrix(.83805216 -.54559013 .54559013 .83805216 233.394 148.058)"/><circle cx="17.374" cy="17.374" fill="#fff" r="17.374" transform="matrix(.99972653 -.02338528 .02338528 .99972653 243.421 136.971)"/><path d="m395.808 189.777a2.268 2.268 0 0 1 -1.6-.657 1.83 1.83 0 0 1 -.277-.348 2.23 2.23 0 0 1 -.213-.387 3.066 3.066 0 0 1 -.129-.419 2.6 2.6 0 0 1 -.046-.445 2.264 2.264 0 0 1 2.7-2.21 2.423 2.423 0 0 1 .419.129 2.514 2.514 0 0 1 .393.206 2.361 2.361 0 0 1 .341.284 2.268 2.268 0 0 1 .664 1.591 2.61 2.61 0 0 1 -.046.445 3.169 3.169 0 0 1 -.128.419 2.9 2.9 0 0 1 -.207.387 2.165 2.165 0 0 1 -.284.348 2.361 2.361 0 0 1 -.341.277 1.8 1.8 0 0 1 -.393.206 1.957 1.957 0 0 1 -.419.129 2.055 2.055 0 0 1 -.434.045z" fill="#b3b3b3" transform="translate(-129.756 -21.554)"/><path d="m379.7 177.761a2.256 2.256 0 0 1 -1.915-2.552 2.256 2.256 0 0 1 2.552-1.914 2.262 2.262 0 0 1 1.914 2.552 2.259 2.259 0 0 1 -2.236 1.94 1.744 1.744 0 0 1 -.315-.026zm-7.25-3.081a2.262 2.262 0 0 1 -.387-3.17 2.255 2.255 0 0 1 3.164-.386 2.255 2.255 0 0 1 .387 3.164 2.243 2.243 0 0 1 -1.779.87 2.24 2.24 0 0 1 -1.381-.478zm-4.737-6.3a2.248 2.248 0 0 1 1.245-2.932 2.256 2.256 0 0 1 2.938 1.244 2.265 2.265 0 0 1 -1.25 2.939 2.277 2.277 0 0 1 -.844.161 2.24 2.24 0 0 1 -2.085-1.414zm.954-5.271a2.261 2.261 0 0 1 -1.921-2.552 2.258 2.258 0 0 1 2.552-1.914 2.258 2.258 0 0 1 1.921 2.545 2.259 2.259 0 0 1 -2.236 1.94 2.684 2.684 0 0 1 -.312-.021zm1.553-6.638a2.255 2.255 0 0 1 -.393-3.164 2.25 2.25 0 0 1 3.164-.393 2.25 2.25 0 0 1 .393 3.164 2.241 2.241 0 0 1 -1.779.87 2.243 2.243 0 0 1 -1.38-.479zm18.211-2.243a2.25 2.25 0 0 1 -.393-3.164 2.255 2.255 0 0 1 3.164-.4 2.263 2.263 0 0 1 .393 3.17 2.263 2.263 0 0 1 -1.779.87 2.266 2.266 0 0 1 -1.38-.478zm-13.553-2.732a2.25 2.25 0 0 1 1.244-2.933 2.258 2.258 0 0 1 2.939 1.245 2.26 2.26 0 0 1 -1.25 2.938 2.26 2.26 0 0 1 -.844.161 2.247 2.247 0 0 1 -2.084-1.413zm8.436.567a2.255 2.255 0 0 1 -1.913-2.552 2.248 2.248 0 0 1 2.545-1.915 2.25 2.25 0 0 1 1.921 2.546 2.259 2.259 0 0 1 -2.23 1.94 2.778 2.778 0 0 1 -.318-.021z" fill="#b3b3b3" transform="translate(-120.643 -8.745)"/><path d="m406.684 164.2a2.472 2.472 0 0 1 -.438-.045 2.383 2.383 0 0 1 -.425-.129 2.779 2.779 0 0 1 -.387-.207 2.5 2.5 0 0 1 -.348-.283 2.267 2.267 0 0 1 -.658-1.592 2.076 2.076 0 0 1 .046-.445 2 2 0 0 1 .129-.419 2.258 2.258 0 0 1 .207-.393 2.4 2.4 0 0 1 .277-.341 2.6 2.6 0 0 1 .735-.49 2.317 2.317 0 0 1 .425-.122 2.267 2.267 0 0 1 2.03.612 2.053 2.053 0 0 1 .283.341 2.3 2.3 0 0 1 .207.393 2 2 0 0 1 .129.419 2.071 2.071 0 0 1 .045.445 2.266 2.266 0 0 1 -2.256 2.255z" fill="#b3b3b3" transform="translate(-133.453 -12.864)"/><path d="m350.036 54.414a9.637 9.637 0 0 1 1.936-10.079s16.339 10.586 34.6 7.6c0 0 2 5.508-3.611 10.608.001-.001-19.547 3.707-32.925-8.129z" fill="#d6313b" transform="translate(-114.749 26.333)"/><path d="m330.238 19.346c-11.757-9.915-34.03-11.308-62.221-6.769-24.241 3.9-48.931 13.058-57.172 25.992-3.753 5.89-1.2 22.25-1.2 22.25 22.332 1.4 30.511-17.8 30.511-17.8s-1.493-5.447 3.51-7.855c17.506-8.424 44.648-11.3 54.745-8.815a7.479 7.479 0 0 1 5.8 6.357s13.789 15.657 34.55 7.324c0 0-3.183-16.181-8.523-20.684z" fill="#ff3a46" transform="translate(-66.981 37.965)"/><path d="m244.947 68.634a9.636 9.636 0 0 0 -5-8.962s-12.191 15.179-30.467 18.076c0 0-.173 5.857 6.758 8.938-.001 0 19.723-2.616 28.709-18.052z" fill="#d6313b" transform="translate(-67.213 21.122)"/><g clip-path="url(#a)" transform="translate(75.5 141.037)"><rect fill="#ffd71d" height="70.751" rx="14.222" width="107.154"/><path d="m215.5 160.31a9.389 9.389 0 0 0 -9.39-9.39h-88.369a9.39 9.39 0 0 0 -9.39 9.39l48.59 39.39a7.83 7.83 0 0 0 9.855.005z" fill="#ffd71d" transform="translate(-108.351 -150.92)"/><path d="m114.606 214.369v-51.969a9.39 9.39 0 0 1 9.39-9.39h87.957a9.3 9.3 0 0 0 -5.837-2.088h-88.374a9.389 9.389 0 0 0 -9.39 9.39v51.971a9.39 9.39 0 0 0 9.39 9.39h.417a9.333 9.333 0 0 1 -3.553-7.304z" fill="url(#b)" opacity=".7" transform="translate(-108.351 -150.92)"/><path d="m156.006 192.852-47.655-41.932h107.149l-47.65 41.932a8.965 8.965 0 0 1 -11.844 0z" fill="url(#c)" transform="translate(-108.351 -150.92)"/><path d="m156.006 192.852-47.655-41.932h107.149l-47.65 41.932a8.965 8.965 0 0 1 -11.844 0z" fill="#fd0" opacity=".7" transform="translate(-108.351 -150.92)"/></g><path d="m316.482 66.372s3.05-8.8 3.263-9.77c1.264-5.719 1.607-18.117 1.528-20.753s-.325-4.952-.376-5.306a11.828 11.828 0 0 0 -1.694-2.091 3.584 3.584 0 0 1 -.508.053l-.02.331-.706-.609-.59-.033-.062.276-.84-.4-.81-.014s.522 1.674.82 2.691-.013 1.1-.013 1.1a2.217 2.217 0 0 1 -.907.168 6.32 6.32 0 0 0 -1.151-.05s2.462 3.2 2.576 3.5a5.8 5.8 0 0 1 .99 4.635 118.193 118.193 0 0 1 -3.507 12.813c.076-.18-3.314 9.5-3.314 9.5z" fill="#fec4ad" transform="translate(-101.762 31.866)"/><path d="m312.838 93.823c.944-7.407 4.734-16.056 4.734-16.056s-5.792-1.147-7.289-3.207c0 0-2 4.875-3.145 7.3-1.271 2.684-3.052 5.605-.813 7.2 2.163 1.54 6.184 7.34 6.513 4.763z" fill="#42b2fc" transform="translate(-99.757 16.064)"/><path d="m283.111 250.99v4.761h9.152s-.344-1.723-4.684-2.519l-.638-2.242z" fill="#133a50" transform="translate(-92.231 -43.885)"/><path d="m304.194 250.99v4.761h9.152s-.344-1.723-4.684-2.519l-.638-2.242z" fill="#133a50" transform="translate(-99.395 -43.885)"/><path d="m284.352 143.624s-1.281 13.306-1.326 25.814-.79 46.161-.79 46.161h5.051s5.208-32.4 7.1-40.443 6.816-31.381 6.816-31.381z" fill="#133a50" transform="translate(-91.934 -7.403)"/><path d="m294.934 76.782s-.327 2.546-.595 3.841a10.369 10.369 0 0 1 -.69 2.374 29.083 29.083 0 0 1 -3.124 3.549s8.374 4.421 10.836 4.421 1.6-4.938 1.6-4.938-2.684-2.122-3.085-3.194a24.148 24.148 0 0 1 -.623-4.177z" fill="#fec4ad" transform="translate(-94.751 15.309)"/><path d="m302.077 157.969s.947 21.089 1.136 24.842 0 32.675 0 32.675 4.733.128 4.733 0 4.462-32.832 5.041-42.078.239-20.207 1.007-21.486-2.072-8.331-2.072-8.331l-6.7-.245z" fill="#133a50" transform="translate(-98.676 -7.308)"/><path d="m288.656 87.066s-7.07-2.837-8.239-.508c-.883 1.76-.123 13.074.269 16.235.341 2.75 2.245 25.885 2.245 25.885s2.644 4.095 15.361 2.464a13.238 13.238 0 0 0 7.315-3.018s-1.375-27.606-1.754-30.375a59.639 59.639 0 0 0 -1.687-7.093l-3.786-2.492s1.207 2.665-2.209 3.425c-6.884 1.529-7.515-4.523-7.515-4.523z" fill="#42b2fc" transform="translate(-91.177 12.299)"/><path d="m302.571 62.2c.8.322 2.2 1.045 2.36 1.713a26.625 26.625 0 0 1 .8 3.784c.074 1.176.242 3.4.241 4.783a12.2 12.2 0 0 1 -1.154 4.484 6.887 6.887 0 0 1 -3.428.553c-.787-.224-5.4-2.612-5.692-5.535 0 0-.818.431-2.323-2.008-.392-.636.962-5.361 1.143-6.2.442-2.046 5.489-.434 6.621-.757a2.456 2.456 0 0 0 1.432-.817z" fill="#fec4ad" transform="translate(-95.694 20.263)"/><path d="m303.688 62.722s-3.537 2.214-4.916 2.328-3.405 2.01-3.368 2.6a1.278 1.278 0 0 1 -.582.992s-.858-1.368-1.561-1.226c-1.394.282-.576 2 .182 2.379a11.7 11.7 0 0 0 1.491.611 7.241 7.241 0 0 1 .066 1.471 6.774 6.774 0 0 1 -.59 1.726s-1.632-3.436-3.1-4.719c-3.479-3.048-.961-8.714 2.467-9.778 1.384-.43 5.184-.715 7.035.114a5.042 5.042 0 0 1 2.876 3.502z" fill="#133a50" transform="translate(-94.452 21.456)"/><path d="m298.418 70.994c.052.138.414.164.481.193.145.063.082.085.719 1.06.47.718 1.257.95 2.727.459 1.123-.376.967-1.341 1.046-1.8s.176-.538.356-.568.276.011.508.417.339 1.451 1.511 1.275c.809-.121 1.023-.345 1.132-.984a6.7 6.7 0 0 0 .092-1.55c-.032-.424-.041-.682-.257-.7a3.941 3.941 0 0 0 -.963.106 3.892 3.892 0 0 0 -1.583.412c-.379.275-.337.443-.537.481s-.239-.137-.689-.265a13.649 13.649 0 0 0 -3.017.321c-.7.123-1.661.386-1.641.65a2.005 2.005 0 0 0 .115.493zm6.049-1.043c.035-.343.062-.305.927-.5s.957-.16 1.131-.022a1.845 1.845 0 0 1 .214 1.4.957.957 0 0 1 -.835 1c-.761.133-.939-.244-1.155-.772a3.252 3.252 0 0 1 -.282-1.106zm-5.042.564a6.574 6.574 0 0 1 2.169-.458c.881-.108 1.175-.145 1.324.166a3.256 3.256 0 0 1 .111 1.132c-.022.57-.135 1.068-1.508 1.316a1.477 1.477 0 0 1 -1.838-.819 1.607 1.607 0 0 1 -.258-1.337zm-2.939.874 1.932-.395.654-.955s-.742.106-1.969.379a3.753 3.753 0 0 0 -1.164.549 1.889 1.889 0 0 1 .546.422z" fill="#21295b" transform="translate(-96.59 18.026)"/><path d="m272.807 70.729s-1.673-10.6-1.689-11.589c-.1-5.855 2.873-13.723 3.477-16.291s1.008-2.162 1.129-2.5 4.374-.988 4.374-.988a11.212 11.212 0 0 1 1.411-.5c.267-.026 1.389-.362 1.389-.362l-.652 1.173s-2.651 2.017-2.822 2.285a5.8 5.8 0 0 0 -1.9 4.344c-.109 5.239-.092 10.915-.092 10.915-.039-.191 2.509 10.852 2.509 10.852z" fill="#fec4ad" transform="translate(-88.156 28.318)"/><path d="m277.991 100.178c-1.8-5.107-5.916-18.823-5.916-18.823s6.12-1.541 7.847-3.412c0 0 2.066 6.133 2.923 8.675.949 2.814 2.379 5.923-.03 7.245-2.327 1.276-3.96 8.767-4.824 6.315z" fill="#42b2fc" transform="translate(-88.482 14.915)"/><path d="m450.8 123.347c1.59 1.479 2.714.984 5.1 9.152 1.524 5.218 7.084 31.539 7.084 31.539l-3.322 1.441c-4.491-12.581-4.486-12.569-9.733-22.78a45.435 45.435 0 0 1 -3.609-9.832l-9.7-.582c-6.065-2.492-3.986-11.344-3.986-11.344s16.576.928 18.166 2.406z" fill="url(#d)" transform="translate(-142.92 .303)"/><path d="m403.632 109.848 8.754-5.605 8.468 6.578 10.547 3.407-.057.032c4.242 1.472 9.086 3.619 10.573 5 1.59 1.479 4.721 3.578 2.2 11.7-1.614 5.191-8.649 31.493-8.649 31.493l-3.564-.634s1.266-15.24 2.535-26.64c.615-5.527.824-7.068.824-7.068s-23.55 2.568-31.136-1.439c-5.316-2.801-.495-12.572-.495-16.824z" fill="url(#e)" transform="translate(-132.502 5.977)"/><path d="m450.911 189.533s-.1.957-1.638 1.39a2.608 2.608 0 0 1 -2.577-.835l-.34 3.127 4.9 3.454h4.069l-2.2-2.443z" fill="#133a50" transform="translate(-147.7 -23.003)"/><path d="m476.279 182.971a1.682 1.682 0 0 1 -.608 2.219 2.609 2.609 0 0 1 -2.709-.011l.628 3.082 11.568-3.618z" fill="#133a50" transform="translate(-156.74 -20.774)"/><path d="m455.3 57.623a24.588 24.588 0 0 1 -1.927-2.294l-.444-2.014s-.78-1.042-1.381-1.67-1.137-3.327-1.137-3.327l.782-.472a9.732 9.732 0 0 0 .619 1.473 1.4 1.4 0 0 0 .759.31 14.684 14.684 0 0 0 .024-1.876 16.46 16.46 0 0 0 -.716-3.166l.654-.318a14.416 14.416 0 0 1 .625 1.451c.138.46.38 1.4.38 1.4a15.846 15.846 0 0 0 -.2-2.145c-.152-.619-.266-1.423-.266-1.423l.683-.176a13.111 13.111 0 0 1 .454 1.73c.11.71.354 1.909.354 1.909a20.613 20.613 0 0 0 .026-2.183 7.339 7.339 0 0 1 -.071-.768l.726.019a5.521 5.521 0 0 1 .257 1.645 7.668 7.668 0 0 0 .073 1.307 8.273 8.273 0 0 0 .2-1.783 1.523 1.523 0 0 1 -.026-.6l.559.1s.318 2.222.419 3.563-.061 3.044-.073 3.992-.036 1.69-.036 1.69z" fill="#fec4ad" transform="translate(-149.078 26.658)"/><path d="m432.447 65.685a88.165 88.165 0 0 0 9.028 6.449s1.679-4.212 2.48-7.2c.956-3.563 1.237-5.205 1.237-5.205l3.405-.279s-1.079 9.113-2.42 15.295c-1.3 6.009-2.94 4.935-4.38 4.641s-14.997-7.574-14.997-7.574l1.451-7.739s.969-1.039 4.196 1.612z" fill="#fec4ad" transform="translate(-141.056 21.196)"/><path d="m413.658 35.567a8.64 8.64 0 0 1 6.417.648c4.192 2.581 2.18 9.654 1.918 11.284s1.241 4.564 1.216 6.509-.488 2.65-1.94 4.534a3.606 3.606 0 0 0 -.541 1.5 13.888 13.888 0 0 1 -1.951-5.749c-.343-3.346-1.055-2.566-2.729-6.241s-1.748-9.21-1.748-9.21z" fill="#471a16" transform="translate(-136.589 29.429)"/><path d="m412.633 38.131-3.487-2.4a5.1 5.1 0 0 0 -4.707 2.251c-1.729 2.649-2.333 6.485-2.721 9.368s-1.4 8.3-1.334 10.451 2.68 2.442 2.68 2.442l8.759-3.789a26.007 26.007 0 0 1 -.081-9.514 47.238 47.238 0 0 0 .891-8.809z" fill="#471a16" transform="translate(-132.078 29.263)"/><path d="m418.677 39.748a52.135 52.135 0 0 1 1.112 6.345c.085 2.054-.16 5.438-1.521 6.372s-3.914.189-5.784-.585a4.406 4.406 0 0 1 -2.684-3.29 19.544 19.544 0 0 1 .19-6.7 4.086 4.086 0 0 1 3.572-3.535c1.684-.317 5.115 1.393 5.115 1.393z" fill="#fec4ad" transform="translate(-135.205 28.379)"/><path d="m409.554 52.062s.478 5.1-.6 7.507c-.741 1.658-3.743 2.361-3.743 2.361a16.927 16.927 0 0 0 2.9 9.024c3.012 4.433 12.431 6.073 12.431 6.073a41.068 41.068 0 0 0 2.811-7.848 9.155 9.155 0 0 0 -1.659-7.351s-2.546-.833-3.768-1.293c-2.968-1.118-2.62-5.835-2.62-5.835z" fill="#fec4ad" transform="translate(-133.721 23.708)"/><path d="m412.74 68.425s-6.089-1.547-7.919-2.735l-6.038 3.589s-3.547 3.386 2.507 12.282c0 0 2.3 8.1-1.432 22.38 0 0 1.007 3.678 6.664 1.72 4.869-1.685 4.978-3 9.244-4.084 6.3-1.6 7.954-2.579 7.954-2.579-3.308-4.97-2.72-12.733-2.72-12.733s3.751-3.59 2.143-7.258c-2.321-5.3-3.1-12.789-3.1-12.789l-3.232-.819a24.482 24.482 0 0 1 -2.582 2.75 1.383 1.383 0 0 1 -1.489.276z" fill="#42b2fc" transform="translate(-131.184 19.176)"/><path d="m423.108 64.9s-.742 2.759-2.653 3.359c0 0 .748 3.779 2.538 3.123 2.512-.922 1.534-6.149 1.534-6.149z" fill="#fff" transform="translate(-138.899 19.347)"/><path d="m407.358 64.7s1.192 5.773 4.382 6.24 4.26-3.04 4.26-3.04-6.761-1.983-7.422-4.052z" fill="#fff" transform="translate(-134.449 19.704)"/><path d="m411.031 38.247c-.588.038-1.023 2.82-1.082 4.373s-2.383 2.777-1.357 6.192.887 6.712 2.262 10.455-.337 5.113-1.08 6.4a49.676 49.676 0 0 1 -3.939-4.839 3.885 3.885 0 0 0 -4.208-1.886s4.493-8.726 4.342-11.079-.568-5.946 1.305-8.094 3.757-1.522 3.757-1.522z" fill="#471a16" transform="translate(-132.501 28.431)"/><path d="m410.875 48.237s-1.25-1.368-2.074-1.159-.876 1.445-.248 2.459 2.952 1.585 2.952 1.585z" fill="#fec4ad" transform="translate(-134.71 25.409)"/><path d="m415.442 42.161a16.5 16.5 0 0 0 3.546-.256 5.49 5.49 0 0 1 3.219.332l-.856-3.767a11.916 11.916 0 0 0 -4.517-1.456c-2.385.017-4.471.929-3.289 1.7 1.255.815 1.897 3.447 1.897 3.447z" fill="#471a16" transform="translate(-136.436 28.821)"/><path d="m403.135 75.348c-.4 4.725-1.794 18.19-1.794 18.19 4.3 3.762 10.386 10.016 10.386 10.016s-1.732 3.417-2.474 2.837c-5.924-4.631-12.695-7.372-13.179-10.6-.794-5.294-1.068-18.617.882-22.951 1.504-3.34 6.608-2.504 6.179 2.508z" fill="#fec4ad" transform="translate(-130.411 17.327)"/><path d="m421.237 120.605c1.8.677 2.933 1.34 2.826 2.01-.075.463-1.611-.382-2.531-.353a5.113 5.113 0 0 0 2.188 2.147c1.19.585 1.855 1.4 1.219 2.086s-1.81 1.651-2.577 1.3-3.483-2.25-4.507-2.776-1.433-1.812-1.96-2.166.964-3.059.964-3.059c.283.079 1.768.395 1.768.395a9.427 9.427 0 0 0 1.472.123 3.6 3.6 0 0 1 1.138.293z" fill="#fec4ad" transform="translate(-137.312 .694)"/><path d="m0 211.544h402.406" fill="none" stroke="#194459" stroke-miterlimit="10"/></svg>