<svg height="203.163" viewBox="0 0 379.607 203.163" width="379.607" xmlns="http://www.w3.org/2000/svg"><path d="m581.552 397.91c-15.5-13.223-34.189-92.965-98.207-51.433-33.075 21.458-88.847-18.421-135.01-4.647-42.395 12.65-46.481 54.328-42.38 67.909 8.286 27.433-17.5 31.515-41.42 43.3-37.522 18.488-9.93 83.464 25.517 83.775s250.193-.618 250.193-.618 51.494.13 72.908-28.291c23.047-30.584 8.438-75.842-31.601-109.995z" fill="#ebf2f9" transform="translate(-245.55 -333.716)"/><path d="m856.729 1349.215s-18.483-11.245-16.4-21.491 21.718 6.246 21.718-5.03-14.555-25.282-4.852-29.626 30.5 10.738 29.342 26.666 21.773-3.894 31.218 7.99-5.8 21.491-5.8 21.491z" fill="#a8d29f" transform="translate(-749.728 -1147.194)"/><path d="m1719.6 977.21s-18.483-24.384-16.4-46.6 21.718 13.544 21.718-10.907-14.555-54.821-4.852-64.24 30.5 23.284 29.342 57.822 21.773-8.444 31.218 17.326-5.8 46.6-5.8 46.6z" fill="#a8d29f" transform="translate(-1482.653 -774.739)"/><path d="m862.57 505.369-5.547-.127c1.782 2.31 2.182 4.437 1.073 6.237-1.109 1.837-3.764 3.346-7.729 4.492a71.688 71.688 0 0 0 -95.017-91.052c-1.055.454-2.11.927-3.128 1.418h-.009c-3.081-.94-6.081-1.711-8.977-2.3-14.615-2.966-24.987-.916-29.2 5.772-4.009 6.361-1.827 15.936 6.129 27.1v.005c-1.073 1.982-2.037 4.019-2.928 6.128-.673 1.582-1.273 3.164-1.819 4.783-14.948.891-22.949 3.522-25.859 8.286-3.382 5.546 1.237 12.99 16.021 20.228 2.037 1 4.219 1.982 6.51 2.964a70.044 70.044 0 0 0 5.146 19.494 71.652 71.652 0 0 0 131.714.673c7.292-1.509 12.093-3.873 14-7 1.329-2.155 1.165-4.555-.38-7.101zm-17.113 11.731a110.452 110.452 0 0 1 -17.985 1.455 263.474 263.474 0 0 1 -36.869-2.484q1.677-3.65 3.283-7.492a101.453 101.453 0 0 0 11.939 3.246 60.5 60.5 0 0 0 11.921 1.325c8.346 0 14.326-2.409 17.279-7.1a12.247 12.247 0 0 0 1.188-2.456h-4.255c-.07.13-.145.257-.224.382-2.194 3.482-7.1 5.281-13.979 5.279a56.767 56.767 0 0 1 -11.155-1.245 97.254 97.254 0 0 1 -11.237-3.039q1.537-3.844 2.982-7.827c2.593-7.151 4.814-14.239 6.61-21.046a180.747 180.747 0 0 0 26.306 1.812q8.718 0 18.063-.7a67.841 67.841 0 0 1 1.391 13.725 67.053 67.053 0 0 1 -5.258 26.165zm-88.64 35.511c-2.069-.75-3.12-3.72-3.636-6.08a53.285 53.285 0 0 1 -.427-15.145c.272-3.125.709-6.448 1.3-9.924a184.275 184.275 0 0 1 25.059 8.672c-1.842 3.177-3.705 6.122-5.568 8.792a53.3 53.3 0 0 1 -10.036 11.35c-1.909 1.478-4.622 3.084-6.692 2.333zm24.166-25.8a188.09 188.09 0 0 0 -26.252-9.091q.47-2.42 1.03-4.921 3.708.843 7.517 1.63c7.428 1.519 14.838 2.809 22.092 3.853q-2.154 4.454-4.387 8.525zm-16.068-15.073q-4.3-.886-8.478-1.848c1.309-5.445 2.916-11.122 4.793-16.906a165.922 165.922 0 0 0 29.07 14.337q-1.768 4.22-3.625 8.212c-7.135-1.033-14.435-2.298-21.759-3.799zm-23.826-73.5a44.509 44.509 0 0 0 2.637 4.64 62.981 62.981 0 0 0 16.041 16.439 78.573 78.573 0 0 0 8.44 5.255c-2.724 5.937-5.319 12.273-7.705 18.852q-.667 1.84-1.3 3.673c-14.252-9.277-26.318-19.921-34.233-30.223a67.749 67.749 0 0 1 6.8-9.579c1.055-1.237 2.146-2.437 3.291-3.6l.473-.473a68.078 68.078 0 0 1 5.557-4.989zm60.939-10.28c2.069.75 3.12 3.72 3.637 6.08a53.3 53.3 0 0 1 .427 15.145 151.1 151.1 0 0 1 -3.959 22.626q-3.651-.628-7.128-1.425a102.5 102.5 0 0 1 -21.807-7.518 153.937 153.937 0 0 1 12.1-21.223 53.3 53.3 0 0 1 10.036-11.35c1.574-1.22 3.693-2.526 5.548-2.526a3.326 3.326 0 0 1 1.146.186zm-8.128 46.059q3.556.825 7.295 1.473c-1.75 6.582-3.9 13.438-6.415 20.36q-1.451 4-3 7.869a162.438 162.438 0 0 1 -29.281-14.532q.763-2.23 1.576-4.473c2.332-6.431 4.864-12.621 7.518-18.417a106.1 106.1 0 0 0 22.307 7.72zm37.05-30.8a67.216 67.216 0 0 1 17.492 30.251 198.017 198.017 0 0 1 -42.545-1.064 154.349 154.349 0 0 0 3.98-22.894c.659-7.579.579-16.557-2.494-21.608q1.069.41 2.127.858a66.991 66.991 0 0 1 21.436 14.452zm-47.7-19.767a67.6 67.6 0 0 1 13.765 1.4c-5.3 2.307-10.712 8.729-14.82 14.618a157.593 157.593 0 0 0 -12.367 21.659 74.856 74.856 0 0 1 -7.582-4.71 58.448 58.448 0 0 1 -15.184-15.381 39.877 39.877 0 0 1 -2.875-5.139 67.467 67.467 0 0 1 8.721-5.262q1.859-.938 3.785-1.759l.278-.12.065-.027c.274-.116.548-.228.823-.339l.221-.088a67.018 67.018 0 0 1 25.166-4.857zm-65.919 8.444c2.194-3.482 7.1-5.279 13.979-5.279a56.786 56.786 0 0 1 11.159 1.247q2.345.475 4.785 1.118a70.421 70.421 0 0 0 -14.671 11.309c-.927.909-1.818 1.855-2.691 2.837-1.091 1.2-2.128 2.455-3.128 3.728a72.194 72.194 0 0 0 -4.437 6.347v.005c-6.086-9.036-7.915-16.693-5-21.317zm3.727 32.781c.6-1.382 1.218-2.746 1.891-4.073 8.335 10.418 20.619 21.067 34.973 30.3-2.035 6.194-3.772 12.282-5.173 18.116a277.461 277.461 0 0 1 -28.6-8.445c-1.782-.636-3.51-1.291-5.165-1.946-.982-.382-1.946-.782-2.891-1.182-.146-1.455-.255-2.928-.291-4.4-.018-.709-.036-1.4-.036-2.109 0-.818.018-1.655.036-2.473a68.248 68.248 0 0 1 3.091-17.894c.309-.982.637-1.946 1-2.91.36-1.006.742-2.006 1.161-2.988zm-12.17 29.525c-12.893-6.292-18.785-12.366-16.148-16.676 2.128-3.492 9.874-5.855 21.731-6.728a69.66 69.66 0 0 0 -2.691 15.13c-.109 1.527-.164 3.055-.182 4.6v.4c0 1.546.055 3.091.146 4.619-.983-.433-1.929-.887-2.856-1.345zm9.784 7.729c1.746.655 3.528 1.309 5.365 1.946 8.443 2.926 17.908 5.645 28.031 8.057q-.552 2.46-1.018 4.848-1.241-.3-2.483-.586a150.836 150.836 0 0 0 -29.368-3.943 65.942 65.942 0 0 1 -2.654-11.14zm2.382 15.257q-.231-.55-.452-1.1a155.711 155.711 0 0 1 27.264 3.843q1.249.285 2.5.591c-.633 3.692-1.1 7.219-1.388 10.535-.546 6.281-.585 13.524 1.167 18.7a67.868 67.868 0 0 1 -29.087-32.563zm88.452 35.914a67.713 67.713 0 0 1 -46.72 2.153c4.992-2.616 10.007-8.625 13.869-14.162 1.992-2.856 3.983-6.016 5.948-9.427a190.7 190.7 0 0 1 32.463 18.78q-2.709 1.456-5.56 2.656zm21.44-14.457a66.958 66.958 0 0 1 -12.273 9.728 194.692 194.692 0 0 0 -34.207-20.029c1.645-3.015 3.267-6.2 4.85-9.523a291.484 291.484 0 0 0 31.1 2.548c2.51.073 4.946.073 7.31.055a130.113 130.113 0 0 0 16.257-1.091 67.047 67.047 0 0 1 -13.037 18.316z" fill="#adcbf9" transform="translate(-620.909 -405.655)"/><path d="m1118.949 362.125-16.949 2.875 11.086-7.994.64 2.452 4.157.639z" fill="#456aa3" transform="translate(-972.134 -352.745)"/><path d="m1102 360.8 13.964-7.675 13.857-1.066z" fill="#adcbf9" transform="translate(-972.134 -348.537)"/><path d="m1113.087 332.961-11.087 7.994 8.421-12.258z" fill="#adcbf9" transform="translate(-972.134 -328.697)"/><path d="m720.361 643.791 16.039 6.179-9.281-10.032-1.113 2.276-4.2-.2z" fill="#456aa3" transform="translate(-647.968 -593.066)"/><path d="m682.849 627.141-12.166-10.289-13.371-3.791z" fill="#adcbf9" transform="translate(-594.414 -570.238)"/><path d="m765.25 619.345 9.281 10.032-5.825-13.683z" fill="#adcbf9" transform="translate(-686.097 -572.473)"/><path d="m1078.575 754.056h120.991l40.552-162.644h-120.991z" fill="#3b76ca" transform="translate(-952.236 -551.848)"/><path d="m1112.862 778.18h113.257l37.959-152.247h-113.257z" fill="#fff" transform="translate(-981.359 -581.17)"/><path d="m1370.811 1069.236h75.026a2.317 2.317 0 0 0 2.112-1.691l.158-.634a1.28 1.28 0 0 0 -1.269-1.691h-75.026a2.317 2.317 0 0 0 -2.112 1.691l-.158.634a1.281 1.281 0 0 0 1.269 1.691z" fill="#a0c0ef" transform="translate(-1199.341 -954.301)"/><path d="m1415.134 891.466h75.026a2.318 2.318 0 0 0 2.113-1.691l.158-.634a1.28 1.28 0 0 0 -1.269-1.691h-75.027a2.317 2.317 0 0 0 -2.112 1.691l-.158.634a1.281 1.281 0 0 0 1.269 1.691z" fill="#a0c0ef" transform="translate(-1236.989 -803.304)"/><path d="m1399.738 953.218h75.027a2.317 2.317 0 0 0 2.112-1.691l.158-.634a1.28 1.28 0 0 0 -1.269-1.691h-75.026a2.318 2.318 0 0 0 -2.113 1.691l-.158.634a1.28 1.28 0 0 0 1.269 1.691z" fill="#a0c0ef" transform="translate(-1223.912 -855.756)"/><path d="m1385.275 1011.227h75.025a2.318 2.318 0 0 0 2.112-1.691l.158-.634a1.28 1.28 0 0 0 -1.269-1.691h-75.026a2.317 2.317 0 0 0 -2.112 1.691l-.158.634a1.28 1.28 0 0 0 1.27 1.691z" fill="#a0c0ef" transform="translate(-1211.627 -905.028)"/><path d="m1341.335 1187.459h75.026a2.318 2.318 0 0 0 2.113-1.691l.158-.634a1.281 1.281 0 0 0 -1.269-1.691h-75.026a2.317 2.317 0 0 0 -2.112 1.691l-.158.634a1.281 1.281 0 0 0 1.268 1.691z" fill="#a0c0ef" transform="translate(-1174.304 -1054.721)"/><path d="m1355.8 1129.45h75.027a2.318 2.318 0 0 0 2.112-1.691l.158-.634a1.28 1.28 0 0 0 -1.269-1.691h-75.028a2.317 2.317 0 0 0 -2.112 1.691l-.158.634a1.281 1.281 0 0 0 1.27 1.691z" fill="#a0c0ef" transform="translate(-1186.589 -1005.448)"/><path d="m1296.592 1369.751h18.222a2.752 2.752 0 0 0 2.509-2.008 1.52 1.52 0 0 0 -1.507-2.007h-18.223a2.752 2.752 0 0 0 -2.508 2.007 1.521 1.521 0 0 0 1.507 2.008z" fill="#a0c0ef" transform="translate(-1136.089 -1209.561)"/><path d="m1667.279 1369.751h18.221a2.752 2.752 0 0 0 2.508-2.008 1.52 1.52 0 0 0 -1.507-2.007h-18.223a2.752 2.752 0 0 0 -2.508 2.007 1.521 1.521 0 0 0 1.509 2.008z" fill="#a0c0ef" transform="translate(-1450.952 -1209.561)"/><path d="m1247.749 1462.46h-26.574a2.076 2.076 0 0 1 -1.685-.766 2.2 2.2 0 0 1 -.342-1.928l1.916-7.684a3.616 3.616 0 0 1 3.3-2.643h26.574a2.076 2.076 0 0 1 1.685.766 2.2 2.2 0 0 1 .342 1.928l-1.916 7.684a3.616 3.616 0 0 1 -3.3 2.643zm-23.381-12.807a3.391 3.391 0 0 0 -3.1 2.48l-1.916 7.684a1.993 1.993 0 0 0 .3 1.745 1.867 1.867 0 0 0 1.516.684h26.574a3.391 3.391 0 0 0 3.1-2.48l1.916-7.684a1.992 1.992 0 0 0 -.3-1.745 1.867 1.867 0 0 0 -1.516-.684z" fill="#476ba7" transform="translate(-1071.57 -1280.66)"/><path d="m1619.066 1462.46h-26.574a2.076 2.076 0 0 1 -1.685-.766 2.2 2.2 0 0 1 -.342-1.928l1.916-7.684a3.616 3.616 0 0 1 3.3-2.643h26.574a2.076 2.076 0 0 1 1.685.766 2.2 2.2 0 0 1 .342 1.928l-1.916 7.684a3.615 3.615 0 0 1 -3.3 2.643zm-23.381-12.807a3.391 3.391 0 0 0 -3.1 2.48l-1.916 7.684a1.991 1.991 0 0 0 .3 1.745 1.867 1.867 0 0 0 1.516.684h26.574a3.392 3.392 0 0 0 3.1-2.48l1.916-7.684a1.991 1.991 0 0 0 -.3-1.745 1.866 1.866 0 0 0 -1.516-.684z" fill="#476ba7" transform="translate(-1386.968 -1280.66)"/><path d="m1457.254 700.972a7.4 7.4 0 0 1 6.691-5.007 3.43 3.43 0 0 1 3.231 1.577l-1.753 1.466a2.355 2.355 0 0 0 -2.136-1.079 4.344 4.344 0 0 0 -3.806 3.043c-.544 1.66.15 3.043 1.81 3.043a4.874 4.874 0 0 0 2.917-1.134l.879 1.452a6.732 6.732 0 0 1 -4.51 1.646c-2.849 0-4.244-2.199-3.323-5.007z" fill="#a0c0ef" transform="translate(-1273.648 -640.655)"/><path d="m1523.248 700.972a7.534 7.534 0 0 1 6.8-5.007c2.988 0 4.4 2.227 3.489 5.007a7.534 7.534 0 0 1 -6.8 5.007c-2.987 0-4.401-2.226-3.489-5.007zm8.064 0c.544-1.66-.219-3.043-1.934-3.043a4.374 4.374 0 0 0 -3.9 3.043c-.544 1.66.219 3.043 1.934 3.043a4.375 4.375 0 0 0 3.9-3.043z" fill="#a0c0ef" transform="translate(-1329.71 -640.655)"/><path d="m1598.349 697.067h1.964l2.581 5.962 1.956-5.962h2.1l-3.176 9.682h-1.812l-2.67-6.155-2.019 6.155h-2.1z" fill="#a0c0ef" transform="translate(-1391.036 -641.591)"/><path d="m1682.9 699.031h-2.946l.644-1.964h8.022l-.644 1.964h-2.946l-2.532 7.718h-2.13z" fill="#a0c0ef" transform="translate(-1463.051 -641.591)"/><path d="m1730.436 697.067h4.426a2.829 2.829 0 0 1 2.5.982 2.533 2.533 0 0 1 .1 2.241 4.639 4.639 0 0 1 -3.06 3l1.231 3.458h-2.49l-1.086-3.1h-1.646l-1.016 3.1h-2.13zm2.745 4.7a2.082 2.082 0 0 0 2.091-1.4c.3-.913-.182-1.383-1.22-1.383h-2.116l-.912 2.78z" fill="#a0c0ef" transform="translate(-1503.232 -641.591)"/><path d="m1795.506 696.608h1.964l.951 9.752h-2.227l-.173-2.172h-4.094l-1.6 2.172h-2.172zm.371 5.7-.256-3.14-2.316 3.14z" fill="#a0c0ef" transform="translate(-1554.958 -641.201)"/><path d="m1868.207 700.972a7.4 7.4 0 0 1 6.691-5.007 3.431 3.431 0 0 1 3.231 1.577l-1.754 1.466a2.354 2.354 0 0 0 -2.136-1.079 4.345 4.345 0 0 0 -3.806 3.043c-.545 1.66.15 3.043 1.81 3.043a4.873 4.873 0 0 0 2.917-1.134l.879 1.452a6.733 6.733 0 0 1 -4.51 1.646c-2.848 0-4.243-2.199-3.322-5.007z" fill="#a0c0ef" transform="translate(-1622.713 -640.655)"/><path d="m1945.053 699.031h-2.946l.644-1.964h8.022l-.644 1.964h-2.946l-2.532 7.718h-2.13z" fill="#a0c0ef" transform="translate(-1685.723 -641.591)"/><path d="m1666.766 1442.424q-6.054 2.5-12.019 5.467.235-.668.424-1.337c.1-.358-.383-.6-.682-.2a6.371 6.371 0 0 1 -.421.5c.1-.321-.278-.5-.6-.265-.021.016-.041.033-.061.049.157-.431-.514-.5-.763-.079l-.373.624a2.614 2.614 0 0 1 -1.2.8 2.042 2.042 0 0 1 -.177-.669.3.3 0 0 0 -.31-.284c-.007-.219-.2-.349-.5-.219a2.735 2.735 0 0 0 -.915.675c-.2-.371-.838-.105-1.18.251.009-.02.02-.04.029-.06.161-.345-.139-.739-.543-.391a4.884 4.884 0 0 0 -1.486 2.178 8.473 8.473 0 0 1 -.76.749c-.132.114-.748.684-.89.635s-.063-.4 0-.65l.066-.092c.512-.713 2.981-4.069 1.241-4.039a.623.623 0 0 0 -.484.295 11.556 11.556 0 0 0 -1.425 3.038c-.057.2-.137.452-.2.719l-.153.2a7.928 7.928 0 0 1 -2.766 2.659c-.1-1.419.612-3.1 1.153-4.586q.35-.963.729-1.924a.544.544 0 0 0 .241-.125c1.21-1.018 1.7-2.528 1.156-3.543-.158-.293-.64-.026-.778.284q-1.249 2.8-2.266 5.626c-.6 1.668-1.277 3.43-1.028 4.969.026.162.216.223.393.184a6.5 6.5 0 0 0 3.285-2.547.532.532 0 0 0 .35.309c.594.176 1.406-.484 1.99-1.037a2.314 2.314 0 0 0 .1.561c.063.195.265.239.5.144a4.627 4.627 0 0 0 1.5-1 3.239 3.239 0 0 0 1.5-1.207 8.012 8.012 0 0 0 .741-.74 1.134 1.134 0 0 0 .207.378c.217.249.765.024 1.115-.136a3.691 3.691 0 0 0 .918-.6 1.834 1.834 0 0 0 .633-.172.511.511 0 0 0 .149.156.654.654 0 0 0 .73-.069q-.086.243-.178.486-.868.438-1.735.886c-.381.2-.471.781-.043.748l1.592-.121a.633.633 0 0 0 .533-.4c.094-.212.183-.425.27-.637q6.225-3.12 12.563-5.74c.545-.231.362-.925-.172-.701zm-18.494 6.107a2.652 2.652 0 0 1 -.131.332c-.036.075-.076.149-.118.222a2.8 2.8 0 0 1 .249-.554zm-1.169 1a.991.991 0 0 0 -.014.6 3.7 3.7 0 0 1 -.4.263 2.292 2.292 0 0 1 .045-.743c.184-.217.357-.441.518-.67a3.968 3.968 0 0 0 -.152.545z" fill="#365da2" transform="translate(-1428.913 -1274.663)"/><path d="m1273.137 1425.24c-1.429 2.656-2.23 5.381-3.391 8.069a21.566 21.566 0 0 1 -2.1 3.855c-.6.861-1.917 2.733-3.03 2.328-.277-.1-.355-.339-.264-.663.02-.071.044-.145.07-.219a.615.615 0 0 0 .577-.068 2.074 2.074 0 0 0 .822-.914c.167-.361.14-.738-.151-.9a.82.82 0 0 0 -.907.255 3.032 3.032 0 0 0 -.581 1.028 3.182 3.182 0 0 0 -.392 1.291c.04.613.7.831 1.349.689a4.127 4.127 0 0 0 2.011-1.484 17.257 17.257 0 0 0 1.648-2.324 32.2 32.2 0 0 0 2.3-5 49.09 49.09 0 0 1 2.472-5.809c.171-.314-.264-.447-.433-.134zm-7.737 12.06c.048.188-.133.434-.282.607a.985.985 0 0 1 -.169.167.59.59 0 0 1 -.12.072.19.19 0 0 0 -.038.009.161.161 0 0 0 -.151-.084c.063-.141.128-.279.191-.412.095-.199.469-.754.569-.359z" fill="#365da2" transform="translate(-1109.558 -1259.953)"/><path d="m1314.851 1477.4a3.2 3.2 0 0 1 -.907.377.87.87 0 0 1 -.232.007 1.429 1.429 0 0 0 .448-.7c.054-.385-.37-.474-.73-.276a1.105 1.105 0 0 0 -.55.83.566.566 0 0 0 .044.274 2.017 2.017 0 0 1 -1.171.47 4.265 4.265 0 0 0 1.078-1.065.222.222 0 0 0 .016-.242.709.709 0 0 0 -.907-.07 1.818 1.818 0 0 0 -.779.938 1.343 1.343 0 0 0 -.1.343 2.7 2.7 0 0 1 -1.151.26v-.007q.181-.168.356-.342c.175-.174.071-.352-.092-.374a.742.742 0 0 0 -.74.58 11.069 11.069 0 0 1 -1.825 1.322c-.162.093-.381.281-.489.162a5.71 5.71 0 0 0 .741-.655c.439-.463.873-1.289.354-1.575a.3.3 0 0 0 -.369.089l-.684.909a3.976 3.976 0 0 0 -.527.817 1.068 1.068 0 0 0 -.075.286 4.934 4.934 0 0 1 -.724.374l-.062.026q.2-.161.4-.324a1.667 1.667 0 0 0 .74-1.1 1.229 1.229 0 0 0 -.477-.917c-.065-.064-.219-.033-.314.039a4.924 4.924 0 0 0 -1.623 2.084.814.814 0 0 0 -.023.683q-.975.743-1.973 1.452c-.07.05-.241.207-.311.183s-.037-.172-.038-.241a4.822 4.822 0 0 1 .032-.558 5.526 5.526 0 0 1 .3-1.248 6.756 6.756 0 0 1 .507-1.078.265.265 0 0 0 .278-.052 1.7 1.7 0 0 0 .7-1.441c-.017-.175-.3-.149-.429 0a7 7 0 0 0 -1.91 4.665c.015.335.166.615.614.429a3.248 3.248 0 0 0 .581-.372q.364-.26.726-.524.68-.5 1.351-1.01a2.315 2.315 0 0 0 .8-.18 5.456 5.456 0 0 0 .922-.441.462.462 0 0 0 .484.23 2.564 2.564 0 0 0 .809-.408c.27-.163.535-.335.794-.52s.495-.369.731-.568c.055.075.149.1.312.1a2.751 2.751 0 0 0 .682-.074 3.615 3.615 0 0 0 .736-.26.457.457 0 0 0 .121.083 1.325 1.325 0 0 0 1-.061 3.769 3.769 0 0 0 .937-.527.916.916 0 0 0 .274.073 2.74 2.74 0 0 0 1.453-.448c.326-.166.218-.596-.109-.427zm-9.723 2.252a4.27 4.27 0 0 1 1.035-1.285.578.578 0 0 1 .1.808 3.122 3.122 0 0 1 -.536.473q-.307.245-.616.486l-.163.125c-.07-.136.102-.452.18-.603zm2.792-1.31a2.043 2.043 0 0 1 -.534.764q-.05.049-.1.1c.185-.292.414-.579.634-.86zm4.343-.985a3.279 3.279 0 0 1 -.634.595c.13-.281.432-.607.634-.591zm1.193-.014c.03-.05.172-.208.149-.1a.855.855 0 0 1 -.2.249.381.381 0 0 1 .051-.145z" fill="#365da2" transform="translate(-1141.703 -1303.82)"/><path d="m1635.741 603.06a.287.287 0 0 0 -.19-.268 5.8 5.8 0 0 1 -3.426-5.556c0-3.216 2.191-5.824 4.893-5.824h-29.477c-2.7 0-4.893 2.607-4.893 5.824s2.191 5.824 4.893 5.824z" fill="#e37970" transform="translate(-1397.385 -551.848)"/><path d="m1694.511 522.756a7.229 7.229 0 1 0 7.229 7.229 7.229 7.229 0 0 0 -7.229-7.229zm0 10.241a3.012 3.012 0 1 1 3.012-3.012 3.012 3.012 0 0 1 -3.012 3.015z" fill="#e37970" transform="translate(-1469.274 -493.531)"/><path d="m1778.509 1594a1.247 1.247 0 0 1 -.813 1.08h-.007a8.294 8.294 0 0 1 -3.888.082c-.2-.026-.382-.048-.544-.063l-.126-.01-.1-.007c-1.563-.1-1.441.379-4.427.364-3.4-.018-4.556-1.165-4.712-1.654-.131-.415 1.359-.736 3.026-1.107l.243-.054c.222-.049.445-.1.667-.151 1.987-.466 3.954-1.054 4.6-2.964.69-2.024.527-8.032.527-8.032h6.03s-1.583 6.637-1.417 8.55c.09 1.021.578 1.312.767 2.2q.021.093.037.186a5.92 5.92 0 0 1 .137 1.58z" fill="#ad7041" transform="translate(-1534.341 -1392.82)"/><path d="m1817.3 1111.068c-.509 2.857-1.235 5.809-1.866 8.879a45.964 45.964 0 0 0 -.995 15.829 19.673 19.673 0 0 1 .166 2.391c.152 9.982-4.308 28.071-4.308 28.071a7.875 7.875 0 0 1 -3.242.422 10.3 10.3 0 0 1 -2.649-.726s-.422-11.215-.448-26.3c-.018-10.933-2.165-25.328-2.6-33.787a108.266 108.266 0 0 1 .307-11.939s8.89-7.149 12.083-3.491c3.157 3.617 5.452 9.963 3.552 20.651z" fill="#415da5" transform="translate(-1566.113 -974.821)"/><path d="m1843.673 1237.912a19.673 19.673 0 0 1 .166 2.391c-6.658-9.646-8.13-30.682-8.13-30.682l7.313 3.549s.8 3.945 1.646 8.912a45.964 45.964 0 0 0 -.995 15.83z" fill="#355493" transform="translate(-1595.349 -1076.957)"/><path d="m1906.262 1591.845a1.242 1.242 0 0 1 -.813 1.077.012.012 0 0 1 -.007 0 8.32 8.32 0 0 1 -3.889.08c-.2-.026-.382-.048-.544-.063l-.126-.01-.1-.008c-1.563-.1-1.441.377-4.427.361-3.4-.019-4.556-1.162-4.713-1.649-.131-.413 1.359-.734 3.026-1.1l.243-.054c.222-.049.445-.1.667-.151 1.987-.464 3.954-1.05 4.6-2.952.69-2.018-.3-7.913-.3-7.913l5.586-.463s-.344 6.717-.178 8.623a16.509 16.509 0 0 0 .8 2.46c.014.062.026.124.037.185a5.891 5.891 0 0 1 .138 1.577z" fill="#ad7041" transform="translate(-1642.855 -1390.709)"/><path d="m1849.57 1208.392a13.565 13.565 0 0 1 -2.47.886 11.87 11.87 0 0 1 -3.182-.2 145.723 145.723 0 0 0 -3.037-18.8 175.9 175.9 0 0 0 -9.088-28.8c-.883-2.085-4.522-11.956-5.14-14.447-1.868-7.526.007-6.716.007-6.716l16.324-1.916s2.011 1.034 2.938 11.662c.277 3.183.311 16.925.729 19.531a29.172 29.172 0 0 0 1.4 5.852c3.036 7.446 1.519 32.948 1.519 32.948z" fill="#415da5" transform="translate(-1586.955 -1016.464)"/><path d="m1905.991 1654.3a1.263 1.263 0 0 1 -.816 1.1h-.006a9.516 9.516 0 0 1 -3.9.074c-.2-.025-.383-.043-.549-.054l-.126-.01c-.033 0-.066-.005-.1-.008a18.252 18.252 0 0 0 -2.983.326h-2.468c-2.638-.214-3.575-1.194-3.716-1.637-.131-.421 1.364-.747 3.036-1.124a9.976 9.976 0 0 0 5.158.926c2.3-.223 4.647-1.157 6.3-1.39.014.063.026.126.037.19a6.12 6.12 0 0 1 .133 1.607z" fill="#b84c42" transform="translate(-1642.588 -1453.142)"/><path d="m1778.4 1654.319a1.3 1.3 0 0 1 -.817 1.124s0 0-.008 0a9.308 9.308 0 0 1 -3.888.087c-.2-.024-.383-.042-.548-.055l-.127-.01c-.032 0-.066 0-.1-.007a7.223 7.223 0 0 0 -2.137.244h-4.161c-1.982-.334-2.724-1.156-2.847-1.556-.129-.43 1.364-.767 3.032-1.157a9.741 9.741 0 0 0 5.146.932c2.295-.234 4.641-1.194 6.287-1.436.013.065.026.129.036.193a6.387 6.387 0 0 1 .132 1.641z" fill="#b84c42" transform="translate(-1534.241 -1453.127)"/><path d="m2030.027 1138.842 1.04 1.685c.54.621.685.968 1.113 1.178a5.3 5.3 0 0 1 3.085 4.553s-.032 1.551-1.072 1.048-.586-.456-2.063-1.133-2.026-2.831-2.156-3.565l-1.206-1.583z" fill="#ad7041" transform="translate(-1759.334 -1016.837)"/><path d="m1808.054 753.6c-.551-4.5.855-11.708 9.842-10.557s11.82 9.984 10.007 13.911 2.609 4.875 4 9.1c1.193 3.628 1.608 8.133 3.538 10.154 6.222 6.518-5.973 16.541-13.325 14.428-13.391-3.85-15.115-4.424-14.64-14.946.244-5.391 4.438-7.479 1.775-9.039-6.435-3.773.049-2.866-1.197-13.051z" fill="#aa443e" transform="translate(-1570.416 -680.536)"/><path d="m1816.359 876.826a49.253 49.253 0 0 1 2.531 8.8l-19.894.248s.278-16-.639-21.663 5.529-18.11 5.529-18.11c.118 0 .88-.14 2.226-.221a9.88 9.88 0 0 0 .467-1.914 13.5 13.5 0 0 0 .072-3.176c-.034-.344-.067-.545-.067-.545l6.5-1.979.188-.057c.08 1.768.179 3.151.286 4.233.31 3.157.681 3.751.8 3.863a54.848 54.848 0 0 1 5.57 1.129s-5.403 24.731-3.569 29.392z" fill="#d9935c" transform="translate(-1563.546 -761.477)"/><path d="m1698.666 916.486c-1-6.875-4.689-20.993-7.171-23.3-2.194-2.042-6.926-2.229-6.926-2.229-.983 1.54-4.348 5.365-8.523 4.676-2.253-.372-2.71-4.423-2.761-4.965l.015-.061h-.02l-.048.01c-.658.1-5.893.949-7.446 3.623-2.294 3.947-4.792 15.792-7.246 15.617-1.126-.081-12.463-4.341-12.463-4.341a4.968 4.968 0 0 0 -1.526 3.94 118.418 118.418 0 0 0 10.33 6.14c.656.332 1.3.637 1.9.9 1.706.749 3.144 1.183 3.929 1a2.641 2.641 0 0 0 .713-.3 13.941 13.941 0 0 0 3.374-3.38c.763-.988 1.505-2.055 2.16-3.049l.041-.063a73.252 73.252 0 0 1 .271 11.075c-.222 2.443-.383 7.734.036 9.1.874 2.849 7.3 3.6 13.29 3.3a38.982 38.982 0 0 0 6.275-.637 4.6 4.6 0 0 0 3.765-3.005c.662-1.593-2.4-9.074-2.688-12.348a19.053 19.053 0 0 1 .938-7.758c2.117 4.887 4.269 8.383 4.551 9.14.594 1.594 9.628 11.677 9.628 11.677a4.33 4.33 0 0 0 1.309-.528 3.033 3.033 0 0 0 .9-.907c-1.6-3.783-6.607-13.327-6.607-13.327z" fill="#ebba56" transform="translate(-1432.939 -805.984)"/><path d="m1897.026 1024.966a4.6 4.6 0 0 1 -3.765 3.005c-2.818-.542-4.676-5.726-5.632-8.278-1.1-2.94 4.641-18.058 6.227-17.92 1.178.1 1.382 2.1 1.421 3.087a18.766 18.766 0 0 0 -.939 7.757c.29 3.275 3.349 10.756 2.688 12.349z" fill="#e7a329" transform="translate(-1639.331 -900.41)"/><path d="m1617.052 981.632s-.967-2.37-2.031-2.467-4.45-.629-4.692-.145a3.347 3.347 0 0 0 .725 2.854c.726.629 5.224 1.645 5.224 1.645z" fill="#d9935c" transform="translate(-1403.834 -880.913)"/><path d="m1736.2 1022.26c-.655.994-1.4 2.061-2.16 3.048a18.1 18.1 0 0 1 -3.374 3.38 2.647 2.647 0 0 1 -.713.3c-.785.186-2.223-.249-3.929-1a18.892 18.892 0 0 0 2.993-.045c1.718-.146 2.217-2.006 4.931-4.794 1.625-1.663 2.118-1.406 2.252-.889z" fill="#e7a329" transform="translate(-1502.183 -917.48)"/><path d="m1860.149 838.88s-2.522 4.548-6.689 5.407a13.491 13.491 0 0 0 .072-3.176c-.034-.344-.067-.545-.067-.545l6.5-1.979z" fill="#cb8757" transform="translate(-1610.427 -761.8)"/><path d="m1834.066 780.213s8.005 1.608 8.93-3.393 2.58-8.161-2.492-9.4-6.42.486-7.135 2.08-1.361 10.166.697 10.713z" fill="#d9935c" transform="translate(-1592.774 -700.992)"/><path d="m1840.833 749.4c-1.354-1.524-3.349-3.787-3.349-3.787s-3.98-1.332-7.929 2.56c-1.7 1.677-1.444 4.972-.533 6.885 0 0 1.4-4.1 3.947-4.992a5.569 5.569 0 0 0 1.6-.925 10.984 10.984 0 0 0 2.189 3.253c2.633 2.878 2.12 8.7 2.12 8.7s4.322-9.027 1.955-11.694z" fill="#aa443e" transform="translate(-1589.061 -682.644)"/><path d="m1842.23 834.861s-.214.594-1.721.324c0 0-1.265-.226-1.149-.892a4.128 4.128 0 0 1 2.87.568z" fill="#fff" transform="translate(-1598.444 -758.101)"/><path d="m2175.979 1632.086h12.321a.653.653 0 0 0 .126-.041c.346-.164.512-.812.583-1.579a19.51 19.51 0 0 0 -.056-3.165s-4.2-3.508-4.844-.9-4.138 3.707-6.122 3.987c-1.848.256-1.997 1.531-2.008 1.698z" fill="#233862" transform="translate(-1884.375 -1430.151)"/><path d="m2249.162 1632.086h12.99c.822-.737.4-4.785.4-4.785s-4.2-3.508-4.844-.9-4.138 3.707-6.12 3.987a3.594 3.594 0 0 0 -.414.081 2.972 2.972 0 0 0 -2.012 1.617z" fill="#233862" transform="translate(-1946.538 -1430.151)"/><path d="m2196.568 1201.145s-.01.471-.028 1.317c-.118 5.456-.584 26.551-1.026 38.312-.019.428-.034.842-.05 1.245-.009.213-.017.427-.025.638a127.3 127.3 0 0 1 -1.816 15.706c-.993 5.678-2 9.545-2 9.545a9.389 9.389 0 0 1 -6.243-.673s-1.022-8.812-1.41-14.147c-.127-1.731-.751-7.636-1.534-14.82-.607-5.555-1.308-11.876-1.952-17.624-.034-.306-.067-.612-.1-.914-1.039-9.293-1.9-16.863-1.9-16.863l6.7-.638z" fill="#b64c41" transform="translate(-1886.499 -1069.758)"/><path d="m2193.622 1264.478-11.189-20.094c-.607-5.555-1.308-11.876-1.952-17.624-.034-.306-.067-.612-.1-.914-1.039-9.293-1.9-16.863-1.9-16.863l6.7-.638 11.363.233z" fill="#aa413e" transform="translate(-1886.499 -1075.874)"/><path d="m2186.7 1202.415s6.261 30.948 11.363 45.885 5.165 19.087 5.165 19.087 4.682 1.015 6.744-.164c0 0 1.178-28.316-1.908-35.836-2.042-4.974-3.6-15.56-3.073-19.373s1.026-11.46 1.026-11.46z" fill="#b64c41" transform="translate(-1893.479 -1069.256)"/><path d="m2226.531 860.544 6.962-1.963a27.807 27.807 0 0 1 -1.593-5.908 8.835 8.835 0 0 1 .364-4.661c.035-.079.074-.158.114-.234.266-.5.1-.722-.25-.778a4.016 4.016 0 0 0 -2.353.74l-.049.04a51.169 51.169 0 0 1 -4.847 2.723h-.009s-.006.029-.013.084 0 .01 0 .027c-.022.146-.062.417-.1.79-.202 1.863-.368 6.18 1.774 9.14z" fill="#d9935c" transform="translate(-1925.711 -768.932)"/><path d="m2178.169 965.775c-1.48 1.048-3.812 1.426-6.38 1.386a34.939 34.939 0 0 1 -8.973-1.462 21.094 21.094 0 0 1 -3.551-1.366c-3.965-2.068-3.4-4.82-3.307-15.121.1-10.514 6.567-24.1 7.732-26.379 2.074-4.05 11.377-2.555 11.377-2.555 2.041.978 2.767 4.24 2.966 8.5.221 4.733-.208 10.7-.208 16.142a61.466 61.466 0 0 0 1.467 11.775c.801 4.286 1.213 7.424-1.123 9.08z" fill="#739af0" transform="translate(-1867.301 -830.96)"/><path d="m2212 973c-1.79 3.773-5.315 8.019-7.5 10.464a34.936 34.936 0 0 1 -8.973-1.462c-1.117-2.673-1.606-7.136-.574-14.5.787-5.616 6.521-28.208 6.521-28.208 4.63-.6 7.509 1.918 9.271 5.791.221 4.733-.208 10.7-.208 16.142a61.465 61.465 0 0 0 1.463 11.773z" fill="#4a75cb" transform="translate(-1900.005 -847.264)"/><path d="m2154.9 1253.3h4.2v-1.307a3.937 3.937 0 0 1 3.932-3.933h3.479a3.938 3.938 0 0 1 3.933 3.933v1.307h4.2a2.3 2.3 0 0 1 2.294 2.294v10.7a2.3 2.3 0 0 1 -2.294 2.294h-19.744a2.3 2.3 0 0 1 -2.294-2.294v-10.7a2.3 2.3 0 0 1 2.294-2.294zm13.988-1.307a2.376 2.376 0 0 0 -2.374-2.374h-3.479a2.376 2.376 0 0 0 -2.373 2.374v1.307h8.226z" fill="#233862" transform="translate(-1864.519 -1109.605)"/><path d="m2216.672 1224.237s-2.421 4.67-1.211 6.486 5.534-.519 5.88-1.557 0-6.053 0-6.053z" fill="#da935b" transform="translate(-1917.624 -1088.418)"/><path d="m2216.711 945.829s-.9 12.85-.889 18.166-4.219 19.456-4.219 19.456a29.363 29.363 0 0 1 -3.9.083 4.491 4.491 0 0 1 -2.02-.744s.929-16.706-.844-23.109-1.866-19.264-1.866-19.264.985-2.776 6.879-1.9c6.995 1.04 6.859 7.312 6.859 7.312z" fill="#739af0" transform="translate(-1907.306 -846.535)"/><path d="m2213.8 882.541s1.587 5.015 1.273 5.912c0 0-8.606 1.159-12.1 4.563 0 0 1.135-4.888 2.531-6.111s8.296-4.364 8.296-4.364z" fill="#4a75cb" transform="translate(-1907.306 -799.134)"/><path d="m2225.351 850.725c.78-.006 5.645.01 7.01 1.165a.821.821 0 0 0 .14.1 8.835 8.835 0 0 1 .364-4.661c-.05-.391.057-.816-.136-1.012-.435-.442-1.792.3-2.353.74l-.049.04a51.167 51.167 0 0 1 -4.847 2.723l-.022.088a.247.247 0 0 0 0 .027c-.027.145-.067.417-.107.79z" fill="#cb8757" transform="translate(-1926.312 -768.247)"/><path d="m2196.428 799.379s8.045 1.54 8.927-3.485 2.514-8.21-2.585-9.406-6.437.546-7.139 2.152-1.273 10.209.797 10.739z" fill="#d9935c" transform="translate(-1900.522 -717.21)"/><path d="m2198.64 770.515s-.419-.319 1.21-2.788 2.4-1.791 2.422-4.422 1-4.21-2.054-5.922-2.567-3.3-4.4-3.679-4.5 1.13-6.067.812-6.5 6.091-3.342 7.608a5.014 5.014 0 0 0 2.494-.561c1.029-.634 4.8-1.276 5.246-.128s2.835 8.193 4.491 9.08z" fill="#233862" transform="translate(-1892.358 -689.648)"/><path d="m1278.007 1574.283 2.922-.039s-4.393-4.877-5.742-7.358l-3.709-6.851-4.856 1.2 6.163 8.734z" fill="#e49963" transform="translate(-1111.963 -1374.599)"/><path d="m994.128 763.613a6.284 6.284 0 0 0 -3.4-.651 1.59 1.59 0 0 1 .717-.341 5.271 5.271 0 0 0 -1.882.491c-8.1-3.12-9.371 8.8-9.2 11.574s-2.721 3.675-6.935 5.857c-8.039 4.165-8.745 9.741-8.745 9.741.063.037.128.079.2.127.4-.676 1.22-1.945 1.912-2.136a28.688 28.688 0 0 0 -1.114 2.713c2.372 1.8 6.808 5.8 9.9 8.636a4.545 4.545 0 0 1 .211-1.756l.382 2.3c1.654 1.521 2.8 2.591 2.8 2.591-.2-2.239 10.125-14.053 15.514-17.591a15.578 15.578 0 0 0 1.813-5.612 14.724 14.724 0 0 1 -1.1 5.077c4.553-4.197 1.899-19.333-1.073-21.02z" fill="#163560" transform="translate(-855.494 -697.252)"/><path d="m1117.4 868.663c.027.012-2.6 1.377-4.58.836-1.86-.507-3.075-2.919-3.05-2.924.788-.157 1.015-1.239 1-5.891l.356.07 5.988 1.186s-.136 1.884-.14 3.66c-.002 1.49.088 2.9.426 3.063z" fill="#e49963" transform="translate(-978.736 -780.568)"/><path d="m1115.474 774.154a4.786 4.786 0 0 1 6.662-.161 25.964 25.964 0 0 0 -6.662.161z" fill="#e37970" transform="translate(-983.578 -705.841)"/><path d="m1124.757 862.335s-.136 1.884-.14 3.66c-3.351-.094-5.122-3.151-5.848-4.845z" fill="#d68d5d" transform="translate(-986.377 -780.963)"/><path d="m1102.092 787.428a17.605 17.605 0 0 1 -2.177-5.147c-.3-1.694.562-7.972 6.871-7.068a8.57 8.57 0 0 1 3.555 1.344c1.37.925 3.347 2.922 1.136 8.4l-.574 1.85z" fill="#163560" transform="translate(-970.318 -707.894)"/><path d="m1125.3 1202.265-3.174.1-3.436.105a67.814 67.814 0 0 1 -12.387-23q-.156-.494-.329-1c-2.436-7.1-7.486-16.02-10.148-24.09-.424-1.286-.8-2.5-1.145-3.641-.109-.367-.216-.727-.317-1.082a85.6 85.6 0 0 1 -3.052-16.069l16.994.136a519.851 519.851 0 0 0 16.994 68.541z" fill="#80bdcc" transform="translate(-963.056 -1012.373)"/><path d="m1106.994 920.807c.225 9.142 1.341 13.069 1.341 13.069a25.824 25.824 0 0 1 -18.008 1.1c-.115-.036.634-37.779 3.408-38.819a6.049 6.049 0 0 0 4.231 1.529c1.948-.043 2.58-.877 2.479-1.787 2.075 1.158 6.226 11.818 6.549 24.908z" fill="#e7f1fd" transform="translate(-962.209 -810.483)"/><path d="m1120.713 804.735s-7.928.131-7.933-4.807-1.032-8.247 4.029-8.539 6.047 1.591 6.45 3.239-.484 9.945-2.546 10.107z" fill="#e49963" transform="translate(-981.214 -721.682)"/><path d="m1108.646 785.711c-1.224-1.483-2.148-1.161-2.668-.715-1.713-2.56-7.128 1.142-7.128 1.142a10.47 10.47 0 0 0 -3.085 5.573s1.445.893 4.776.036c2.621-.674 4.524-4.405 5.215-5.964a6.29 6.29 0 0 1 1.764 2.336c.4 1.258.573 3.846 1.328 3.758.001 0 1.636-3.938-.202-6.166z" fill="#163560" transform="translate(-966.837 -715.513)"/><path d="m1377.788 914.789a4.948 4.948 0 0 1 5.546-3.459c.508.159 1.993.751 1.044 2.341-.7 1.172-1 .567-2.1 2.142a3.506 3.506 0 0 1 -3.66 1.742z" fill="#e49963" transform="translate(-1206.388 -823.541)"/><path d="m1091.586 1578.582c-.27-1.484-.783-4.05-.783-4.05l.119-9.1h-5.53l2.069 8.714a8.868 8.868 0 0 1 -.425 3.639s-.531 2.419 1.852 2.464 2.967-.184 2.698-1.667z" fill="#e49963" transform="translate(-958.026 -1379.179)"/><path d="m1094.7 1647.11a13.449 13.449 0 0 0 -.2 3.768h5.006a14.756 14.756 0 0 0 -.417-3.83s-1.694 2.535-4.389.062z" fill="#c45446" transform="translate(-965.687 -1448.509)"/><path d="m1306.032 1622.5a.289.289 0 0 1 -.049-.026 4.254 4.254 0 0 1 -3.414-1.593c-3.246-3.657-5.07-4.065-5.707-4.064-.548 1.129-1.153 2.4-.374 3.828l1.162 4.554h1.254l.012-4.3a2.95 2.95 0 0 1 1.99 1.33c.877 1.753 1.485 2.969 2.3 2.969h5.633s-.109-1.479-2.807-2.698z" fill="#c45446" transform="translate(-1137.018 -1422.835)"/><path d="m1190.732 901.731s-5.2 2.909-7.062 3.748c-1.06.478-3.5 1.62-5.217 2.427a2.682 2.682 0 0 1 -3.178-.685c-2.821-3.3-10.131-10.443-17.673-11.32l.01.019-.043-.019s4.587 11.331 4.722 13.624.54 37.5.54 37.5-.27 1.619 2.833.944 3.912-1.349 3.912-1.349-2.968-21.718-2.158-29.271a16.834 16.834 0 0 0 -.321-4.892 38.631 38.631 0 0 0 10.033 4.037 56.323 56.323 0 0 0 9.622-5.845c1.744-1.278 4.809-6.153 4.809-6.153z" fill="#e37970" transform="translate(-1019.333 -810.483)"/><path d="m1139.345 1280.886-3.436.105a67.816 67.816 0 0 1 -12.387-23q-.156-.494-.329-1c-2.436-7.1-7.486-16.02-10.148-24.09-.424-1.286-.8-2.5-1.145-3.641-.109-.367-.216-.727-.317-1.082l2.83-2.147s8.5 13.759 11.127 26.707c2.285 11.249 11.436 24.783 13.805 28.148z" fill="#5f9aa8" transform="translate(-980.273 -1090.897)"/><path d="m1184.5 1008.052-.167.513-8.894-2.891a.343.343 0 0 1 -.057-.316.253.253 0 0 1 .223-.2z" fill="#163560" transform="translate(-1034.45 -903.288)"/><path d="m1049.321 1233.35c.049 6.3-.27 20.773-1.09 26.766h-3.043c-1.682 0-2.521-.024-2.521-.024-2.057-10.42-3.521-19.043-4.586-26.472-.874-6.1-1.651-11.324-2.249-15.824-.6-4.528-1.02-8.32-1.17-11.524-.023-.5-.04-1-.05-1.471s-.012-.944-.008-1.4l16.6-1.619c-.204 11.037-1.91 27.909-1.883 31.568z" fill="#80bdcc" transform="translate(-914.886 -1070.302)"/><path d="m1045.525 1285.421c-1.682 0-2.521-.024-2.521-.024-2.057-10.42-3.521-19.043-4.586-26.472-.874-6.1-1.651-11.324-2.249-15.824-.6-4.528-1.02-8.32-1.17-11.524l6.093 3.584s-3.889 1.372-2.4 11.759 4.767 37.031 6.833 38.501z" fill="#5f9aa8" transform="translate(-915.222 -1095.606)"/><path d="m1025.4 947.81s-1.169 4.226-5.216 3.687a48.772 48.772 0 0 1 -9.8-2.968s1.729-5.464 3.88-12.643c2.6-8.691 5.826-19.9 7.345-26.962a43.658 43.658 0 0 0 .826-4.818l3.407-6.486s4.956 11.207 5.226 14.04-5.668 36.15-5.668 36.15z" fill="#e37970" transform="translate(-894.31 -811.941)"/><path d="m1047.1 981.355c-.181 4.586-1.26 13.489-10.882 18.255-.026.012-.051.026-.077.036 2.6-8.691 5.826-19.9 7.345-26.962 1.766 2.641 3.714 6.146 3.614 8.671z" fill="#c45446" transform="translate(-916.192 -875.702)"/><path d="m1126.342 1011.116a14.533 14.533 0 0 1 -4.385 6.671 3.041 3.041 0 0 1 -1.32.718 58.065 58.065 0 0 1 -11.7 2.759v-5.076c3.959-.254 8.836-.519 10.844-.626a5.929 5.929 0 0 0 .848-2.024 3.005 3.005 0 0 1 2.935-2.688c1.946-.255 2.783-.283 2.778.266z" fill="#e49963" transform="translate(-978.024 -907.971)"/><path d="m1377.769 902.773 9 5.849a.518.518 0 0 1 .157.461l-4.328 14.647a.262.262 0 0 1 -.44.111l-8.726-6.534c-.1-.076-.177-.16-.142-.282l3.975-14.02a.377.377 0 0 1 .504-.232z" fill="#163560" transform="translate(-1202.557 -816.285)"/><path d="m1375.914 901.314 9.073 5.907a.307.307 0 0 1 .127.344l-4.328 14.647a.307.307 0 0 1 -.478.159l-8.719-6.534a.307.307 0 0 1 -.111-.329l3.974-14.02a.307.307 0 0 1 .462-.174z" fill="#1c468a" transform="translate(-1201.018 -815.037)"/><path d="m1380.958 905.868 8.8 5.615-4 12.893-8.3-6z" fill="#fff" transform="translate(-1206.116 -818.947)"/><path d="m1396.128 1008.376a.36.36 0 1 1 .36.36.36.36 0 0 1 -.36-.36z" fill="#163560" transform="translate(-1221.967 -905.713)"/><path d="m1396.495 931.863-4.245-2.967 2.927-11.851 4.245 2.967z" fill="#fff" transform="translate(-1218.673 -828.441)"/><g fill="#699dee" opacity=".5" transform="translate(174.965 92.153)"><path d="m1409.982 956.735-2.812-1.965a.183.183 0 0 1 -.031-.176l.012-.049c.018-.072.061-.112.1-.087l2.812 1.965a.184.184 0 0 1 .031.176l-.012.049c-.022.072-.065.112-.1.087z" transform="translate(-1406.279 -952.366)"/><path d="m1413.4 942.9-2.812-1.965a.183.183 0 0 1 -.031-.176l.012-.049c.018-.072.061-.112.1-.087l2.812 1.965a.183.183 0 0 1 .031.176l-.012.049c-.022.069-.065.108-.1.087z" transform="translate(-1409.182 -940.612)"/><path d="m1412.213 947.7-2.812-1.965a.183.183 0 0 1 -.031-.176l.012-.049c.018-.072.061-.112.1-.087l2.812 1.965a.184.184 0 0 1 .031.176l-.012.049c-.022.076-.065.115-.1.087z" transform="translate(-1408.174 -944.694)"/><path d="m1411.1 952.219-2.812-1.965a.185.185 0 0 1 -.031-.176l.012-.049c.018-.072.061-.112.1-.087l2.812 1.965a.184.184 0 0 1 .031.176l-.012.049c-.024.068-.068.112-.1.087z" transform="translate(-1407.226 -948.53)"/><path d="m1407.709 965.938-2.812-1.965a.184.184 0 0 1 -.031-.176l.012-.049c.018-.072.061-.112.1-.087l2.812 1.965a.184.184 0 0 1 .031.176l-.012.049c-.022.072-.064.111-.1.087z" transform="translate(-1404.349 -960.183)"/><path d="m1408.825 961.422-2.812-1.965a.185.185 0 0 1 -.031-.176l.012-.049c.018-.073.061-.112.1-.087l2.812 1.965a.184.184 0 0 1 .031.176l-.012.049c-.025.072-.066.112-.1.087z" transform="translate(-1405.296 -956.347)"/><path d="m1416.094 988.458-.683-.477a.219.219 0 0 1 -.037-.209c.021-.086.073-.133.114-.1l.683.477a.218.218 0 0 1 .037.209c-.021.082-.072.128-.114.1z" transform="translate(-1413.273 -980.574)"/><path d="m1402.2 978.748-.683-.477a.219.219 0 0 1 -.037-.209c.021-.086.073-.132.114-.1l.683.478a.218.218 0 0 1 .036.209c-.021.081-.072.127-.113.099z" transform="translate(-1401.471 -972.326)"/></g><g fill="#476ba7"><path d="m1412.888 995.411a.064.064 0 0 1 -.037-.012l-1-.7a.284.284 0 0 1 -.049-.273l.148-.6c.022-.089.069-.148.118-.148a.063.063 0 0 1 .036.012l1 .7a.283.283 0 0 1 .049.273l-.148.6c-.021.089-.068.148-.117.148zm-.816-1.715c-.042 0-.086.057-.106.138l-.148.6a.276.276 0 0 0 .044.26l1 .7a.051.051 0 0 0 .029.01c.042 0 .086-.057.106-.139l.148-.6a.276.276 0 0 0 -.044-.26l-1-.7a.049.049 0 0 0 -.029-.005z" transform="translate(-1235.274 -893.539)"/><path d="m1398.97 985.684a.062.062 0 0 1 -.036-.012l-1-.7a.283.283 0 0 1 -.049-.273l.148-.6c.022-.088.07-.148.118-.148a.063.063 0 0 1 .036.012l1 .7a.283.283 0 0 1 .049.273l-.148.6c-.022.089-.069.148-.118.148zm-.816-1.715c-.042 0-.086.057-.106.138l-.148.6a.275.275 0 0 0 .044.26l1 .7a.05.05 0 0 0 .03.01c.042 0 .086-.057.106-.138l.148-.6a.275.275 0 0 0 -.044-.26l-1-.7a.05.05 0 0 0 -.03-.01z" transform="translate(-1223.452 -885.277)"/><path d="m1413.608 926.327c.053-.214.174-.335.285-.258a.318.318 0 0 1 .11.221l-.076.081a.218.218 0 0 0 -.073-.149c-.061-.043-.131.032-.164.163s-.016.267.047.311c.042.029.075.012.117-.022l.023.149a.124.124 0 0 1 -.181.024.529.529 0 0 1 -.088-.52z" transform="translate(-1236.794 -836.086)"/><path d="m1416.083 928.068c.053-.214.178-.333.29-.255a.53.53 0 0 1 .1.524c-.053.214-.178.333-.29.255a.529.529 0 0 1 -.1-.524zm.3.211a.324.324 0 0 0 -.052-.314c-.064-.045-.135.029-.167.161a.324.324 0 0 0 .051.314c.067.045.138-.029.171-.161z" transform="translate(-1238.897 -837.568)"/><path d="m1418.82 929.258.073.052.056.583.115-.464.079.055-.186.754-.068-.047-.057-.6-.118.479-.079-.055z" transform="translate(-1241.084 -838.815)"/><path d="m1422.063 931.269-.11-.077.038-.153.3.21-.038.153-.11-.077-.149.6-.08-.056z" transform="translate(-1243.871 -840.328)"/><path d="m1423.771 932.718.166.116a.224.224 0 0 1 .087.15.485.485 0 0 1 -.012.2c-.03.122-.081.176-.135.179l.022.331-.093-.065-.019-.3-.062-.043-.06.241-.08-.056zm.07.478c.039.027.072 0 .088-.066a.135.135 0 0 0 -.036-.151l-.079-.056-.053.217z" transform="translate(-1245.29 -841.754)"/><path d="m1426.211 935 .074.052-.032.868-.083-.058.009-.192-.153-.107-.075.146-.081-.057zm-.026.5.012-.278-.109.211z" transform="translate(-1247.229 -843.692)"/><path d="m1429.011 937.092c.053-.214.174-.335.285-.258a.318.318 0 0 1 .11.221l-.076.081a.219.219 0 0 0 -.073-.149c-.061-.043-.131.032-.164.163s-.016.267.047.311c.042.029.076.012.117-.022l.023.149a.124.124 0 0 1 -.18.024.53.53 0 0 1 -.089-.52z" transform="translate(-1249.878 -845.23)"/><path d="m1431.89 938.136-.111-.077.038-.153.3.21-.038.153-.11-.077-.148.6-.08-.056z" transform="translate(-1252.218 -846.161)"/></g><path d="m1415.082 994.961a3.265 3.265 0 0 0 -.489.158c.009-.035.017-.069.025-.1s-.01-.062-.024-.035-.013.022-.019.032c.006-.025-.007-.05-.021-.039.009-.033-.016-.056-.028-.027l-.018.044a.066.066 0 0 1 -.051.038.458.458 0 0 1 0-.062.04.04 0 0 0 -.01-.033c0-.019-.005-.035-.017-.032a.077.077 0 0 0 -.039.034c0-.037-.031-.031-.046-.009.009-.026 0-.067-.018-.048a.346.346 0 0 0 -.071.149.352.352 0 0 1 -.034.045c-.006.006-.033.04-.038.031a.139.139 0 0 1 0-.056v-.006c.024-.048.14-.274.074-.317-.007 0-.015 0-.02.013a1.2 1.2 0 0 0 -.074.225c0 .016-.008.036-.012.057l-.007.014c-.032.06-.077.148-.122.157a1.757 1.757 0 0 1 .075-.366q.02-.074.041-.147s.006 0 .01 0a.37.37 0 0 0 .068-.276c0-.03-.024-.019-.031 0-.044.14-.086.282-.124.427a1.638 1.638 0 0 0 -.073.4c0 .015.006.025.013.026.05.009.1-.06.141-.134a.076.076 0 0 0 .011.036c.021.031.056-.005.082-.038v.051s.008.027.018.026a.115.115 0 0 0 .063-.048c.023 0 .045-.028.065-.065a.343.343 0 0 0 .033-.044.262.262 0 0 0 .005.038c.007.027.029.022.043.018a.088.088 0 0 0 .039-.028.031.031 0 0 0 .025 0 .094.094 0 0 0 0 .017c.007.018.017.02.028.013l-.01.037-.071.031c-.016.007-.023.055-.007.064l.061.031c.009 0 .017 0 .023-.021l.015-.048a3.285 3.285 0 0 1 .511-.167c.029-.006.023-.071.005-.066zm-.736.043c0 .009 0 .017-.007.025l-.006.016a.283.283 0 0 1 .013-.045zm-.051.055a.181.181 0 0 0 0 .052.084.084 0 0 1 -.017.012.432.432 0 0 1 .007-.063c.009-.014.016-.029.024-.044-.009.016-.009.03-.009.044z" fill="#365da2" transform="translate(-1237.143 -894.127)"/><path d="m1400.432 983.945c-.072.192-.121.407-.183.609a1.953 1.953 0 0 1 -.105.278c-.028.059-.091.186-.13.122a.088.088 0 0 1 -.005-.064c0-.006 0-.011 0-.017a.015.015 0 0 0 .022.009.1.1 0 0 0 .037-.057.123.123 0 0 0 0-.082c-.009-.019-.024-.018-.036 0a.274.274 0 0 0 -.029.074.424.424 0 0 0 -.024.1c0 .054.021.09.046.095s.062-.035.086-.076a1.164 1.164 0 0 0 .078-.158 3.362 3.362 0 0 0 .121-.372c.041-.148.081-.3.133-.437.013-.023-.002-.046-.011-.024zm-.374.84a.086.086 0 0 1 -.015.045.05.05 0 0 1 -.008.01.015.015 0 0 0 -.005-.011l.01-.031c0-.011.018-.049.019-.013z" fill="#365da2" transform="translate(-1225.242 -885.259)"/><path d="m1401.972 988.844a.054.054 0 0 1 -.036.009l-.009-.005a.113.113 0 0 0 .022-.049c0-.032-.011-.051-.026-.043a.079.079 0 0 0 -.026.057.1.1 0 0 0 0 .025c-.013.011-.035.024-.047.01a.18.18 0 0 0 .048-.064.037.037 0 0 0 0-.02c-.005-.025-.019-.036-.034-.03s-.028.034-.036.06a.156.156 0 0 0 -.006.027.048.048 0 0 1 -.045-.007l.016-.02a.031.031 0 0 0 0-.035c-.013-.014-.026.006-.032.031a.3.3 0 0 1 -.078.066c-.007 0-.016.014-.019 0a.219.219 0 0 0 .032-.037.152.152 0 0 0 .024-.127c0-.007-.01-.011-.015 0l-.032.061a.3.3 0 0 0 -.025.057.148.148 0 0 0 0 .023.091.091 0 0 1 -.03.013l.017-.018a.118.118 0 0 0 .035-.075.246.246 0 0 0 -.011-.092c0-.007-.008-.009-.012-.005a.3.3 0 0 0 -.075.138.143.143 0 0 0 -.006.058q-.042.039-.084.074s-.01.012-.013.008a.057.057 0 0 1 0-.022c0-.016 0-.032.005-.047a.8.8 0 0 1 .02-.1.7.7 0 0 1 .026-.08s.007.007.011 0a.166.166 0 0 0 .036-.106c0-.016-.01-.021-.016-.011a.781.781 0 0 0 -.1.353c0 .029 0 .057.02.053a.07.07 0 0 0 .024-.017l.031-.026.058-.052a.04.04 0 0 0 .031.005.093.093 0 0 0 .037-.014c0 .016.007.029.017.033s.024-.008.033-.014a.27.27 0 0 0 .033-.024.4.4 0 0 0 .031-.03.025.025 0 0 0 .011.017.056.056 0 0 0 .026.011.055.055 0 0 0 .029 0v.01a.034.034 0 0 0 .038.021.077.077 0 0 0 .039-.021.051.051 0 0 0 .01.014c.017.016.038.008.057 0s.009-.049-.004-.043zm-.38-.06a.251.251 0 0 1 .048-.084.105.105 0 0 1 0 .073.114.114 0 0 1 -.023.027l-.026.026-.007.006a.135.135 0 0 1 .008-.048zm.114-.04a.139.139 0 0 1 -.025.052v.006c.004-.02.019-.039.025-.058zm.17.029a.129.129 0 0 1 -.028.035c.006-.021.02-.042.027-.035zm.045.03s.008-.013.006 0a.054.054 0 0 1 -.009.016.062.062 0 0 1 .002-.019z" fill="#365da2" transform="translate(-1226.481 -889.19)"/><path d="m1235.724 1024.853-.64-.495-.167.513z" fill="#163560" transform="translate(-1085.034 -919.594)"/><path d="m1045.428 897.619s-8.263.551-10.242 4.957-2.608 19.065-.09 23.381c0 0 3.467.987 9.6-.159l.227-.043s1.956-4.789.2-5.733c0 0-5.171.27-4.631-1.439s4.936-20.964 4.936-20.964z" fill="#e37970" transform="translate(-913.902 -811.941)"/><path d="m618.814 1671.067h-378.709a.451.451 0 0 1 -.449-.45.451.451 0 0 1 .449-.45h378.709a.451.451 0 0 1 .449.45.451.451 0 0 1 -.449.45z" fill="#202f4e" transform="translate(-239.656 -1468.146)"/></svg>