<svg height="236.841" viewBox="0 0 374.845 236.841" width="374.845" xmlns="http://www.w3.org/2000/svg"><g transform="translate(-215.391 -114.738)"><path d="m567.271 343.337-318.349-.11s-53.8-74.143-25.106-123.743 70.6-14.588 74.094-50.422c.119-1.213.024-2.413.024-3.585 0-.279 0-.554.018-.829 1.073-20.58 14.5-33.88 32.223-41.532q.859-.372 1.729-.723c28.259-11.452 66.469-9.1 83.384.751 28.78 16.753 28.6 36.918 88.03 30.266s70.765 48.971 55.294 77.309c-21.95 40.209 60.871 33.605 8.659 112.618z" fill="#ebf3fa"/><path d="m1827.863 766.371-7.737-7.616-7.593-7.474a1.374 1.374 0 0 1 -.32-1.326c.391-1.393 2.753-2.777 4.132-3.939l.139-.118a4.333 4.333 0 0 1 6.089.517l9.281 11 2.752 3.263a4.333 4.333 0 0 1 -.517 6.089l-.139.118a4.335 4.335 0 0 1 -6.087-.514z" fill="#ffb27d" transform="translate(-1384.338 -546.314)"/><path d="m1275.487 390.455a3.537 3.537 0 0 1 -3.154 2.766 32.867 32.867 0 0 1 -16.432-1.95c-7.564.036-12.919-2.719-14.541-1.293-.059.052-.043.165.042.325 1.484 2.877 24.434 22.013 24.768 24.136.353 2.242-42.692 12.789-42.692 12.789s-6.36-3.964-13.481-9.168c-3.612-2.635-7.417-5.589-10.688-8.507a39.368 39.368 0 0 1 -7.532-8.346l-.008-.017a10.177 10.177 0 0 1 -.572-1.1c-.026-.056-.049-.107-.068-.154a21.046 21.046 0 0 0 -5.346-7.114 48.076 48.076 0 0 0 -13.361-8.14l31.607-16.867s29.022 3.41 33.665 6.228c6.767 4.109 20.937 7.122 23.663 8.714 2.025 1.18 12.689 5.01 13.467 5.352a2.684 2.684 0 0 1 .663 2.346z" fill="#ffb27d" transform="translate(-829.711 -219.411)"/><path d="m902.223 198.161s-.007.064-.026.185a79.029 79.029 0 0 1 -2.25 10.5c-.055.187-.11.378-.167.567l-.077.255c-1.826 6.041-4.795 12.735-9.377 15.434q-.394.231-.8.424a8.476 8.476 0 0 1 -1.993.648 8.155 8.155 0 0 1 -1.584.152s-4.019-.483-10.032-1.215l-1.01-.111c-10.87-1.327-27.484-3.382-39.071-4.931 0-.279 0-.554.018-.829 1.073-20.58 14.5-33.88 32.222-41.532 9.412 5.628 18.229 10.911 24.547 14.7a.007.007 0 0 1 .005 0 .1.1 0 0 1 .015.009c.4.242.8.479 1.18.706l.024.015z" fill="#f99746" transform="translate(-537.903 -54.591)"/><path d="m1283.568 495.708a.37.37 0 0 1 .037.083c2.97 18.779 13.875 15.681 13.875 15.681l-.41 15.436c-3.612-2.635-7.417-5.589-10.688-8.507a39.366 39.366 0 0 1 -7.532-8.346l-.008-.017c-.257-.465-.45-.837-.572-1.1-.026-.056-.049-.107-.068-.154a21.046 21.046 0 0 0 -5.346-7.114c1.161-1.983 2.517-4.236 3.857-6.443a3.865 3.865 0 0 1 6.855.481z" fill="#efa26f" transform="translate(-916.782 -328.258)"/><path d="m1144.486 288.057s-10.2 8.821-14.4 15.019l3.044 5.279-5.177-.487s-2.637 9.57-1.205 12.8l14.12 1.332 16.276-26.043z" fill="#ed7d2b" transform="translate(-789.745 -150.261)"/><path d="m1136.3 300.946c-.418-3.838 3.3-11.675 3.3-11.675l12.519 2.5-9.639-10.159c2.176-4.5 7.395-11.376 10.623-15.447 1.608-2.027 2.722-3.36 2.722-3.36 9.271 7.046 17.9 14.069 17.9 14.069-3.784 1.466-7.326 5.447-10.273 9.847a91.56 91.56 0 0 0 -8.152 15.779c-7.511-.712-19-1.554-19-1.554z" fill="#dceaff" transform="translate(-798.363 -128.369)"/><path d="m1136.3 322.84c-.418-3.838 3.3-11.675 3.3-11.675l12.519 2.5-9.639-10.159c2.176-4.5 7.395-11.376 10.623-15.447.165 11.227 10.351 20.556 10.351 20.556a91.56 91.56 0 0 0 -8.154 15.777c-7.511-.71-19-1.552-19-1.552z" fill="#cbe1fd" transform="translate(-798.363 -150.263)"/><path d="m1230.091 363.352a1.533 1.533 0 1 1 -1.683 1.367 1.533 1.533 0 0 1 1.683-1.367z" fill="#f99746" transform="translate(-878.242 -215.532)"/><path d="m0 0h93.67v43.029h-93.67z" fill="#82b378" transform="matrix(.962 -.274 .274 .962 369.98 183.412)"/><path d="m0 0h93.67v43.029h-93.67z" fill="#a8d29f" transform="matrix(.98341673 -.18136024 .18136024 .98341673 374.874 180.837)"/><path d="m1536.641 545.783-3.931-21.312v-.007l-1.934-10.494-1.006.185-17.251 3.182-.2.037-12.922 2.382-1.653.3-13.854 2.556-36.423 6.716h-.007l-.024.006-.618.114h-.018-.015l-.927.171 1.4 7.591 1.637 8.876 3.536 19.174 19.9-3.67.886-.163 3.3-.609.734-.136.969-.178.885-.163 1.688-.312 4.118-.76 1.169-.215 1.62-.3 1.415-.261 8.267-1.525 1.679-.31 1.323-.244 11.445-2.11 10.283-1.9 3.758-.694 11.472-2.116zm-5.118 3.336-18.607 3.431-2.222.409-11.64 2.147-1.081.2-8.212 1.514-2.6.479-1.668.308-1.193.22-3.885.716-1.607.3-.976.182-.927.171-.743.136-3.288.607-.932.172-14.245 2.626a4.1 4.1 0 0 1 -4.773-3.286l-2.226-12.074-2.3-12.476a4.1 4.1 0 0 1 3.286-4.775l33.619-6.2 15.741-2.9 4.481-.828 5.637-1.039.183-.035 14.163-2.611a4.1 4.1 0 0 1 4.773 3.286l4.527 24.551a4.1 4.1 0 0 1 -3.287 4.775z" fill="#82b378" transform="translate(-1066.768 -346.12)"/><path d="m1720.953 645.938a10.787 10.787 0 1 1 8.88-12.4 10.787 10.787 0 0 1 -8.88 12.4z" fill="#82b378" transform="translate(-1294.386 -441.952)"/><path d="m1603.595 715.318a3.982 3.982 0 1 1 3.278-4.579 3.982 3.982 0 0 1 -3.278 4.579z" fill="#82b378" transform="translate(-1199.504 -513.821)"/><path d="m1925.547 655.944a3.982 3.982 0 1 1 3.278-4.579 3.982 3.982 0 0 1 -3.278 4.579z" fill="#82b378" transform="translate(-1478.625 -462.346)"/><path d="m1696.4 831.5-.339-.915-2.284-6.153a3.909 3.909 0 0 1 -.134-.436 4.19 4.19 0 0 1 2.6-4.934l.236-.088a4.191 4.191 0 0 1 5.371 2.463l2.129 5.736.155.417.34.915a4.189 4.189 0 0 1 -2.463 5.37l-.236.088a4.191 4.191 0 0 1 -5.375-2.463z" fill="#ffb27d" transform="translate(-1281.484 -610.321)"/><path d="m1706.637 837.385a24.489 24.489 0 0 1 -1.189-3.878 1.634 1.634 0 0 1 .65-1.274 3.779 3.779 0 0 1 1.4-.761 4.419 4.419 0 0 1 .89-.2 3.753 3.753 0 0 1 1.056.042 1.055 1.055 0 0 1 .749.591s0 0 0 0a24.189 24.189 0 0 1 1.43 3.732 1.616 1.616 0 0 1 -.912 2l-.353.126-1.808.644a1.545 1.545 0 0 1 -1.913-1.022z" fill="#ffd3b6" transform="translate(-1291.821 -621.189)"/><path d="m1706.637 841.426a24.491 24.491 0 0 1 -1.189-3.878 1.634 1.634 0 0 1 .65-1.274c.12-.051.247-.1.383-.141a4.419 4.419 0 0 1 .89-.2 3.739 3.739 0 0 1 1.056.042 1.053 1.053 0 0 1 .749.591s0 0 0 0a24.185 24.185 0 0 1 1.43 3.732 1.763 1.763 0 0 1 -.251 1.5l-1.808.644a1.545 1.545 0 0 1 -1.91-1.016z" fill="#ffc197" transform="translate(-1291.821 -625.23)"/><path d="m1641.784 839.42-1.251-4.741a2.717 2.717 0 0 1 1.928-3.311l.537-.142a2.717 2.717 0 0 1 3.31 1.928l1.251 4.741a2.717 2.717 0 0 1 -1.928 3.31l-.536.142a2.717 2.717 0 0 1 -3.311-1.927z" fill="#ffb27d" transform="translate(-1235.469 -621.093)"/><path d="m1648.1 842.322a21.352 21.352 0 0 1 -.661-3.268 1.594 1.594 0 0 1 1.034-1.283 3.583 3.583 0 0 1 1.365-.337 2.712 2.712 0 0 1 .809.112.838.838 0 0 1 .536.539 21.124 21.124 0 0 1 .857 3.167 1.339 1.339 0 0 1 -.83 1.573l-.427.119-1.282.355a1.2 1.2 0 0 1 -1.401-.977z" fill="#ffd3b6" transform="translate(-1241.537 -626.551)"/><path d="m1648.1 843.931a21.35 21.35 0 0 1 -.661-3.268 1.594 1.594 0 0 1 1.034-1.283 3.014 3.014 0 0 1 .653-.09 2.719 2.719 0 0 1 .809.112.841.841 0 0 1 .536.539s0 0 0 0a21.009 21.009 0 0 1 .856 3.167 1.429 1.429 0 0 1 -.544 1.444l-1.282.355a1.2 1.2 0 0 1 -1.401-.976z" fill="#ffc197" transform="translate(-1241.537 -628.16)"/><path d="m1771.995 829.006c-.012-.034-.023-.067-.034-.1l-1.544-6.215a5.127 5.127 0 0 1 3.328-6.241l1.286-.359a4.755 4.755 0 0 1 5.708 3.374l.51 2.052 1.034 4.163a5.127 5.127 0 0 1 -3.328 6.242l-1.286.359a4.745 4.745 0 0 1 -5.674-3.275z" fill="#ffb27d" transform="translate(-1348.009 -607.906)"/><path d="m1787.2 855.3-1.335-3.024v-.019a3.239 3.239 0 0 1 -.072-.365c-.007-.051-.013-.1-.018-.153a.415.415 0 0 1 0-.064.479.479 0 0 1 .681-.411 3 3 0 0 0 2.042.186l.263-.07h.008l.857-.227a3.209 3.209 0 0 0 1.674-1.079c.051-.061.1-.125.144-.19a.866.866 0 0 1 1.539.265c0 .007 0 .012.005.019l.474 3.311a1.574 1.574 0 0 1 -1.239 1.818l-.976.258-2.082.549c-.822.216-1.745.014-1.965-.804z" fill="#ffd3b6" transform="translate(-1361.465 -637.028)"/><path d="m1787.21 858.909-1.334-3.024v-.019c-.013-.071-.048-.292-.091-.582a.479.479 0 0 1 .681-.411 3 3 0 0 0 2.042.186l.263-.07h.008l.857-.227a3.209 3.209 0 0 0 1.674-1.079.841.841 0 0 1 .334.477c0 .006 0 .012.005.019l.474 3.311a1.5 1.5 0 0 1 -.866 1.675l-2.082.549c-.826.216-1.75.015-1.965-.805z" fill="#ffc197" transform="translate(-1361.47 -640.638)"/><path d="m1638.049 420.89s-1.523-11.889 3.12-9.069c6.766 4.109 20.936 7.121 23.663 8.711 2.023 1.18 12.688 5.01 13.466 5.354a2.38 2.38 0 0 1 .358 2.737 6.585 6.585 0 0 1 -3.339 3.209c-6.627 2.577-15.654-2.789-15.942-2.788-7.564.036-14.914-.809-17.051-.5-.744.103-4.275-7.654-4.275-7.654z" fill="#ffb27d" transform="translate(-1233.185 -257.185)"/><path d="m1896.252 504.094-7.487-2.723a3.862 3.862 0 0 0 -.372 2.424c.358.936 7.294 2.585 7.859.299z" fill="#ffc197" transform="translate(-1450.346 -335.197)"/><path d="m914.621 1217.315 1.49 1.21s4.076-1.462 5 3.382c0 0 .245 2.064-1.063 2.068a26.149 26.149 0 0 0 -2.62-.171c-1.852.054-3.387-.922-3.658-2.425l-.886-1.273z" fill="#ea8e50" transform="translate(-604.698 -955.894)"/><path d="m635.954 1033.678a3.047 3.047 0 0 0 1.093-2.159s-13.766-11.271-15.162-12.189a169.856 169.856 0 0 1 -15.828-15.093c-2.351-2.718-5.263-1.664-8.594-.708l-2.744.787c-3.313.95-4.174 5.584-1.456 7.835 7.655 6.341 20.39 13.473 22.772 14.971 5.915 3.721 17.493 8.142 17.493 8.142a7.334 7.334 0 0 0 2.426-1.586z" fill="#1e3d70" transform="translate(-326.2 -769.66)"/><path d="m1014.124 1757.333a10.378 10.378 0 0 0 8.46 1.18s4.127-.94 5.033 1.118c0 0-6.33 3.216-7.932 4.1a19.186 19.186 0 0 0 -3.358 2.518 1.66 1.66 0 0 1 -2.4-.185c-.278-.342-.6-.75-.946-1.223-.976-1.323-3.25-5.595-3.25-5.595z" fill="#204272" transform="translate(-688.66 -1424.07)"/><circle cx="23.358" cy="23.358" fill="#e2810e" r="23.358" transform="matrix(.70710678 -.70710678 .70710678 .70710678 277.674 241.817)"/><circle cx="23.358" cy="23.358" fill="#ffc76c" r="23.358" transform="matrix(.70710678 -.70710678 .70710678 .70710678 275.636 241.817)"/><path d="m777.847 954.632a21.282 21.282 0 1 1 15.053-6.232 21.142 21.142 0 0 1 -15.053 6.232zm0-41.294a20.012 20.012 0 1 0 20.012 20.012 20.035 20.035 0 0 0 -20.012-20.012z" fill="#ffa412" transform="translate(-469.177 -691.256)"/><path d="m858.724 975.792a3.514 3.514 0 0 0 -.05-1.236 2.566 2.566 0 0 0 -.522-1.026 4.841 4.841 0 0 0 -1.045-.922 12.781 12.781 0 0 0 -1.619-.907 33.563 33.563 0 0 1 -2.99-1.643 10.587 10.587 0 0 1 -2.236-1.82 6.231 6.231 0 0 1 -1.321-2.218 7.033 7.033 0 0 1 .568-5.319 5.915 5.915 0 0 1 1.649-1.832 7.383 7.383 0 0 1 2.361-1.124 9.844 9.844 0 0 1 2.948-.34l.416-3.508 2.823.335-.422 3.557a8.832 8.832 0 0 1 2.657 1.13 6.674 6.674 0 0 1 2.974 4.268 8.883 8.883 0 0 1 .117 3.014l-5.1-.605a4.327 4.327 0 0 0 -.524-3.046 3.006 3.006 0 0 0 -2.223-1.253 3.82 3.82 0 0 0 -1.394.059 2.59 2.59 0 0 0 -1.016.494 2.416 2.416 0 0 0 -.655.845 3.551 3.551 0 0 0 -.311 1.11 3.254 3.254 0 0 0 .046 1.119 2.4 2.4 0 0 0 .5.982 4.859 4.859 0 0 0 1.054.923 16.448 16.448 0 0 0 1.683.973q1.635.842 2.959 1.681a10.721 10.721 0 0 1 2.225 1.835 6.016 6.016 0 0 1 1.549 5.046 6.434 6.434 0 0 1 -.81 2.53 5.847 5.847 0 0 1 -1.656 1.815 7.134 7.134 0 0 1 -2.374 1.082 10.644 10.644 0 0 1 -2.963.313l-.387 3.262-2.806-.333.385-3.245a11.927 11.927 0 0 1 -2.756-.975 7.557 7.557 0 0 1 -2.258-1.706 6.763 6.763 0 0 1 -1.417-2.537 8.232 8.232 0 0 1 -.235-3.452l5.1.6a5.072 5.072 0 0 0 .1 1.981 3.282 3.282 0 0 0 .726 1.349 3.185 3.185 0 0 0 1.166.8 5.455 5.455 0 0 0 1.4.357 4.557 4.557 0 0 0 1.481-.04 3.038 3.038 0 0 0 1.12-.466 2.42 2.42 0 0 0 .741-.818 2.948 2.948 0 0 0 .342-1.089z" fill="#ffa412" transform="translate(-547.125 -727.521)"/><path d="m721.86 1358.786s-2.034 4.691-6.73 3.828a131.031 131.031 0 0 1 -16.155-16.134 36.508 36.508 0 0 1 -5.02-7.845c-4.359-10.091-16.123-25.142-23.6-32.771l18.713-6.77s5.994 12.057 13.969 26.868c5.746 10.672 12.521 22.773 18.823 32.824z" fill="#2b478b" transform="translate(-394.435 -1026.794)"/><path d="m703.036 1325.963-4.06 20.517a36.508 36.508 0 0 1 -5.02-7.845c-4.359-10.091-16.123-25.142-23.6-32.771l18.713-6.77s5.991 12.058 13.967 26.869z" fill="#233862" transform="translate(-394.435 -1026.794)"/><path d="m757.171 1764.425s-.2 3.743 4.333 4.242c0 0 2.808.072 2.816 2.454h-13.664s-.121-.973-.214-3.031c-.071-1.58 1.532-5.712 1.532-5.712z" fill="#204272" transform="translate(-463.866 -1428.439)"/><path d="m646.412 1293.683s8.337 9.16 13.629 25.664c2.879 8.979-5.277 31.555-6.867 39.4 0 0-5.472.464-9.213-.982 0 0-.284-16.2 1.9-28.687 1.224-6.988-10.976-14.946-16.308-27.573-3.627-8.59.785-8.444 6.208-8.651z" fill="#2b478b" transform="translate(-357.919 -1021.383)"/><path d="m600.436 918.225c-4.638 2.619-14.134.2-14.134.2a13.227 13.227 0 0 0 2.1-11.508l3.642 1.85 3.912 1.987a32.422 32.422 0 0 1 .429 3.506c.045.58.085 1.228.113 1.936a12.164 12.164 0 0 1 3.938 2.029z" fill="#ffb07b" transform="translate(-321.566 -686.793)"/><path d="m594.671 1017.805c0 .815-.939 1.206-1.139 1.245-1.871.342-7.094 2.374-11.8 2.84a37.736 37.736 0 0 1 -11.682-.79c-.535-.108-1.791-.446-1.881-.959-.112-.56-15.589-31.551-3.557-44.864.283-.312 2.658.25 4.829.766a8.917 8.917 0 0 0 5.489-.448l2.037 1.072c2.5 1.394 7.234 6.346 7.788 10.231.281 1.976 1.411 3.439 1.738 5.178q.182.965.372 1.883.37 1.8.762 3.429c.707 2.939 1.455 5.469 2.188 7.654.78 2.321 1.546 4.251 2.23 5.865.887 2.094 1.637 3.659 2.105 4.857a5.984 5.984 0 0 1 .521 2.041z" fill="#aec3ff" transform="translate(-298.793 -745.978)"/><path d="m624.789 1084.307a60.81 60.81 0 0 1 -29.414-30.059s17.751 6.548 22.129 8.253q.37 1.8.762 3.429c.708 2.939 1.455 5.469 2.188 7.654.781 2.321 1.546 4.251 2.23 5.865.887 2.095 1.637 3.659 2.105 4.858z" fill="#91b0f2" transform="translate(-329.432 -814.521)"/><path d="m906.137 1234.565 1.888.692a4.038 4.038 0 0 1 6.135 1.675s.851 1.9-.5 2.312-.858.024-2.752.655-3.76.177-4.476-1.177l-1.283-.942z" fill="#ffb07b" transform="translate(-597.997 -970.744)"/><path d="m620.024 1042.517c.7-1.821 1.017-2.646 1.017-2.646s-14.266-11.628-15.719-12.625c-.99-.679-10.851-8.051-15.659-13.8a10.062 10.062 0 0 0 -9.782-3.389l-2.995.628a4.454 4.454 0 0 0 -1.986 7.74c7.9 6.773 21.225 14.628 23.709 16.262 6.167 4.056 19.809 9.74 19.809 9.74a3.512 3.512 0 0 0 1.606-1.91z" fill="#aec3ff" transform="translate(-310.33 -776.027)"/><path d="m613.064 926.315c-4.561.256-7.527-3.51-7.527-3.51a36.211 36.211 0 0 0 3.187-1.983l3.912 1.987a32.426 32.426 0 0 1 .428 3.506z" fill="#ea8e50" transform="translate(-338.242 -698.845)"/><path d="m587.1 851.084s-6.911 4.96-9.933.608-5.95-6.642-1.665-9.992 6.3-2.292 7.667-1.085 5.646 9.067 3.931 10.469z" fill="#ffb07b" transform="translate(-310.33 -628.298)"/><path d="m543.256 800.108a11.127 11.127 0 0 0 -.805-2.85s-.434 1.8-3.717 1.549-8.487.323-10.221 4.064c-.11.238-.209.483-.3.734a8.658 8.658 0 0 1 -.39-2.072 6.387 6.387 0 0 0 0 3.625c-.009.059-.017.118-.026.176a7.313 7.313 0 0 0 -1.333 2.517 2.281 2.281 0 0 1 1.227-1.091c-.015 2.911 1.166 5.757 3.238 6.6 3.03 1.239 3.006.294 6.054 2.315 0 0 .818-1.014.26-1.7s-2.664-1.672-1.487-2.664 1.611.124 2.044-.557-1.734-2.664 1.053-4.522 4.647-4.452 4.403-6.124z" fill="#233862" transform="translate(-269.692 -591.72)"/><path d="m2577.189 1180.238a1.877 1.877 0 0 1 .659 1.047 8.063 8.063 0 0 1 -.047 2.073c-.092 1.437 1.9 3.548 3.181 4.282s0-3.058 0-3.976a5.472 5.472 0 0 0 -.673-3.67c-1.04-2.08-3.12.244-3.12.244z" fill="#ffb27d" transform="translate(-2047.592 -922.788)"/><path d="m2359.2 881.241a5.976 5.976 0 0 1 9-5.626c.085.052.169.1.252.158 6.2 3.989 18.1 20.213 19.864 23.442 1.836 3.364 4.265 17.728 4.265 17.728s-3.357 1.228-4.927-.046c0 0-5.252-12.456-7.181-14.593-2.033-2.252-20.845-12.65-21.023-17.062-.05-1.167-.139-2.57-.25-4.001z" fill="#ed7d2b" transform="translate(-1858.585 -658.906)"/><path d="m2581.631 1735.477s2.5 2.28 2.011 3.9-2.742 2.7-3.047 4.681-1.524 3.061-2.621 3.061h-5.231s-.807-1.394 1.143-1.814 2.686-2.747 2.564-4.908a38.141 38.141 0 0 1 .183-5.041l4.145-.96z" fill="#224275" transform="translate(-2043.594 -1404.185)"/><path d="m2314.46 1773.764s.449 5.19-.648 5.73l-14.04-.029s0-1.62 2.255-1.981 6.217-1.68 6.887-4.621 5.546.901 5.546.901z" fill="#224275" transform="translate(-1807.081 -1436.573)"/><path d="m2321.08 1227.559s.741 9.1 1.611 20.033c1.183 14.855 2.606 33.1 2.747 36.56.243 6 1.219 15.6 1.219 15.6s2.315 2.281 6.948 1.32a154.941 154.941 0 0 0 5.308-28.209c.018-.238.036-.477.055-.717 1.1-14.764 2.8-45.852 2.8-45.852z" fill="#aec3ff" transform="translate(-1825.555 -963.682)"/><path d="m2321.08 1227.559s.741 9.1 1.611 20.033l16.222 25.275c.018-.238.036-.477.055-.717 1.1-14.764 2.8-45.852 2.8-45.852z" fill="#91b0f2" transform="translate(-1825.555 -963.682)"/><path d="m2346.5 1205.175s13.348 32.948 22.125 48.431 11.52 19.8 11.52 19.8 5.028-1.981 5.485-3.331c0 0-3.356-29.892-9.234-37.179-3.321-4.118-7.223-16.474-7.406-20.8s-1.188-12.873-1.188-12.873z" fill="#aec3ff" transform="translate(-1847.594 -940.217)"/><path d="m2340.6 801.673s-8.943 4.536-14.181 3.023a11.518 11.518 0 0 1 2.032-1.944 2.874 2.874 0 0 0 1.114-2.737q-.078-.489-.133-.921a19.432 19.432 0 0 1 -.217-3.039l3.371-2.545 3.251-2.688a13.314 13.314 0 0 0 4.763 10.851z" fill="#ffb27d" transform="translate(-1830.184 -586.14)"/><path d="m2320.091 900.229a36.852 36.852 0 0 1 -11.03 4.751c-4.719 1.119-10.518.789-12.459 1.084a.8.8 0 0 1 -.566-.143c-.153-.078-1.009-5.834-1.866-13.1-.038-.292-.078-.587-.094-.883l-.012-.1c-.334-2.84-.626-5.823-.88-8.814-.207-2.327-.377-4.628-.495-6.79-.149-2.7-.211-5.188-.149-7.232.027-.934.082-1.774.165-2.5a17.719 17.719 0 0 1 4.192-9.547l2.2-1.768a7.67 7.67 0 0 0 5.1-1.413c1.932-1.271 4.015-2.639 4.409-2.41 2.959 1.62 5.37 5.816 7.091 11.358a63.226 63.226 0 0 1 2.229 10.643c.156 1.19.288 2.41.39 3.625.02.225.036.45.054.671.232 3.323.611 6.436 1.032 9.216.566 3.75 1.209 6.891 1.665 9.1.229 1.126.4 2 .506 2.621.094.548-.996 1.328-1.482 1.631z" fill="#f99746" transform="translate(-1800.791 -638.606)"/><path d="m2353.7 810.163a11.968 11.968 0 0 1 -6.521 5.454 35.577 35.577 0 0 1 -.275-5.737l3.429.152z" fill="#ed985f" transform="translate(-1847.925 -602.663)"/><path d="m2322.726 732.163s8.08 3.3 10.056-1.675 4.349-7.908-.727-10.229-6.838-.815-7.908.687-3.472 10.229-1.421 11.217z" fill="#ffb27d" transform="translate(-1826.286 -523.926)"/><path d="m2333.662 699.041c.1-.07.288-.1.685-.031a1.627 1.627 0 0 0 -.684-.374 2.019 2.019 0 0 0 -.907-2.042 1.2 1.2 0 0 1 .374.978c-.828-1.363-2.965-2.708-9.517-3.681-8.635-1.281-7.089 4.791-6.14 5.691s4.121-.239 6.129.394 1.717 3.678 2.318 4.243.493-.215 1.529-.423.768 1.368.264 2.317.479 2.58.479 2.58l1.626-1.1c1.627-1.1 4.223-6.768 3.923-8.172-.026-.128-.052-.253-.079-.38z" fill="#2c3a64" transform="translate(-1821.774 -501.951)"/><path d="m2307.7 984.609s-7.287 5.544-15.01 6.759c-.149-2.7-.211-5.188-.149-7.232z" fill="#ed7d2b" transform="translate(-1800.791 -753.736)"/><path d="m2026.832 802.916c-.073-.152-.022-5.336-2.583-5.751-1.671-.27-6-1.426-5.96.9.016.914 5.435 6.555 5.435 6.555z" fill="#ffb27d" transform="translate(-1563.046 -591.184)"/><path d="m2104.027 847.923a5.976 5.976 0 0 1 -3.735 9.938q-.148.016-.3.028c-7.347.6-28.249-5.39-31.141-6.989-4.8-2.656-13.034-11.057-13.034-11.057s1.921-3.015 3.942-2.956c0 0 11.02 7.019 14.965 7.859 2.662.567 23.846-3.243 26.668.153.75.901 1.677 1.955 2.635 3.024z" fill="#f99746" transform="translate(-1595.585 -626.076)"/><path d="m2602.65 1197.414s.392.864.67 1.536.431 1.927.217 1.8a6.4 6.4 0 0 1 -1.223-1.471c-.245-.451.336-1.865.336-1.865z" fill="#ffb27d" transform="translate(-2069.322 -938.64)"/><g fill="#afcdfb" opacity=".5" transform="translate(338.957 243.165)"><path d="m1270 1114.9s-2.541-21.284-13.447-33.985a2.38 2.38 0 0 0 -4.177 1.611v.113c.143 3.796 12.354 19.811 17.624 32.261z" opacity=".5" transform="translate(-1237.982 -1080.088)"/><path d="m1177.54 1134.911s-10.868-26.6-29.43-38.368a2.525 2.525 0 0 0 -3.424.647c-.494.719-.716 1.843-.162 3.6 1.476 4.677 22.182 20.427 33.016 34.121z" opacity=".5" transform="translate(-1144.199 -1094.005)"/></g><path d="m960.681 1374.193c1.068-11.088 19.52-10.818 19.52-10.818s15.3 16.485 18.909 16.326-10.33-16.649-10.33-16.649c6.733-1.827 25.607 3.6 25.607 3.6s2.576 21.83 6.035 20.787-3.267-19.213-3.267-19.213c6.963.861 14.461 7.539 14.461 7.539 9.87 11.273-5.116 23.365-5.116 23.365a35.735 35.735 0 0 0 7.158 15.37 25.913 25.913 0 0 1 2.841 3.934l-1.806.307q-.345-.689-.729-1.319a.011.011 0 0 0 0-.007l-.011-.018c-.171-.258-.416-.625-.72-1.071s0 0 0 0c-.735-.986-1.244-1.721-1.578-2.257v-.005c-2.23-3.11-5.363-7.123-7.11-7.779a3.555 3.555 0 0 0 .246-.894l-.246.894c-1.965 7.151-17.236 10.884-26.149 10.582s-5.572-3.37-1.6-8.1 13.861-5.345 16.469-7.379-1.851-2.866-7.517-1.448-7.561 7.648-16.686 10.109-19.159-13.784-19.159-13.784c6.742.9 17.625-4.588 17.691-6.871s-16.9.829-19.664.617-8.317-4.73-7.249-15.818z" fill="#afcdfb" opacity=".5" transform="translate(-646.022 -1081.916)"/><path d="m1917.94 1358.439c.178-8.195-13.328-9.592-13.328-9.592s-12.605 10.723-15.228 10.3 8.987-11.272 8.987-11.272c-4.762-1.917-19.022.416-19.022.416s-3.769 15.729-6.206 14.668 4.048-13.757 4.048-13.757c-5.162.027-11.218 4.259-11.218 4.259-8.186 7.385 1.719 17.515 1.719 17.515a26.3 26.3 0 0 1 -6.559 10.613 19.075 19.075 0 0 0 -2.416 2.629l1.293.381q.312-.474.646-.9a.009.009 0 0 1 0-.005l.01-.012c.147-.174.358-.421.619-.72.623-.657 1.058-1.15 1.348-1.513 1.9-2.079 4.535-4.741 5.867-5.07a2.61 2.61 0 0 1 -.1-.675l.1.675c.818 5.4 11.654 9.443 18.193 9.992s4.363-1.981 1.873-5.781-9.666-5.1-11.4-6.815 1.6-1.935 5.618-.409 4.864 6.242 11.319 8.829 15.191-8.417 15.191-8.417c-5 .074-12.482-4.876-12.333-6.55s12.278 2.066 14.315 2.15 6.486-2.744 6.664-10.939z" fill="#afcdfb" opacity=".5" transform="translate(-1424.701 -1068.425)"/><path d="m1203.755 1399.042v10.37a3.706 3.706 0 0 1 -3.774 3.61h-7.769a3.706 3.706 0 0 1 -3.774-3.61v-10.37a3.706 3.706 0 0 1 3.774-3.61h7.769a3.706 3.706 0 0 1 3.774 3.61z" fill="#ed7d2b" transform="translate(-843.596 -1110.314)"/><path d="m1203.755 1399.042v5.777a3.707 3.707 0 0 1 -3.774 3.61h-7.769a3.707 3.707 0 0 1 -3.774-3.61v-5.777a3.706 3.706 0 0 1 3.774-3.61h7.769a3.706 3.706 0 0 1 3.774 3.61z" fill="#f99746" transform="translate(-843.596 -1110.314)"/><path d="m1349.588 1210.042a36.79 36.79 0 0 1 -3.184 14.984c-6.147 13.84-20.521 23.609-37.164 23.609h-11.535c-.692 0-1.378-.016-2.062-.05a41.227 41.227 0 0 1 -22.552-8.019 39.626 39.626 0 0 1 -10.105-10.927 36.908 36.908 0 0 1 -2.443-34.583c6.145-13.838 20.519-23.607 37.162-23.607h11.535a40.764 40.764 0 0 1 35.294 19.95 36.975 36.975 0 0 1 5.054 18.643z" fill="#ed7d2b" transform="translate(-903.348 -916.13)"/><path d="m1673.477 1593.9-3.764 23.374a2.885 2.885 0 0 0 2.886 3.583h9.89a5.7 5.7 0 0 0 5.033-2.935l15.372-29.328z" fill="#ed7d2b" transform="translate(-1260.757 -1277.779)"/><path d="m1330.345 1638.415h-9.891a5.7 5.7 0 0 1 -5.034-2.936l-9.507-16.054-6.265-10.579 30.564 3.013 1.1 8.4.989 7.531.925 7.039a2.886 2.886 0 0 1 -2.881 3.586z" fill="#ed7d2b" transform="translate(-940.012 -1295.336)"/><path d="m1343.514 1205.581c-8.144 22.4-15.851 34.379-47.066 35.421q-.908.03-1.795.053a207.743 207.743 0 0 1 -21.563-.488c-1.4-.11-2.685-.229-3.841-.349l-6.265-10.579a36.908 36.908 0 0 1 -2.443-34.583c6.145-13.838 20.519-23.607 37.162-23.607h11.535a40.764 40.764 0 0 1 35.294 19.95 30.271 30.271 0 0 1 -1.018 14.182z" fill="#f99746" transform="translate(-903.348 -916.13)"/><path d="m1402.579 1081.994h-15.869c-1.6 0-2.9-.929-2.9-2.076v-20.725a1.62 1.62 0 0 1 .317-.955 3.582 3.582 0 0 1 4.334-.7c6.025 3.267 15.9 10.366 17.007 22.238.115 1.2-1.213 2.218-2.889 2.218z" fill="#f99746" transform="translate(-1012.978 -817.005)"/><path d="m1387.355 1089.321h-.645c-1.6 0-2.9-.929-2.9-2.076v-20.725a1.62 1.62 0 0 1 .317-.955 2.031 2.031 0 0 1 .2.183 25.3 25.3 0 0 1 7.016 20.984c-.206 1.468-1.928 2.589-3.988 2.589z" fill="#ed7d2b" transform="translate(-1012.978 -824.332)"/><path d="m1347.571 1333.533a2.367 2.367 0 1 1 2.364 2.261 2.315 2.315 0 0 1 -2.364-2.261z" fill="#2b478b" transform="translate(-981.559 -1054.689)"/><path d="m1705.736 1797.227v2.417a.823.823 0 0 0 .19.52 1.1 1.1 0 0 0 .521.349 1.225 1.225 0 0 0 .2.048 1.286 1.286 0 0 0 .2.015h45.846a1.047 1.047 0 0 0 1.108-.884c0-.016 0-.032 0-.048v-2.417c0-.016 0-.032 0-.048a1.047 1.047 0 0 0 -1.108-.884h-45.846a1.286 1.286 0 0 0 -.2.015 1.156 1.156 0 0 0 -.2.048 1.1 1.1 0 0 0 -.521.349.823.823 0 0 0 -.19.52z" fill="#ffc76c" transform="translate(-1292.074 -1457.848)"/><path d="m1874.957 1800.575h24.561a.97.97 0 0 0 .989-.884c0-.016 0-.032 0-.048v-2.417c0-.016 0-.032 0-.048a.97.97 0 0 0 -.989-.884h-21.545a7.5 7.5 0 0 1 -3.016 4.281z" fill="#ffae39" transform="translate(-1438.783 -1457.848)"/><g fill="#ffa412"><path d="m0 0h.521v4.28h-.521z" transform="matrix(-1 0 0 -1 419.762 342.727)"/><path d="m0 0h.521v4.28h-.521z" transform="matrix(-1 0 0 -1 421.525 342.727)"/><path d="m0 0h.521v4.28h-.521z" transform="matrix(-1 0 0 -1 423.64 342.727)"/><path d="m0 0h.521v4.28h-.521z" transform="matrix(-1 0 0 -1 426.882 342.727)"/><path d="m0 0h.521v4.28h-.521z" transform="matrix(-1 0 0 -1 430.311 342.727)"/><path d="m0 0h.521v4.28h-.521z" transform="matrix(-1 0 0 -1 435.566 342.727)"/><path d="m0 0h.521v4.28h-.521z" transform="matrix(-1 0 0 -1 440.488 342.727)"/><path d="m0 0h.521v4.28h-.521z" transform="matrix(-1 0 0 -1 444.882 342.727)"/><path d="m0 0h.521v4.28h-.521z" transform="matrix(-1 0 0 -1 418.083 342.727)"/><path d="m0 0h.521v4.28h-.521z" transform="matrix(-1 0 0 -1 416.974 342.727)"/><path d="m0 0h.521v4.28h-.521z" transform="matrix(-1 0 0 -1 415.903 342.727)"/><path d="m1712.6 1796.31v4.25a1.287 1.287 0 0 0 .2.015h.326v-4.28h-.326a1.287 1.287 0 0 0 -.2.015z" transform="translate(-1298.028 -1457.848)"/><path d="m1707.165 1797.117v3.457a1.1 1.1 0 0 0 .521.349v-4.154a1.1 1.1 0 0 0 -.521.348z" transform="translate(-1293.313 -1458.258)"/></g><path d="m1742.581 1765.055v2.417a.822.822 0 0 0 .19.52 1.1 1.1 0 0 0 .521.349 1.218 1.218 0 0 0 .2.048 1.289 1.289 0 0 0 .2.015h45.846a1.047 1.047 0 0 0 1.108-.884c0-.016 0-.032 0-.048v-2.417c0-.016 0-.032 0-.048a1.047 1.047 0 0 0 -1.108-.884h-45.848c-.029 0-.059 0-.088 0h-.037-.041-.03a1.255 1.255 0 0 0 -.2.048l-.029.01-.028.01-.056.023-.032.015-.028.014-.052.028-.057.035-.043.029-.028.021a.9.9 0 0 0 -.08.069l-.022.022-.021.022c-.014.016-.028.032-.041.048a.822.822 0 0 0 -.196.538z" fill="#ffc76c" transform="translate(-1324.017 -1429.956)"/><path d="m1911.8 1768.4h24.561a.969.969 0 0 0 .989-.884c0-.016 0-.032 0-.048v-2.417c0-.016 0-.032 0-.048a.969.969 0 0 0 -.989-.884h-21.541c-.01.035-.02.07-.03.106a7.488 7.488 0 0 1 -2.99 4.175z" fill="#ffae39" transform="translate(-1470.727 -1429.956)"/><path d="m0 0h.521v4.28h-.521z" fill="#ffa412" transform="matrix(-1 0 0 -1 424.664 338.447)"/><path d="m0 0h.521v4.28h-.521z" fill="#ffa412" transform="matrix(-1 0 0 -1 426.427 338.447)"/><path d="m0 0h.521v4.28h-.521z" fill="#ffa412" transform="matrix(-1 0 0 -1 428.543 338.447)"/><path d="m0 0h.521v4.28h-.521z" fill="#ffa412" transform="matrix(-1 0 0 -1 431.785 338.447)"/><path d="m0 0h.521v4.28h-.521z" fill="#ffa412" transform="matrix(-1 0 0 -1 435.213 338.447)"/><path d="m0 0h.521v4.28h-.521z" fill="#ffa412" transform="matrix(-1 0 0 -1 440.469 338.447)"/><path d="m0 0h.521v4.28h-.521z" fill="#ffa412" transform="matrix(-1 0 0 -1 445.39 338.447)"/><path d="m0 0h.521v4.28h-.521z" fill="#ffa412" transform="matrix(-1 0 0 -1 449.784 338.447)"/><path d="m0 0h.521v4.28h-.521z" fill="#ffa412" transform="matrix(-1 0 0 -1 422.985 338.447)"/><path d="m0 0h.521v4.28h-.521z" fill="#ffa412" transform="matrix(-1 0 0 -1 421.876 338.447)"/><path d="m0 0h.521v4.28h-.521z" fill="#ffa412" transform="matrix(-1 0 0 -1 420.804 338.447)"/><path d="m1749.449 1764.138v4.25a1.3 1.3 0 0 0 .2.015h.326v-4.28h-.326a1.289 1.289 0 0 0 -.2.015z" fill="#ffa412" transform="translate(-1329.971 -1429.956)"/><path d="m1744.01 1764.943v3.457a1.107 1.107 0 0 0 .521.349v-4.154a1.1 1.1 0 0 0 -.521.348z" fill="#ffa412" transform="translate(-1325.256 -1430.365)"/><path d="m1724.776 1733.677v2.417a.823.823 0 0 0 .19.52 1.1 1.1 0 0 0 .521.349 1.179 1.179 0 0 0 .2.048 1.3 1.3 0 0 0 .2.015h45.846a1.268 1.268 0 0 0 .511-.106.95.95 0 0 0 .593-.736c0-.014 0-.028 0-.042s0-.032 0-.048v-2.417c0-.016 0-.032 0-.048a1.047 1.047 0 0 0 -1.108-.884h-45.846a1.286 1.286 0 0 0 -.2.015 1.2 1.2 0 0 0 -.2.048 1.105 1.105 0 0 0 -.521.349.824.824 0 0 0 -.186.52z" fill="#ffc76c" transform="translate(-1308.581 -1402.753)"/><path d="m1894 1737.025h24.561a1.026 1.026 0 0 0 .456-.106.935.935 0 0 0 .529-.736c0-.014 0-.028 0-.042s0-.032 0-.048v-2.417c0-.016 0-.032 0-.048a.97.97 0 0 0 -.989-.884h-21.545a7.512 7.512 0 0 1 -2.865 4.174z" fill="#ffae39" transform="translate(-1455.29 -1402.753)"/><path d="m0 0h.521v4.28h-.521z" fill="#ffa412" transform="matrix(-1 0 0 -1 422.294 334.272)"/><path d="m0 0h.521v4.28h-.521z" fill="#ffa412" transform="matrix(-1 0 0 -1 424.058 334.272)"/><path d="m0 0h.521v4.28h-.521z" fill="#ffa412" transform="matrix(-1 0 0 -1 426.173 334.272)"/><path d="m0 0h.521v4.28h-.521z" fill="#ffa412" transform="matrix(-1 0 0 -1 429.415 334.272)"/><path d="m0 0h.521v4.28h-.521z" fill="#ffa412" transform="matrix(-1 0 0 -1 432.844 334.272)"/><path d="m0 0h.521v4.28h-.521z" fill="#ffa412" transform="matrix(-1 0 0 -1 438.099 334.272)"/><path d="m0 0h.521v4.28h-.521z" fill="#ffa412" transform="matrix(-1 0 0 -1 443.02 334.272)"/><path d="m0 0h.521v4.28h-.521z" fill="#ffa412" transform="matrix(-1 0 0 -1 447.415 334.272)"/><path d="m0 0h.521v4.28h-.521z" fill="#ffa412" transform="matrix(-1 0 0 -1 420.616 334.272)"/><path d="m0 0h.521v4.28h-.521z" fill="#ffa412" transform="matrix(-1 0 0 -1 419.506 334.272)"/><path d="m0 0h.521v4.28h-.521z" fill="#ffa412" transform="matrix(-1 0 0 -1 418.435 334.272)"/><path d="m1731.644 1732.76v4.25a1.286 1.286 0 0 0 .2.015h.326v-4.28h-.326a1.271 1.271 0 0 0 -.2.015z" fill="#ffa412" transform="translate(-1314.535 -1402.753)"/><path d="m1726.2 1733.566v3.457a1.1 1.1 0 0 0 .52.349v-4.154a1.1 1.1 0 0 0 -.52.348z" fill="#ffa412" transform="translate(-1309.82 -1403.162)"/><path d="m1716.522 1701.506v2.417a.824.824 0 0 0 .19.52 1.1 1.1 0 0 0 .521.349 1.19 1.19 0 0 0 .2.048 1.272 1.272 0 0 0 .2.015h45.846a1.047 1.047 0 0 0 1.108-.884c0-.016 0-.032 0-.048v-2.417q0-.024 0-.048a1.023 1.023 0 0 0 -.977-.877 1.281 1.281 0 0 0 -.131-.007h-45.846a1.3 1.3 0 0 0 -.2.015 1.2 1.2 0 0 0 -.2.048 1.1 1.1 0 0 0 -.521.349.823.823 0 0 0 -.19.52z" fill="#ffc76c" transform="translate(-1301.425 -1374.862)"/><path d="m1885.743 1704.854h24.557a.969.969 0 0 0 .989-.884c0-.016 0-.032 0-.048v-2.417c0-.016 0-.032 0-.048a.962.962 0 0 0 -.872-.877 1.02 1.02 0 0 0 -.117-.007h-21.545v.007a7.5 7.5 0 0 1 -3.012 4.274z" fill="#ffae39" transform="translate(-1448.134 -1374.862)"/><path d="m0 0h.521v4.28h-.521z" fill="#ffa412" transform="matrix(-1 0 0 -1 421.197 329.992)"/><path d="m0 0h.521v4.28h-.521z" fill="#ffa412" transform="matrix(-1 0 0 -1 422.96 329.992)"/><path d="m0 0h.521v4.28h-.521z" fill="#ffa412" transform="matrix(-1 0 0 -1 425.075 329.992)"/><path d="m0 0h.521v4.28h-.521z" fill="#ffa412" transform="matrix(-1 0 0 -1 428.317 329.992)"/><path d="m0 0h.521v4.28h-.521z" fill="#ffa412" transform="matrix(-1 0 0 -1 431.746 329.992)"/><path d="m0 0h.521v4.28h-.521z" fill="#ffa412" transform="matrix(-1 0 0 -1 437.002 329.992)"/><path d="m0 0h.521v4.28h-.521z" fill="#ffa412" transform="matrix(-1 0 0 -1 441.923 329.992)"/><path d="m0 0h.521v4.28h-.521z" fill="#ffa412" transform="matrix(-1 0 0 -1 446.317 329.992)"/><path d="m0 0h.521v4.28h-.521z" fill="#ffa412" transform="matrix(-1 0 0 -1 419.518 329.992)"/><path d="m0 0h.521v4.28h-.521z" fill="#ffa412" transform="matrix(-1 0 0 -1 418.409 329.992)"/><path d="m0 0h.521v4.28h-.521z" fill="#ffa412" transform="matrix(-1 0 0 -1 417.338 329.992)"/><path d="m1723.389 1700.587v4.25a1.308 1.308 0 0 0 .2.015h.325v-4.28h-.325a1.277 1.277 0 0 0 -.2.015z" fill="#ffa412" transform="translate(-1307.378 -1374.86)"/><path d="m1717.95 1701.394v3.457a1.1 1.1 0 0 0 .521.349v-4.155a1.106 1.106 0 0 0 -.521.349z" fill="#ffa412" transform="translate(-1302.663 -1375.27)"/><path d="m1741.857 1669.385v2.417a.823.823 0 0 0 .19.52 1.1 1.1 0 0 0 .521.349 1.194 1.194 0 0 0 .2.048l.064.008h.036.036 45.9a1.047 1.047 0 0 0 1.108-.884c0-.016 0-.032 0-.048v-2.417c0-.016 0-.032 0-.048s0-.026 0-.039a1 1 0 0 0 -.832-.816l-.034-.007a1.319 1.319 0 0 0 -.24-.022h-45.846c-.034 0-.067 0-.1 0h-.044l-.052.007a1.194 1.194 0 0 0 -.2.048 1.1 1.1 0 0 0 -.521.349.823.823 0 0 0 -.186.535z" fill="#ffc76c" transform="translate(-1323.39 -1347.014)"/><path d="m1911.079 1672.733h24.561a.97.97 0 0 0 .989-.884c0-.016 0-.032 0-.048v-2.417c0-.016 0-.032 0-.048s0-.026 0-.039a.957.957 0 0 0 -.768-.821l-.042-.008a1.04 1.04 0 0 0 -.176-.015h-21.543c0 .01-.005.02-.009.031a7.5 7.5 0 0 1 -3 4.243z" fill="#ffae39" transform="translate(-1470.099 -1347.014)"/><path d="m0 0h.521v4.28h-.521z" fill="#ffa412" transform="matrix(-1 0 0 -1 424.567 325.719)"/><path d="m0 0h.521v4.28h-.521z" fill="#ffa412" transform="matrix(-1 0 0 -1 426.33 325.719)"/><path d="m0 0h.521v4.28h-.521z" fill="#ffa412" transform="matrix(-1 0 0 -1 428.445 325.719)"/><path d="m0 0h.521v4.28h-.521z" fill="#ffa412" transform="matrix(-1 0 0 -1 431.687 325.719)"/><path d="m0 0h.521v4.28h-.521z" fill="#ffa412" transform="matrix(-1 0 0 -1 435.116 325.719)"/><path d="m0 0h.521v4.28h-.521z" fill="#ffa412" transform="matrix(-1 0 0 -1 440.371 325.719)"/><path d="m0 0h.521v4.28h-.521z" fill="#ffa412" transform="matrix(-1 0 0 -1 445.293 325.719)"/><path d="m0 0h.521v4.28h-.521z" fill="#ffa412" transform="matrix(-1 0 0 -1 449.687 325.719)"/><path d="m0 0h.521v4.28h-.521z" fill="#ffa412" transform="matrix(-1 0 0 -1 422.888 325.719)"/><path d="m0 0h.521v4.28h-.521z" fill="#ffa412" transform="matrix(-1 0 0 -1 421.779 325.719)"/><path d="m0 0h.521v4.28h-.521z" fill="#ffa412" transform="matrix(-1 0 0 -1 420.708 325.719)"/><path d="m1748.725 1668.466v4.25a1.292 1.292 0 0 0 .2.015h.325v-4.28h-.325a1.261 1.261 0 0 0 -.2.015z" fill="#ffa412" transform="translate(-1329.344 -1347.012)"/><path d="m1743.286 1669.272v3.457a1.1 1.1 0 0 0 .521.349v-4.154a1.1 1.1 0 0 0 -.521.348z" fill="#ffa412" transform="translate(-1324.629 -1347.422)"/><path d="m1742.581 1637.441v2.417a.823.823 0 0 0 .19.52 1.1 1.1 0 0 0 .521.348 1.137 1.137 0 0 0 .158.04l.044.008a1.289 1.289 0 0 0 .2.015h45.846a1.206 1.206 0 0 0 .143-.008l.055-.007a1.008 1.008 0 0 0 .91-.868c0-.016 0-.032 0-.048v-2.417c0-.016 0-.032 0-.048a1.047 1.047 0 0 0 -1.108-.884h-45.85-.088-.037-.041-.03a1.182 1.182 0 0 0 -.2.048l-.029.01-.028.01-.056.023c-.02.009-.04.018-.06.029l-.052.028-.057.036c-.015.009-.029.019-.043.029l-.028.021a.937.937 0 0 0 -.08.069l-.022.022-.021.023c-.014.015-.028.031-.041.047a.822.822 0 0 0 -.196.537z" fill="#ffc76c" transform="translate(-1324.017 -1319.32)"/><path d="m1911.8 1640.79h24.619l.063-.006a.959.959 0 0 0 .867-.876c0-.016 0-.032 0-.048v-2.417c0-.016 0-.032 0-.048a.969.969 0 0 0 -.989-.884h-21.54c-.01.035-.02.07-.03.106a7.493 7.493 0 0 1 -2.943 4.144z" fill="#ffae39" transform="translate(-1470.727 -1319.32)"/><path d="m0 0h.521v4.28h-.521z" fill="#ffa412" transform="matrix(-1 0 0 -1 424.664 321.47)"/><path d="m0 0h.521v4.28h-.521z" fill="#ffa412" transform="matrix(-1 0 0 -1 426.427 321.47)"/><path d="m0 0h.521v4.28h-.521z" fill="#ffa412" transform="matrix(-1 0 0 -1 428.543 321.47)"/><path d="m0 0h.521v4.28h-.521z" fill="#ffa412" transform="matrix(-1 0 0 -1 431.785 321.47)"/><path d="m0 0h.521v4.28h-.521z" fill="#ffa412" transform="matrix(-1 0 0 -1 435.213 321.47)"/><path d="m0 0h.521v4.28h-.521z" fill="#ffa412" transform="matrix(-1 0 0 -1 440.469 321.47)"/><path d="m0 0h.521v4.28h-.521z" fill="#ffa412" transform="matrix(-1 0 0 -1 445.39 321.47)"/><path d="m0 0h.521v4.28h-.521z" fill="#ffa412" transform="matrix(-1 0 0 -1 449.784 321.47)"/><path d="m0 0h.521v4.28h-.521z" fill="#ffa412" transform="matrix(-1 0 0 -1 422.985 321.47)"/><path d="m0 0h.521v4.28h-.521z" fill="#ffa412" transform="matrix(-1 0 0 -1 421.876 321.47)"/><path d="m0 0h.521v4.28h-.521z" fill="#ffa412" transform="matrix(-1 0 0 -1 420.804 321.47)"/><path d="m1749.449 1636.525v4.25a1.289 1.289 0 0 0 .2.015h.326v-4.28h-.326a1.258 1.258 0 0 0 -.2.015z" fill="#ffa412" transform="translate(-1329.971 -1319.32)"/><path d="m1744.01 1637.331v3.457a1.1 1.1 0 0 0 .521.349v-4.154a1.105 1.105 0 0 0 -.521.348z" fill="#ffa412" transform="translate(-1325.256 -1319.729)"/><path d="m1724.776 1606.063v2.417a.823.823 0 0 0 .19.52 1.1 1.1 0 0 0 .521.349 1.2 1.2 0 0 0 .2.048 1.271 1.271 0 0 0 .2.015h45.846a1.272 1.272 0 0 0 .511-.106.951.951 0 0 0 .593-.736c0-.014 0-.028 0-.042s0-.032 0-.048v-2.417c0-.016 0-.032 0-.048a1.047 1.047 0 0 0 -1.108-.884h-45.846a1.286 1.286 0 0 0 -.2.015 1.19 1.19 0 0 0 -.2.048 1.106 1.106 0 0 0 -.521.349.823.823 0 0 0 -.186.52z" fill="#ffc76c" transform="translate(-1308.581 -1292.117)"/><path d="m1894 1609.412h24.561a1.029 1.029 0 0 0 .456-.106.935.935 0 0 0 .529-.736c0-.014 0-.028 0-.042s0-.032 0-.048v-2.417c0-.016 0-.032 0-.048a.97.97 0 0 0 -.989-.884h-21.545a7.512 7.512 0 0 1 -2.865 4.175z" fill="#ffae39" transform="translate(-1455.29 -1292.117)"/><path d="m0 0h.521v4.28h-.521z" fill="#ffa412" transform="matrix(-1 0 0 -1 422.294 317.295)"/><path d="m0 0h.521v4.28h-.521z" fill="#ffa412" transform="matrix(-1 0 0 -1 424.058 317.295)"/><path d="m0 0h.521v4.28h-.521z" fill="#ffa412" transform="matrix(-1 0 0 -1 426.173 317.295)"/><path d="m0 0h.521v4.28h-.521z" fill="#ffa412" transform="matrix(-1 0 0 -1 429.415 317.295)"/><path d="m0 0h.521v4.28h-.521z" fill="#ffa412" transform="matrix(-1 0 0 -1 432.844 317.295)"/><path d="m0 0h.521v4.28h-.521z" fill="#ffa412" transform="matrix(-1 0 0 -1 438.099 317.295)"/><path d="m0 0h.521v4.28h-.521z" fill="#ffa412" transform="matrix(-1 0 0 -1 443.02 317.295)"/><path d="m0 0h.521v4.28h-.521z" fill="#ffa412" transform="matrix(-1 0 0 -1 447.415 317.295)"/><path d="m0 0h.521v4.28h-.521z" fill="#ffa412" transform="matrix(-1 0 0 -1 420.616 317.295)"/><path d="m0 0h.521v4.28h-.521z" fill="#ffa412" transform="matrix(-1 0 0 -1 419.506 317.295)"/><path d="m0 0h.521v4.28h-.521z" fill="#ffa412" transform="matrix(-1 0 0 -1 418.435 317.295)"/><path d="m1731.644 1605.148v4.25a1.271 1.271 0 0 0 .2.015h.326v-4.28h-.326a1.271 1.271 0 0 0 -.2.015z" fill="#ffa412" transform="translate(-1314.535 -1292.118)"/><path d="m1726.2 1605.953v3.457a1.1 1.1 0 0 0 .52.349v-4.159a1.1 1.1 0 0 0 -.52.353z" fill="#ffa412" transform="translate(-1309.82 -1292.526)"/><path d="m1696.615 1573.892v2.417a.823.823 0 0 0 .19.52 1.1 1.1 0 0 0 .521.349 1.2 1.2 0 0 0 .2.048 1.289 1.289 0 0 0 .2.015h45.846a1.047 1.047 0 0 0 1.108-.884c0-.016 0-.032 0-.048v-2.417c0-.016 0-.032 0-.048a1.022 1.022 0 0 0 -.977-.877 1.257 1.257 0 0 0 -.131-.007h-45.846a1.289 1.289 0 0 0 -.2.015 1.213 1.213 0 0 0 -.2.048 1.1 1.1 0 0 0 -.521.349.823.823 0 0 0 -.19.52z" fill="#ffc76c" transform="translate(-1284.167 -1264.226)"/><path d="m1865.836 1577.241h24.564a.97.97 0 0 0 .989-.884c0-.016 0-.032 0-.048v-2.417c0-.016 0-.032 0-.048a.961.961 0 0 0 -.872-.877.994.994 0 0 0 -.117-.007h-21.545v.007a7.5 7.5 0 0 1 -3.019 4.274z" fill="#ffae39" transform="translate(-1430.875 -1264.226)"/><path d="m0 0h.521v4.28h-.521z" fill="#ffa412" transform="matrix(-1 0 0 -1 418.548 313.015)"/><path d="m0 0h.521v4.28h-.521z" fill="#ffa412" transform="matrix(-1 0 0 -1 420.311 313.015)"/><path d="m0 0h.521v4.28h-.521z" fill="#ffa412" transform="matrix(-1 0 0 -1 422.426 313.015)"/><path d="m0 0h.521v4.28h-.521z" fill="#ffa412" transform="matrix(-1 0 0 -1 425.668 313.015)"/><path d="m0 0h.521v4.28h-.521z" fill="#ffa412" transform="matrix(-1 0 0 -1 429.097 313.015)"/><path d="m0 0h.521v4.28h-.521z" fill="#ffa412" transform="matrix(-1 0 0 -1 434.353 313.015)"/><path d="m0 0h.521v4.28h-.521z" fill="#ffa412" transform="matrix(-1 0 0 -1 439.274 313.015)"/><path d="m0 0h.521v4.28h-.521z" fill="#ffa412" transform="matrix(-1 0 0 -1 443.668 313.015)"/><path d="m0 0h.521v4.28h-.521z" fill="#ffa412" transform="matrix(-1 0 0 -1 416.869 313.015)"/><path d="m0 0h.521v4.28h-.521z" fill="#ffa412" transform="matrix(-1 0 0 -1 415.76 313.015)"/><path d="m0 0h.521v4.28h-.521z" fill="#ffa412" transform="matrix(-1 0 0 -1 414.689 313.015)"/><path d="m1703.48 1572.975v4.25a1.306 1.306 0 0 0 .2.015h.32v-4.28h-.325a1.29 1.29 0 0 0 -.195.015z" fill="#ffa412" transform="translate(-1290.119 -1264.225)"/><path d="m1698.042 1573.781v3.457a1.1 1.1 0 0 0 .521.349v-4.154a1.1 1.1 0 0 0 -.521.348z" fill="#ffa412" transform="translate(-1285.404 -1264.635)"/><path d="m1741.857 1541.771v2.417a.823.823 0 0 0 .19.52 1.105 1.105 0 0 0 .521.349 1.193 1.193 0 0 0 .2.048l.064.008h.052.026 45.9a1.048 1.048 0 0 0 1.108-.884c0-.016 0-.032 0-.048v-2.417c0-.016 0-.032 0-.048a1.047 1.047 0 0 0 -1.108-.883h-45.846-.059a1.274 1.274 0 0 0 -.137.013 1.217 1.217 0 0 0 -.2.048c-.033.011-.066.023-.1.036s-.039.017-.057.026h-.006l-.056.029-.009.005a.565.565 0 0 0 -.05.03.933.933 0 0 0 -.11.081l-.031.027-.006.005-.019.017c-.011.011-.022.022-.032.034s-.03.033-.044.05a.823.823 0 0 0 -.191.537z" fill="#ffc76c" transform="translate(-1323.39 -1236.378)"/><path d="m1911.079 1545.12h24.561a.97.97 0 0 0 .989-.884c0-.016 0-.032 0-.048v-2.417c0-.016 0-.032 0-.048a.97.97 0 0 0 -.989-.883h-21.54c-.009.032-.018.065-.028.1a7.488 7.488 0 0 1 -2.978 4.175z" fill="#ffae39" transform="translate(-1470.099 -1236.378)"/><path d="m0 0h.521v4.28h-.521z" fill="#ffa412" transform="matrix(-1 0 0 -1 424.567 308.742)"/><path d="m0 0h.521v4.28h-.521z" fill="#ffa412" transform="matrix(-1 0 0 -1 426.33 308.742)"/><path d="m0 0h.521v4.28h-.521z" fill="#ffa412" transform="matrix(-1 0 0 -1 428.445 308.742)"/><path d="m0 0h.521v4.28h-.521z" fill="#ffa412" transform="matrix(-1 0 0 -1 431.687 308.742)"/><path d="m0 0h.521v4.28h-.521z" fill="#ffa412" transform="matrix(-1 0 0 -1 435.116 308.742)"/><path d="m0 0h.521v4.28h-.521z" fill="#ffa412" transform="matrix(-1 0 0 -1 440.371 308.742)"/><path d="m0 0h.521v4.28h-.521z" fill="#ffa412" transform="matrix(-1 0 0 -1 445.293 308.742)"/><path d="m0 0h.521v4.28h-.521z" fill="#ffa412" transform="matrix(-1 0 0 -1 449.687 308.742)"/><path d="m0 0h.521v4.28h-.521z" fill="#ffa412" transform="matrix(-1 0 0 -1 422.888 308.742)"/><path d="m0 0h.521v4.28h-.521z" fill="#ffa412" transform="matrix(-1 0 0 -1 421.779 308.742)"/><path d="m0 0h.521v4.28h-.521z" fill="#ffa412" transform="matrix(-1 0 0 -1 420.708 308.742)"/><path d="m1748.725 1540.855v4.25a1.277 1.277 0 0 0 .2.015h.325v-4.28h-.325a1.308 1.308 0 0 0 -.2.015z" fill="#ffa412" transform="translate(-1329.344 -1236.378)"/><path d="m1743.286 1541.66v3.457a1.105 1.105 0 0 0 .521.349v-4.155a1.105 1.105 0 0 0 -.521.349z" fill="#ffa412" transform="translate(-1324.629 -1236.786)"/><path d="m1716.522 1510.342v2.417a.824.824 0 0 0 .19.52 1.1 1.1 0 0 0 .521.349 1.19 1.19 0 0 0 .2.048 1.3 1.3 0 0 0 .2.015h45.846a1.273 1.273 0 0 0 .5-.1.953.953 0 0 0 .609-.747c0-.012 0-.025 0-.038s0-.032 0-.048v-2.417c0-.016 0-.032 0-.048a1.022 1.022 0 0 0 -.977-.877 1.247 1.247 0 0 0 -.131-.007h-45.846a1.287 1.287 0 0 0 -.2.015 1.19 1.19 0 0 0 -.2.048 1.1 1.1 0 0 0 -.521.349.823.823 0 0 0 -.191.521z" fill="#ffc76c" transform="translate(-1301.425 -1209.13)"/><path d="m1885.743 1513.691h24.557a1.031 1.031 0 0 0 .442-.1.937.937 0 0 0 .544-.747c0-.012 0-.025 0-.038s0-.032 0-.048v-2.417c0-.016 0-.032 0-.048a.961.961 0 0 0 -.872-.877.993.993 0 0 0 -.117-.007h-21.545v.007a7.509 7.509 0 0 1 -2.873 4.175q-.064.051-.136.1z" fill="#ffae39" transform="translate(-1448.134 -1209.13)"/><path d="m0 0h.521v4.28h-.521z" fill="#ffa412" transform="matrix(-1 0 0 -1 421.197 304.561)"/><path d="m0 0h.521v4.28h-.521z" fill="#ffa412" transform="matrix(-1 0 0 -1 422.96 304.561)"/><path d="m0 0h.521v4.28h-.521z" fill="#ffa412" transform="matrix(-1 0 0 -1 425.075 304.561)"/><path d="m0 0h.521v4.28h-.521z" fill="#ffa412" transform="matrix(-1 0 0 -1 428.317 304.561)"/><path d="m0 0h.521v4.28h-.521z" fill="#ffa412" transform="matrix(-1 0 0 -1 431.746 304.561)"/><path d="m0 0h.521v4.28h-.521z" fill="#ffa412" transform="matrix(-1 0 0 -1 437.002 304.561)"/><path d="m0 0h.521v4.28h-.521z" fill="#ffa412" transform="matrix(-1 0 0 -1 441.923 304.561)"/><path d="m0 0h.521v4.28h-.521z" fill="#ffa412" transform="matrix(-1 0 0 -1 446.317 304.561)"/><path d="m0 0h.521v4.28h-.521z" fill="#ffa412" transform="matrix(-1 0 0 -1 419.518 304.561)"/><path d="m0 0h.521v4.28h-.521z" fill="#ffa412" transform="matrix(-1 0 0 -1 418.409 304.561)"/><path d="m0 0h.521v4.28h-.521z" fill="#ffa412" transform="matrix(-1 0 0 -1 417.338 304.561)"/><path d="m1723.389 1509.425v4.25a1.308 1.308 0 0 0 .2.015h.325v-4.28h-.325a1.308 1.308 0 0 0 -.2.015z" fill="#ffa412" transform="translate(-1307.378 -1209.129)"/><path d="m1717.95 1510.232v3.457a1.1 1.1 0 0 0 .521.349v-4.154a1.1 1.1 0 0 0 -.521.348z" fill="#ffa412" transform="translate(-1302.663 -1209.539)"/><path d="m1705.736 1478.222v2.417a.824.824 0 0 0 .19.52 1.1 1.1 0 0 0 .521.349 1.19 1.19 0 0 0 .2.048l.064.008h.036.036.059 45.846a1.047 1.047 0 0 0 1.108-.884c0-.016 0-.032 0-.048v-2.417c0-.016 0-.032 0-.048a1.047 1.047 0 0 0 -1.108-.884h-45.846a1.3 1.3 0 0 0 -.2.015 1.225 1.225 0 0 0 -.2.048 1.107 1.107 0 0 0 -.521.349.823.823 0 0 0 -.185.527z" fill="#ffc76c" transform="translate(-1292.074 -1181.283)"/><path d="m1874.957 1481.57h24.561a.97.97 0 0 0 .989-.884c0-.016 0-.032 0-.048v-2.417c0-.016 0-.032 0-.048a.97.97 0 0 0 -.989-.884h-21.545a7.5 7.5 0 0 1 -3.006 4.273z" fill="#ffae39" transform="translate(-1438.783 -1181.283)"/><path d="m0 0h.521v4.28h-.521z" fill="#ffa412" transform="matrix(-1 0 0 -1 419.762 300.287)"/><path d="m0 0h.521v4.28h-.521z" fill="#ffa412" transform="matrix(-1 0 0 -1 421.525 300.287)"/><path d="m0 0h.521v4.28h-.521z" fill="#ffa412" transform="matrix(-1 0 0 -1 423.64 300.287)"/><path d="m0 0h.521v4.28h-.521z" fill="#ffa412" transform="matrix(-1 0 0 -1 426.882 300.287)"/><path d="m0 0h.521v4.28h-.521z" fill="#ffa412" transform="matrix(-1 0 0 -1 430.311 300.287)"/><path d="m0 0h.521v4.28h-.521z" fill="#ffa412" transform="matrix(-1 0 0 -1 435.566 300.287)"/><path d="m0 0h.521v4.28h-.521z" fill="#ffa412" transform="matrix(-1 0 0 -1 440.488 300.287)"/><path d="m444.36 296.007h.521v4.28h-.521z" fill="#ffa412"/><path d="m0 0h.521v4.28h-.521z" fill="#ffa412" transform="matrix(-1 0 0 -1 418.083 300.287)"/><path d="m0 0h.521v4.28h-.521z" fill="#ffa412" transform="matrix(-1 0 0 -1 416.973 300.287)"/><path d="m0 0h.521v4.28h-.521z" fill="#ffa412" transform="matrix(-1 0 0 -1 415.903 300.287)"/><path d="m1712.6 1477.3v4.25a1.286 1.286 0 0 0 .2.015h.326v-4.28h-.326a1.286 1.286 0 0 0 -.2.015z" fill="#ffa412" transform="translate(-1298.028 -1181.282)"/><path d="m1707.165 1478.11v3.457a1.1 1.1 0 0 0 .521.349v-4.154a1.1 1.1 0 0 0 -.521.348z" fill="#ffa412" transform="translate(-1293.313 -1181.692)"/><circle cx="21.789" cy="21.789" fill="#e2810e" r="21.789" transform="matrix(.70710678 -.70710678 .70710678 .70710678 438.035 320.765)"/><circle cx="21.789" cy="21.789" fill="#ffc76c" r="21.789" transform="matrix(.70710678 -.70710678 .70710678 .70710678 439.936 320.765)"/><path d="m1991.443 1549.992a19.852 19.852 0 1 1 14.037 5.814 19.723 19.723 0 0 1 -14.037-5.814zm-4.63-14.038a18.668 18.668 0 1 0 18.668-18.667 18.689 18.689 0 0 0 -18.669 18.668z" fill="#ffa412" transform="translate(-1534.73 -1214.932)"/><path d="m2080.971 1575.544a3.278 3.278 0 0 0 -.047-1.153 2.394 2.394 0 0 0 -.487-.957 4.525 4.525 0 0 0 -.975-.86 11.913 11.913 0 0 0 -1.51-.846 31.346 31.346 0 0 1 -2.789-1.533 9.883 9.883 0 0 1 -2.085-1.7 5.814 5.814 0 0 1 -1.232-2.069 6.56 6.56 0 0 1 .53-4.961 5.516 5.516 0 0 1 1.538-1.709 6.886 6.886 0 0 1 2.2-1.049 9.178 9.178 0 0 1 2.75-.317l.388-3.272 2.634.313-.394 3.318a8.241 8.241 0 0 1 2.479 1.054 6.225 6.225 0 0 1 2.774 3.981 8.286 8.286 0 0 1 .109 2.812l-4.757-.564a4.034 4.034 0 0 0 -.49-2.841 2.8 2.8 0 0 0 -2.073-1.169 3.565 3.565 0 0 0 -1.3.055 2.414 2.414 0 0 0 -.948.461 2.248 2.248 0 0 0 -.611.788 3.311 3.311 0 0 0 -.29 1.036 3.044 3.044 0 0 0 .043 1.044 2.246 2.246 0 0 0 .467.916 4.527 4.527 0 0 0 .983.861 15.3 15.3 0 0 0 1.57.907q1.525.786 2.76 1.568a10 10 0 0 1 2.075 1.712 5.613 5.613 0 0 1 1.444 4.707 6 6 0 0 1 -.756 2.36 5.451 5.451 0 0 1 -1.544 1.693 6.651 6.651 0 0 1 -2.215 1.009 9.91 9.91 0 0 1 -2.764.292l-.361 3.043-2.617-.311.359-3.027a11.123 11.123 0 0 1 -2.571-.91 7.05 7.05 0 0 1 -2.106-1.591 6.31 6.31 0 0 1 -1.322-2.366 7.686 7.686 0 0 1 -.219-3.22l4.757.565a4.731 4.731 0 0 0 .089 1.848 3.062 3.062 0 0 0 .677 1.259 2.97 2.97 0 0 0 1.088.749 5.079 5.079 0 0 0 1.3.333 4.252 4.252 0 0 0 1.382-.037 2.832 2.832 0 0 0 1.044-.434 2.259 2.259 0 0 0 .692-.763 2.748 2.748 0 0 0 .331-1.025z" fill="#ffa412" transform="translate(-1607.482 -1248.76)"/><path d="m1337.552 1583.981s-2.75 3.871-5.271 3.925-6.356-1.794-6.356-1.794-2.315-5.159-.745-7.177a3.371 3.371 0 0 1 3.221.529 4.961 4.961 0 0 1 .852.816 2.7 2.7 0 0 0 1.323.9c1.8.547 3.934-.74 4.732.5a8.44 8.44 0 0 0 1.391 1.646 6.35 6.35 0 0 0 .853.655z" fill="#ffeddc" transform="translate(-961.673 -1269.236)"/><path d="m1152.271 1671.638s9.719-23.55 27.213-24c0 0 16.149 1.794 17.046 24z" fill="#ffeddc" transform="translate(-812.24 -1328.97)"/><path d="m1320.578 1633.183s7.012 1.559 9.176.643c0 0 .327-2.932-2.626-2.521a6.2 6.2 0 0 1 -4.112-1.084c-1.096-.558-2.729 1.736-2.438 2.962z" fill="#2b478b" transform="translate(-958.126 -1313.794)"/><path d="m1354.774 1588.924c-.448.337-1.826-4.741-1.826-4.741a4.952 4.952 0 0 1 .852.816 2.7 2.7 0 0 0 1.323.9c.005.146.086 2.701-.349 3.025z" fill="#e5c1a1" transform="translate(-986.22 -1273.955)"/><path d="m1390.37 1602.486a28.889 28.889 0 0 1 -3.781 2c-.449 0 2.391-3.647 2.391-3.647a8.44 8.44 0 0 0 1.39 1.647z" fill="#e5c1a1" transform="translate(-1015.343 -1288.396)"/><path d="m1223.619 1710.357c-.18-.154 6.878-10.392 8.822-10.467s6.311 2.243 9.473 2.542 6.227-.6 6.825 1.271 2.243 8.5 1.234 9.556-22.473.414-26.354-2.902z" fill="#f9ddbf" transform="translate(-874.093 -1374.267)"/><path d="m1724.08 690.375-.664-3.736 1.438-.255.657 3.7c.189 1.065.819 1.521 1.7 1.365a1.373 1.373 0 0 0 1.132-1.82l-.665-3.746 1.438-.256.655 3.69a2.673 2.673 0 0 1 -2.344 3.461 2.636 2.636 0 0 1 -3.347-2.403z" fill="#a8d29f" transform="translate(-1307.402 -494.94)"/><path d="m1777.269 679.784 3.036-.539a2.4 2.4 0 0 1 1.812.276 1.637 1.637 0 0 1 .04 2.614 1.63 1.63 0 0 1 1.512 1.408c.212 1.2-.653 1.966-2.129 2.228l-3.11.552zm3.2 2.159c.635-.113 1-.39.911-.894-.077-.43-.456-.613-1.063-.505l-1.42.252.246 1.382zm.851 2.566c.635-.113.978-.4.889-.909-.078-.439-.453-.652-1.191-.521l-1.663.3.256 1.438z" fill="#a8d29f" transform="translate(-1354.091 -489.357)"/><path d="m1828.452 672.915 1.439-.256 1.161 6.539-1.438.256z" fill="#a8d29f" transform="translate(-1398.464 -483.697)"/><path d="m1792.207 1612.669a1.2 1.2 0 0 1 .213 1.279.011.011 0 0 1 0 .006 7.946 7.946 0 0 1 -2.511 2.755c-.151.122-.286.233-.4.336-.031.027-.062.054-.09.081l-.07.063c-1.1 1.018-.689 1.251-2.672 3.316-2.261 2.353-3.818 2.4-4.261 2.181-.375-.183.387-1.431 1.23-2.833.041-.068.081-.136.123-.2.112-.186.224-.376.335-.563.989-1.688.735-2.48.5-4.992-.19-2.042-3.176-11.4-3.176-11.4l4.333-.746s1.305 7.456 2.743 8.6c.769.612 1.63.62 2.369 1.073.052.032.1.064.154.1a5.686 5.686 0 0 1 1.18.944z" fill="#ffb27d" transform="translate(-1357.692 -1289.35)"/><path d="m1798 1675.735a1.2 1.2 0 0 1 .213 1.279.012.012 0 0 1 0 .006 9.2 9.2 0 0 1 -2.516 2.746c-.149.124-.281.238-.4.345-.031.027-.062.054-.091.081l-.07.063c-1.1 1.017-.688 1.251-2.672 3.316-2.261 2.353-3.818 2.4-4.261 2.181-.375-.183.386-1.431 1.23-2.833a9.637 9.637 0 0 0 4.031-2.97c1.362-1.737 2.27-3.97 3.2-5.263.052.031.1.064.154.1a5.681 5.681 0 0 1 1.182.949z" fill="#233862" transform="translate(-1363.485 -1352.417)"/><path d="m1515.069 1601.367c-.268 1.338-2.174 1.115-4.3.594s-1.624.1-4.656-.237-3.95-1.466-4.043-1.917c-.083-.4 1.415-.541 3.022-.726.2-.023.4-.048.608-.073 1.814-.228 3.143-1.4 4.791-2.36 1.561-.911 3.89-4.621 3.89-4.621l4.158.33s-2.182 3.314-3.026 4.755a5.025 5.025 0 0 0 -.408 2.833 5.335 5.335 0 0 1 -.036 1.422z" fill="#ffb27d" transform="translate(-1115.496 -1280.755)"/><path d="m1510.764 1647.927c-2.13-.521-1.624.1-4.656-.237s-3.95-1.466-4.043-1.917c-.083-.4 1.415-.541 3.022-.726l.015.031a8.546 8.546 0 0 0 4.342 1.35c2.057.05 4.236-.539 5.656-.516a5.334 5.334 0 0 1 -.032 1.422c-.268 1.337-2.174 1.114-4.304.593z" fill="#233862" transform="translate(-1115.496 -1326.721)"/><path d="m1719.6 1418.954 3.887 10.459 5.075 13.656a8.225 8.225 0 0 0 2.7-.246 11.691 11.691 0 0 0 2.607-1.269s-1.409-14.664-4.038-23.081a14.991 14.991 0 0 0 -2.262-4.892c-4.077-4.815-7.969 5.373-7.969 5.373z" fill="#233862" transform="translate(-1304.095 -1124.929)"/><path d="m1599.522 1323.921c2.546-.821 9.809.233 17.1 1.661l1.527-2.519 15.759-1.231s5.2 11.532 2.353 18.879a2.665 2.665 0 0 1 -2.667 1.8h-.23s-9.379-.005-12.425-.005c-7.837 0-16.586-5.387-17.718-5.613-1.853-.37-2.593 3.334-4.446 7.225s-17.413 17.228-17.413 17.228a13.7 13.7 0 0 1 -3.38-.347 3.329 3.329 0 0 1 -1.451-.916s17.248-34.31 22.991-36.162z" fill="#2b478b" transform="translate(-1180.063 -1046.506)"/><path d="m1835.774 1000.706c4.97 4.042 16.944 11.046 17.01 11.016 0 0 3.836 2.3 6.453 1.17 4.362-1.879 7.711-8.459 1.678-15.738-3.009-3.63-5.5-4.826-4.918-9.653.635-5.229-1.727-11.8-7.745-12.08a16.616 16.616 0 0 0 -5.726.253c-5.545 1.741-14.816 22.355-6.752 25.032z" fill="#233862" transform="translate(-1402.074 -746.059)"/><path d="m1894.589 1148.875c-.324.9-8.844 1.694-13.692 1.372a6.649 6.649 0 0 1 -3.129-.676c-1.729-1.5-1.557 1.8-1.794-14-.115-7.709 6.542-14.575 6.542-14.575s.531 3.293 7.133-.626c.234-.137 2.834 3.712 5.337 8.453 2.757 5.232-.065 19.131-.397 20.052z" fill="#aec3ff" transform="translate(-1439.663 -871.839)"/><path d="m1748.818 1469.718 5.075 13.656a8.223 8.223 0 0 0 2.7-.246 11.689 11.689 0 0 0 2.607-1.269s-1.409-14.663-4.038-23.081z" fill="#2b478b" transform="translate(-1329.424 -1165.233)"/><path d="m1801.42 1125.086s-6.027 1.479-7.59 4.076c-1.9 3.163-11.4 17.427-11.4 17.427s9.359 3.311 10.954 1.715 5.551-14.8 5.551-14.8z" fill="#aec3ff" transform="translate(-1358.567 -875.934)"/><path d="m1927.516 1084.976a16.379 16.379 0 0 1 -4.232 2.921c-.7.257-1.876.539-1.876.539s-.94-.951-.953-.964c-.836-.78 0-1.005-.122-2.48-.007-.07-.012-.141-.021-.213a26.666 26.666 0 0 0 -.676-3.575.013.013 0 0 1 0-.005l5.832-1.668-.188.322c.357 3.026 1.444 5.034 2.236 5.123z" fill="#ffb27d" transform="translate(-1477.515 -836.439)"/><path d="m1925.465 1079.53a6.516 6.516 0 0 1 -5.255 4.46 27.85 27.85 0 0 0 -.576-2.787.013.013 0 0 1 0-.005z" fill="#ed975d" transform="translate(-1477.515 -836.439)"/><path d="m1890.3 1017.02s7.861-.523 7.46-5.413.344-8.252-4.692-8.125-5.857 2.073-6.12 3.738 1.301 9.81 3.352 9.8z" fill="#ffb27d" transform="translate(-1449.156 -770.505)"/><path d="m1901.718 995.969s1.953 5.731 6.591 6.4c3.383.486 4.726-.429 4.726-.429a13.277 13.277 0 0 1 -2.912-4.555 2.39 2.39 0 0 0 -1.872-1.538c-2.407-.374-5.516-1.968-6.533.122z" fill="#233862" transform="translate(-1461.983 -763.08)"/><path d="m1886.92 1003.583a5.186 5.186 0 0 0 -2.383 2.662 10 10 0 0 0 -.592 5s-2.26-5.229-.624-7.586c1.736-2.503 3.599-.076 3.599-.076z" fill="#233862" transform="translate(-1445.519 -769.679)"/><path d="m1917.407 1120.577s.481 2.9 1.076 3.444a4.218 4.218 0 0 1 -2.223-2.506s.527-.872 1.147-.938z" fill="#91b0f2" transform="translate(-1474.591 -872.025)"/><path d="m1857.342 1194.7s-4.39 5.266-3.849 7.174 3.58 1.907 3.58 1.907-.568-4.063 0-6.178.927-3.028.269-2.903z" fill="#91b0f2" transform="translate(-1420.133 -936.277)"/><path d="m1948.369 1231.153s6.324-3.854 6.241-6.093 0-6.348.6-5.772 2.468 5.191 2.288 6.5-6.566 10.432-7.357 10.41c-5.641-.161-1.772-5.045-1.772-5.045z" fill="#91b0f2" transform="translate(-1501.305 -957.557)"/><path d="m1937.851 1110.352s-3.453 4.343-4.882 4.8a9.821 9.821 0 0 0 6.923-3.387s-.958-1.399-2.041-1.413z" fill="#91b0f2" transform="translate(-1489.077 -863.161)"/><circle cx="16.026" cy="16.026" fill="#e2810e" r="16.026" transform="matrix(.20106082 -.97957876 .97957876 .20106082 413.884 281.377)"/><circle cx="16.026" cy="16.026" fill="#ffc76c" r="16.026" transform="matrix(.21 -.978 .978 .21 412.375 281.206)"/><path d="m1743.969 1194.407a14.6 14.6 0 1 1 10.325-4.277 14.505 14.505 0 0 1 -10.325 4.277zm0-28.332a13.73 13.73 0 1 0 13.73 13.73 13.746 13.746 0 0 0 -13.73-13.73z" fill="#ffa412" transform="translate(-1312.562 -910.716)"/><path d="m1799.459 1208.924a2.406 2.406 0 0 0 -.034-.848 1.763 1.763 0 0 0 -.359-.7 3.329 3.329 0 0 0 -.717-.632 8.779 8.779 0 0 0 -1.111-.622 22.981 22.981 0 0 1 -2.052-1.127 7.27 7.27 0 0 1 -1.534-1.248 4.277 4.277 0 0 1 -.906-1.521 4.825 4.825 0 0 1 .39-3.649 4.062 4.062 0 0 1 1.131-1.257 5.075 5.075 0 0 1 1.62-.772 6.759 6.759 0 0 1 2.023-.233l.286-2.407 1.937.23-.29 2.44a6.057 6.057 0 0 1 1.823.775 4.581 4.581 0 0 1 2.041 2.928 6.1 6.1 0 0 1 .08 2.068l-3.5-.415a2.969 2.969 0 0 0 -.36-2.09 2.062 2.062 0 0 0 -1.525-.859 2.625 2.625 0 0 0 -.956.04 1.782 1.782 0 0 0 -.7.339 1.659 1.659 0 0 0 -.449.58 2.449 2.449 0 0 0 -.213.762 2.234 2.234 0 0 0 .032.768 1.651 1.651 0 0 0 .344.674 3.335 3.335 0 0 0 .723.633 11.3 11.3 0 0 0 1.155.667q1.122.578 2.03 1.153a7.343 7.343 0 0 1 1.526 1.259 4.129 4.129 0 0 1 1.063 3.462 4.415 4.415 0 0 1 -.556 1.736 4.012 4.012 0 0 1 -1.136 1.245 4.9 4.9 0 0 1 -1.629.742 7.3 7.3 0 0 1 -2.033.215l-.266 2.238-1.925-.228.264-2.227a8.176 8.176 0 0 1 -1.891-.669 5.186 5.186 0 0 1 -1.549-1.17 4.634 4.634 0 0 1 -.972-1.74 5.65 5.65 0 0 1 -.161-2.368l3.5.415a3.474 3.474 0 0 0 .066 1.359 2.253 2.253 0 0 0 .5.926 2.186 2.186 0 0 0 .8.551 3.729 3.729 0 0 0 .959.245 3.118 3.118 0 0 0 1.016-.027 2.084 2.084 0 0 0 .769-.32 1.656 1.656 0 0 0 .508-.561 2.021 2.021 0 0 0 .238-.76z" fill="#ffa412" transform="translate(-1366.042 -935.597)"/><path d="m1710.2 1277.578s-.179-2.633.816-2.529c1.221.127 2.518 3.023 1.923 3.583s-2.725-.405-2.739-1.054z" fill="#ffb27d" transform="translate(-1295.935 -1005.944)"/><path d="m1918.345 1331.985-1.485-.89a3.843 3.843 0 0 0 -1.463-.29c-.542.078-1.831-.15-1.871.06s1.238 1.151 1.238 1.151c-.769 1.179-3.554 1.4-3.766 1.841-.257.538 1 1.044 1.684 1.337a3.979 3.979 0 0 0 3.436-.205c.737-.56 1.948-1.3 1.948-1.3z" fill="#ffb27d" transform="translate(-1469.999 -1054.258)"/><path d="m1960.877 1120.4s6.237.408 7.8 2.84 6.567 16.289 5.756 20.53-15.643 9.332-15.643 9.332a2.785 2.785 0 0 1 -.656-2.089 4.349 4.349 0 0 1 .474-1.793s9.1-7.6 8.474-9.119c-2.316-5.601-6.205-19.701-6.205-19.701z" fill="#aec3ff" transform="translate(-1510.891 -871.869)"/><path d="m646.3 1828.65-365.246-.126a.464.464 0 0 1 -.462-.463v-.282a.464.464 0 0 1 .463-.463l365.246.126a.464.464 0 0 1 .463.463v.282a.464.464 0 0 1 -.464.463z" fill="#2e3552" transform="translate(-56.524 -1484.742)"/></g></svg>